<svg
  xmlns="http://www.w3.org/2000/svg"
  xmlns:xlink="http://www.w3.org/1999/xlink"
>
  <symbol id="casino" viewBox="0 0 400 400"
    ><path
      class="cls-1"
      d="M266.81,290.53c-18.61,13.51-41.49,21.47-66.24,21.47s-47.66-7.97-66.27-21.49l-41.62,47.72c29.64,23.05,66.88,36.77,107.32,36.77s78.74-14.11,108.57-37.75l-41.76-46.72ZM334.04,87.49l-44.01,42.8c14.69,19.05,23.42,42.93,23.42,68.84s-8.2,48.29-22.07,67.04l45.36,43.05c23.94-29.93,38.26-67.9,38.26-109.22s-15.4-82.09-40.96-112.51ZM200,25c-39.35,0-75.66,12.99-104.89,34.9l41.37,46.29c18.21-12.58,40.29-19.95,64.09-19.95s46.32,7.52,64.62,20.33l40.3-46.21c-29.33-22.2-65.88-35.36-105.49-35.36ZM111.36,129.96l-45.12-42.81c-25.73,30.47-41.24,69.84-41.24,112.85s14.9,80.8,39.71,111l45.48-44.24c-14.13-18.85-22.5-42.27-22.5-67.63s8.83-50.06,23.67-69.17Z"
    /><path
      class="cls-1"
      d="M277.04,141.38c-5.95-7.74-13.09-14.55-21.11-20.15-15.56-10.89-34.49-17.28-54.93-17.28s-38.99,6.26-54.47,16.95c-8.11,5.61-15.32,12.43-21.35,20.2-12.61,16.25-20.12,36.64-20.12,58.8s7.11,41.46,19.12,57.48c5.78,7.71,12.7,14.52,20.5,20.19,15.81,11.49,35.28,18.26,56.32,18.26s40.49-6.76,56.31-18.25c7.97-5.79,15.03-12.78,20.87-20.7,11.8-15.94,18.77-35.64,18.77-56.98s-7.42-42.33-19.91-58.52ZM246.41,217.55c-1.88,16.28-22.64,28.11-36.06,16.32-2.06-1.81-3.07-4.4-5.24-6.06-.36,10.03,1.06,20.51,6.38,29.2l6.3,8.87c-11.25-2.89-22.38-2.62-33.66,0-.56-.49,5.37-7.19,5.97-8.1,5.57-8.58,6.97-19.92,6.72-29.97-3.27,3.28-4.74,6.64-9.17,8.76-13.94,6.67-28.84-3.33-31.97-17.55-5.52-25.19,20.24-43.65,32.66-62.31,5.09-7.65,9.07-15.89,12.62-24.34,3.69,9.24,8.29,18.14,13.95,26.32,12.99,18.79,34.5,32.96,31.5,58.86Z"
    /><path
      class="cls-1"
      d="M277.04,141.38c-5.95-7.74-13.09-14.55-21.11-20.15-15.56-10.89-34.49-17.28-54.93-17.28s-38.99,6.26-54.47,16.95c-8.11,5.61-15.32,12.43-21.35,20.2-12.61,16.25-20.12,36.64-20.12,58.8s7.11,41.46,19.12,57.48c5.78,7.71,12.7,14.52,20.5,20.19,15.81,11.49,35.28,18.26,56.32,18.26s40.49-6.76,56.31-18.25c7.97-5.79,15.03-12.78,20.87-20.7,11.8-15.94,18.77-35.64,18.77-56.98s-7.42-42.33-19.91-58.52ZM246.41,217.55c-1.88,16.28-22.64,28.11-36.06,16.32-2.06-1.81-3.07-4.4-5.24-6.06-.36,10.03,1.06,20.51,6.38,29.2l6.3,8.87c-11.25-2.89-22.38-2.62-33.66,0-.56-.49,5.37-7.19,5.97-8.1,5.57-8.58,6.97-19.92,6.72-29.97-3.27,3.28-4.74,6.64-9.17,8.76-13.94,6.67-28.84-3.33-31.97-17.55-5.52-25.19,20.24-43.65,32.66-62.31,5.09-7.65,9.07-15.89,12.62-24.34,3.69,9.24,8.29,18.14,13.95,26.32,12.99,18.79,34.5,32.96,31.5,58.86Z"
    /></symbol
  ><symbol id="phone" viewBox="0 0 24 24">
    <path stroke="none" d="M0 0h24v24H0z" fill="none" />
    <path
      d="M9 3a1 1 0 0 1 .877 .519l.051 .11l2 5a1 1 0 0 1 -.313 1.16l-.1 .068l-1.674 1.004l.063 .103a10 10 0 0 0 3.132 3.132l.102 .062l1.005 -1.672a1 1 0 0 1 1.113 -.453l.115 .039l5 2a1 1 0 0 1 .622 .807l.007 .121v4c0 1.657 -1.343 3 -3.06 2.998c-8.579 -.521 -15.418 -7.36 -15.94 -15.998a3 3 0 0 1 2.824 -2.995l.176 -.005h4z"
    /></symbol
  ><symbol id="chat" viewBox="0 0 24 24"
    ><path stroke="none" d="M0 0h24v24H0z" fill="none" /><path
      d="M18 3a4 4 0 0 1 4 4v8a4 4 0 0 1 -4 4h-4.724l-4.762 2.857a1 1 0 0 1 -1.508 -.743l-.006 -.114v-2h-1a4 4 0 0 1 -3.995 -3.8l-.005 -.2v-8a4 4 0 0 1 4 -4zm-4 9h-6a1 1 0 0 0 0 2h6a1 1 0 0 0 0 -2m2 -4h-8a1 1 0 1 0 0 2h8a1 1 0 0 0 0 -2"
    /></symbol
  ><symbol
    id="web"
    viewBox="0 0 24 24"
    fill="none"
    stroke="currentColor"
    stroke-width="2"
    stroke-linecap="round"
    stroke-linejoin="round"
    ><path stroke="none" d="M0 0h24v24H0z" fill="none" /><path
      d="M19.5 7a9 9 0 0 0 -7.5 -4a8.991 8.991 0 0 0 -7.484 4"
    /><path d="M11.5 3a16.989 16.989 0 0 0 -1.826 4" /><path
      d="M12.5 3a16.989 16.989 0 0 1 1.828 4"
    /><path d="M19.5 17a9 9 0 0 1 -7.5 4a8.991 8.991 0 0 1 -7.484 -4" /><path
      d="M11.5 21a16.989 16.989 0 0 1 -1.826 -4"
    /><path d="M12.5 21a16.989 16.989 0 0 0 1.828 -4" /><path
      d="M2 10l1 4l1.5 -4l1.5 4l1 -4"
    /><path d="M17 10l1 4l1.5 -4l1.5 4l1 -4" /><path
      d="M9.5 10l1 4l1.5 -4l1.5 4l1 -4"
    /></symbol
  ><symbol
    id="email"
    viewBox="0 0 24 24"
    fill="none"
    stroke="currentColor"
    stroke-width="2"
    stroke-linecap="round"
    stroke-linejoin="round"
    ><path stroke="none" d="M0 0h24v24H0z" fill="none" /><path
      d="M8 12a4 4 0 1 0 8 0a4 4 0 1 0 -8 0"
    /><path d="M16 12v1.5a2.5 2.5 0 0 0 5 0v-1.5a9 9 0 1 0 -5.5 8.28" /></symbol
  ><symbol id="money" viewBox="0 0 24 24"
    ><path d="M0 0h24v24H0z" fill="none" /><path
      d="M17 3.34a10 10 0 1 1 -15 8.66l.005 -.324a10 10 0 0 1 14.995 -8.336zm-5 2.66c-2.052 0 -3.768 1.449 -4.549 3.5h-.451a1 1 0 0 0 -.117 1.993l.134 .007a7.298 7.298 0 0 0 0 1h-.017a1 1 0 0 0 0 2h.452c.78 2.053 2.496 3.5 4.548 3.5c1.141 0 2.217 -.457 3.084 -1.27a1 1 0 0 0 -1.368 -1.46c-.509 .478 -1.102 .73 -1.716 .73c-.922 0 -1.776 -.578 -2.335 -1.499l1.335 -.001a1 1 0 0 0 0 -2h-1.977a5.342 5.342 0 0 1 0 -1h1.977a1 1 0 0 0 0 -2h-1.336c.56 -.921 1.414 -1.5 2.336 -1.5c.615 0 1.208 .252 1.717 .73a1 1 0 0 0 1.368 -1.46c-.867 -.812 -1.943 -1.27 -3.085 -1.27z"
    /></symbol
  ><symbol id="clock" viewBox="0 0 24 24"
    ><path d="M0 0h24v24H0z" fill="none" /><path
      d="M17 3.34a10 10 0 1 1 -14.995 8.984l-.005 -.324l.005 -.324a10 10 0 0 1 14.995 -8.336zm-5 2.66a1 1 0 0 0 -.993 .883l-.007 .117v5l.009 .131a1 1 0 0 0 .197 .477l.087 .1l3 3l.094 .082a1 1 0 0 0 1.226 0l.094 -.083l.083 -.094a1 1 0 0 0 0 -1.226l-.083 -.094l-2.707 -2.708v-4.585l-.007 -.117a1 1 0 0 0 -.993 -.883z"
    /></symbol
  >
  	<symbol id="new" viewBox="0 0 400 400"
		><path
			d="M196.62,285.36c-7.63-8.46-20.26-13.88-27.96-22.82-6.06-6.62-11.77-16.36-16.2-21.33-2.16-2.4-4.85-5.17-8.26-4.47-4.29,1.18-7.56,6.24-10.63,10.3-5.43,7.63-10.88,15.94-18.46,21.75-6.33,5.04-13.44,9.45-17.75,13.21-1.82,1.59-3.66,3.37-4.5,5.55-1.83,5.79,5.28,9.8,9.74,13.38,6.93,5.02,14.66,9.95,20.28,16.61,6.45,6.49,16.09,26.57,23.39,24.77,4.52-1.21,7.93-6.73,11.14-11.02,3.21-4.51,6.52-9.49,10.22-13.74,6.67-8.12,19.56-15.25,26.13-20.97,3.44-2.81,6.4-7.09,2.93-11.11l-.08-.1Z"
		/><path
			d="M202.07,116.85c-6.3-5.03-17.59-7.81-25.62-11-25.43-9.82-46.42-31.1-55.86-56.68-3.39-7.73-10.53-39.07-20.05-20.05-3.04,5.75-5.51,13.92-7.97,20.45-11.05,29.97-37.22,51.99-67.61,60.64-5.28,2.08-15.3,5.44-15.44,10.33.12,1.95,2.28,3.91,5.99,5.87,2.68,1.42,6.14,2.85,9.91,4.22,30.15,8.53,56.47,30.85,67.28,60.61,2.38,6.4,4.69,14.06,7.64,19.82,4.4,8.85,8.49,8.46,12.7.02,2.94-5.72,5.3-13.45,7.7-19.82,9.79-26.1,31.49-47.7,57.7-57.2,5.6-2.53,32.92-9.05,23.7-17.13l-.08-.07Z"
		/><path
			d="M368.49,205.44c-5.09-4.42-14.44-7.51-21.19-10.41-19.92-8.03-36.53-24.26-44.87-44.03-2.71-6.25-5.45-13.99-8.8-19.46-4.65-7.68-8.44-5.69-12.46,1.8-2.2,4.04-4.34,9.43-6.21,14.04-9.54,25.88-30.55,43.01-56.18,51.74-4.9,2.36-13.05,5.23-13.3,10.05.62,4.53,9.49,7.93,14.44,10.17,24.95,8.36,46.21,26.67,55.19,51.77,2.1,5.22,4.69,11.74,7.38,15.96,4.76,7.52,8.44,4.75,12.39-2.76,1.81-3.42,3.64-7.86,5.46-12.41,8.73-24.93,29.72-43.89,54.55-52.2,5.13-2.47,20.59-7.56,13.68-14.17l-.08-.08Z"
		/>
	</symbol>
</svg>
