<svg
  xmlns="http://www.w3.org/2000/svg"
  xmlns:xlink="http://www.w3.org/1999/xlink"
>
  <symbol id="it" viewBox="0 0 500 300">
    <defs>
      <style>
        .gc-logo-1 {
          fill: #6b3a11;
        }

        .gc-logo-2 {
          fill: #f6f1e0;
        }
      </style>
    </defs>
    <g>
      <path
        class="gc-logo-2"
        d="M243.26,234.64c.63-.51,1.4-1.01,2.3-1.52.9-.51,1.82-.98,2.75-1.42.93-.44,1.78-.8,2.57-1.09.78-.29,1.37-.43,1.76-.44.39,0,.59.11.6.36,0,.2-.27.47-.8.83-.53.36-1.25.74-2.16,1.15-.9.41-1.94.84-3.12,1.28-1.17.44-2.39.85-3.67,1.22-1.66,1.21-3.21,2.57-4.66,4.08-1.45,1.51-2.88,3.22-4.3,5.15-1.42,1.93-2.87,4.14-4.35,6.63-1.48,2.49-3.03,5.33-4.64,8.52.24.05.42.07.55.07.13,0,.29,0,.48-.01,1.48-.03,2.91-.3,4.28-.82,1.37-.52,2.63-1.21,3.77-2.07,1.14-.86,2.1-1.85,2.86-2.98.77-1.13,1.29-2.33,1.56-3.62.09-.4.21-.6.36-.6.15,0,.22.09.23.3,0,.54-.21,1.32-.66,2.34-.44,1.02-.98,1.93-1.61,2.73-1.21,1.5-2.81,2.75-4.81,3.75-2,1-3.99,1.52-5.96,1.56-.15,0-.31,0-.48,0-.17,0-.46-.01-.85-.06-1.09,2.04-1.94,3.63-2.54,4.78-.59,1.15-1.1,2.06-1.5,2.73-.41.67-.79,1.22-1.16,1.64-.36.43-.83.97-1.41,1.61-1.35,1.51-2.9,2.89-4.65,4.16-1.75,1.26-3.6,2.33-5.56,3.21-1.96.88-3.98,1.57-6.06,2.07-2.08.51-4.16.79-6.23.83-2.37.04-4.5-.23-6.41-.8-1.91-.58-3.55-1.43-4.93-2.57-1.38-1.13-2.45-2.49-3.22-4.08-.77-1.59-1.17-3.39-1.21-5.41-.05-2.51.55-4.98,1.81-7.39,1.26-2.41,2.96-4.57,5.09-6.45,2.13-1.89,4.56-3.43,7.3-4.61,2.74-1.19,5.58-1.81,8.54-1.87,3.35-.06,6.05.83,8.11,2.66,2.05,1.83,3.11,4.33,3.18,7.48.04,2.17-.41,4.31-1.36,6.42-.95,2.11-2.22,3.99-3.81,5.65-1.59,1.65-3.42,3.01-5.47,4.06-2.05,1.05-4.14,1.6-6.26,1.64-1.13.02-2.19-.17-3.19-.57-.99-.4-1.86-.98-2.59-1.73-.73-.75-1.31-1.62-1.75-2.62-.44-1-.66-2.1-.68-3.28-.03-1.62.33-3.2,1.09-4.71.76-1.52,1.79-2.88,3.1-4.09,1.31-1.21,2.81-2.17,4.49-2.89,1.69-.72,3.47-1.1,5.34-1.14.59-.01,1.21.06,1.85.23.64.16,1.23.39,1.75.67.52.29.95.6,1.27.94.33.34.49.68.5,1.02,0,.15-.09.23-.29.23-.05,0-.15-.07-.3-.22-1.06-1.56-2.53-2.32-4.41-2.28-1.57.03-3.14.44-4.71,1.24-1.56.8-2.96,1.82-4.19,3.08-1.24,1.25-2.22,2.66-2.96,4.22-.73,1.57-1.08,3.11-1.05,4.64.04,2.07.69,3.7,1.95,4.88,1.26,1.18,2.94,1.76,5.07,1.71,1.97-.04,3.91-.57,5.81-1.59,1.9-1.02,3.62-2.35,5.14-3.98,1.52-1.63,2.74-3.47,3.67-5.5.92-2.04,1.37-4.07,1.33-6.09-.03-1.38-.3-2.66-.82-3.83-.51-1.18-1.24-2.19-2.17-3.03-.93-.84-2.01-1.49-3.25-1.93-1.24-.44-2.6-.65-4.08-.63-2.76.05-5.43.7-7.99,1.93-2.56,1.23-4.82,2.85-6.78,4.87-1.96,2.01-3.51,4.31-4.67,6.89-1.16,2.58-1.71,5.25-1.66,8.02.03,1.53.38,2.93,1.04,4.19.67,1.27,1.57,2.35,2.72,3.24,1.15.89,2.51,1.58,4.07,2.07,1.56.48,3.28.71,5.15.67,7.29-.14,13.76-3.89,19.39-11.24.72-.95,1.65-2.26,2.77-3.94,1.13-1.67,2.46-3.71,3.99-6.1-2.04-.8-3.6-1.93-4.69-3.38-1.09-1.46-1.65-3.18-1.69-5.15-.04-2.31.61-4.41,1.95-6.28,1.34-1.87,3.34-3.4,5.98-4.59,1.46-.67,3.18-1.26,5.17-1.8,1.99-.54,4.58-1.1,7.78-1.7.73-.17,1.34-.29,1.83-.37.49-.08.92-.16,1.29-.24.37-.08.74-.16,1.1-.24.37-.08.8-.18,1.29-.28l1.76-.41ZM239.96,235.96c-.64.16-1.27.33-1.91.51-.64.19-1.3.36-1.99.51-2.94.75-5.59,1.68-7.94,2.78-2.34,1.1-4.33,2.33-5.95,3.67-1.62,1.34-2.88,2.77-3.76,4.29-.88,1.52-1.3,3.07-1.27,4.65.05,2.86,1.6,4.95,4.63,6.27,3.15-5.29,6.42-9.82,9.82-13.6,3.41-3.79,7.03-7.02,10.88-9.71l-2.5.64Z"
      />
      <path
        class="gc-logo-2"
        d="M245.83,259.28l-.3.52-4.73.03-7.99,13.79c-.98,1.68-1.47,3.02-1.46,4,0,1.08.57,1.62,1.71,1.62.49,0,1.13-.28,1.92-.82.79-.55,1.66-1.33,2.61-2.34.96-1.02,1.99-2.23,3.09-3.64,1.1-1.41,2.24-2.98,3.42-4.71.2-.25.34-.37.44-.37.15,0,.23.07.23.22,0,.1-.12.3-.36.59l-1.55,2.15c-2.35,3.26-4.33,5.65-5.95,7.16-1.62,1.51-3.02,2.27-4.2,2.28-1.13,0-2.08-.4-2.85-1.21-.77-.81-1.16-1.83-1.17-3.06,0-1.48.63-3.28,1.9-5.41l6.01-10.23-3.7.02.37-.53h3.62s4.19-7.06,4.19-7.06c.39.1.74.17,1.03.22.3.05.64.07,1.04.07.4,0,.74-.03,1.04-.08.3-.05.64-.13,1.04-.23l-4.11,7.04,4.73-.02Z"
      />
      <path
        class="gc-logo-2"
        d="M262.27,259.66c.39.11.7.17.95.19.25.03.57.04.97.04.44,0,.84,0,1.18-.03.35-.03.79-.08,1.34-.18l-6.4,10.55c-1.09,1.82-1.93,3.36-2.5,4.61-.57,1.26-.85,2.15-.85,2.69,0,1.13.46,1.7,1.4,1.71.49,0,1.14-.29,1.93-.88.79-.59,1.69-1.4,2.71-2.43,1.02-1.03,2.08-2.23,3.2-3.61,1.11-1.38,2.21-2.88,3.3-4.5.1-.25.22-.37.36-.37.15,0,.23.08.23.23,0,.05-.19.35-.56.89-.37.54-.83,1.17-1.37,1.88-.54.71-1.13,1.46-1.75,2.25-.62.78-1.15,1.45-1.59,1.99-1.58,1.86-2.88,3.18-3.89,3.94-1.01.76-1.96,1.14-2.85,1.14-1.13,0-2.05-.41-2.74-1.23-.69-.82-1.03-1.86-1.02-3.15,0-.74.09-1.42.27-2.03s.48-1.34.93-2.17c-1.24,1.72-2.3,3.12-3.19,4.2-.89,1.08-1.7,1.95-2.42,2.62-.72.66-1.36,1.11-1.93,1.36-.57.25-1.14.37-1.73.37-1.28,0-2.35-.56-3.21-1.64-.86-1.09-1.28-2.47-1.27-4.14,0-2.22.85-4.38,2.53-6.5,1.68-2.11,4.1-4.03,7.26-5.74,2.92-1.56,5.24-2.34,6.96-2.34,1.48,0,2.21.72,2.21,2.15,0,.44-.11.99-.3,1.63l1.86-3.47ZM258.57,259.88c-.74,0-1.61.29-2.59.88-.99.59-2,1.36-3.04,2.32-1.04.96-2.08,2.05-3.11,3.28-1.04,1.23-1.96,2.47-2.75,3.72-.79,1.25-1.44,2.47-1.93,3.65-.49,1.18-.74,2.21-.75,3.1,0,1.58.68,2.37,2.06,2.37.49,0,1-.13,1.51-.4.52-.27,1.12-.73,1.81-1.39.69-.67,1.48-1.51,2.34-2.55.87-1.03,1.87-2.34,3.01-3.91,3.37-4.47,5.06-7.57,5.06-9.3,0-1.18-.54-1.77-1.62-1.78Z"
      />
      <path
        class="gc-logo-2"
        d="M279.98,270.61c-4.61,6.21-8,9.3-10.17,9.27-1.03-.01-1.88-.4-2.54-1.17-.65-.77-.97-1.78-.96-3.01,0-.64.05-1.22.13-1.73.08-.52.36-1.23.83-2.13.48-.91,1.21-2.17,2.19-3.79.98-1.61,2.37-3.89,4.18-6.83.85-1.42,1.8-2.96,2.83-4.62,1.03-1.67,2.05-3.34,3.05-5.03,1.01-1.69,1.98-3.32,2.91-4.88.93-1.56,1.75-2.96,2.45-4.19.39.11.71.19.95.24.25.05.57.08.96.08.54,0,.97-.01,1.29-.06.33-.05.73-.16,1.22-.36-3.41,5.58-6.3,10.28-8.66,14.09-2.36,3.82-4.3,6.97-5.81,9.47-1.51,2.5-2.68,4.45-3.51,5.88-.83,1.42-1.43,2.51-1.81,3.27-.38.76-.61,1.32-.68,1.66-.08.34-.12.66-.13.95-.01,1.08.45,1.63,1.39,1.64,2.02.02,5.76-3.76,11.23-11.33.1-.25.24-.37.44-.36.1,0,.15.07.15.22,0,.15-.13.35-.38.59l-1.58,2.13Z"
      />
      <path
        class="gc-logo-2"
        d="M282.32,273.42c-1.22,1.85-1.84,3.34-1.85,4.48-.02,1.08.54,1.63,1.67,1.65,1.13.02,2.63-.89,4.48-2.73,1.86-1.84,4.2-4.68,7.02-8.53.1-.25.23-.37.38-.36.15,0,.22.07.21.22,0,.1-.13.3-.38.58l-1.59,2.12c-2.47,3.31-4.52,5.68-6.15,7.11-1.62,1.43-3.08,2.13-4.36,2.1-1.13-.02-2.07-.43-2.83-1.22-.75-.8-1.12-1.82-1.1-3.06.02-.84.2-1.71.57-2.62.36-.91,1.05-2.14,2.06-3.7l5.78-9.45c.39.11.7.18.92.21.22.03.5.05.85.05.49,0,.93,0,1.3-.01.37-.02.85-.08,1.44-.16l-8.43,13.32ZM292.45,251.63c.44,0,.81.16,1.1.46.29.3.44.67.43,1.12-.02.84-.39,1.62-1.12,2.35-.73.73-1.51,1.08-2.35,1.07-1.08-.02-1.62-.57-1.59-1.66.01-.84.39-1.61,1.14-2.31.75-.7,1.55-1.05,2.39-1.03Z"
      />
      <path
        class="gc-logo-2"
        d="M311.98,260.63c.39.11.71.19.95.22.25.03.57.05.97.06.44.01.84.01,1.18,0,.35-.02.79-.07,1.33-.16l-6.62,10.41c-1.13,1.8-1.99,3.31-2.59,4.56-.6,1.24-.9,2.13-.92,2.67-.03,1.13.42,1.71,1.36,1.74.49.01,1.14-.27,1.95-.84s1.72-1.36,2.76-2.37c1.04-1.01,2.13-2.19,3.27-3.54,1.14-1.36,2.28-2.83,3.4-4.43.1-.24.22-.36.37-.36.15,0,.22.08.22.23,0,.05-.19.34-.58.87-.38.53-.85,1.14-1.41,1.85-.56.7-1.15,1.44-1.79,2.21-.64.77-1.18,1.42-1.64,1.96-1.62,1.83-2.95,3.11-3.98,3.85-1.03.74-1.99,1.1-2.88,1.08-1.13-.03-2.04-.46-2.71-1.29-.67-.83-.99-1.88-.96-3.16.02-.74.13-1.42.31-2.03.19-.61.51-1.33.98-2.16-1.27,1.7-2.37,3.07-3.28,4.14-.91,1.06-1.74,1.91-2.47,2.56-.73.65-1.39,1.09-1.96,1.32-.57.23-1.15.34-1.74.33-1.28-.03-2.34-.6-3.18-1.71-.83-1.11-1.23-2.5-1.19-4.17.05-2.22.94-4.36,2.67-6.44,1.73-2.07,4.19-3.94,7.38-5.58,2.95-1.5,5.29-2.23,7.01-2.19,1.48.04,2.2.77,2.16,2.2-.01.44-.13.98-.34,1.62l1.94-3.43ZM308.29,260.76c-.74-.02-1.61.26-2.62.82-1,.57-2.03,1.32-3.09,2.25-1.06.94-2.12,2.01-3.19,3.21-1.06,1.2-2.01,2.42-2.83,3.66-.82,1.24-1.49,2.44-2.01,3.61-.52,1.17-.79,2.2-.82,3.08-.04,1.58.63,2.38,2.01,2.42.49.01,1-.11,1.52-.37.52-.25,1.14-.7,1.85-1.35.71-.65,1.5-1.48,2.39-2.49.89-1.02,1.92-2.3,3.09-3.85,3.47-4.39,5.22-7.45,5.26-9.18.03-1.18-.49-1.78-1.58-1.81Z"
      />
    </g>
    <g>
      <path
        class="gc-logo-1"
        d="M77.21,209.38c-8.46.45-16.43-1.95-23.67-7.15-8.51-6.09-13.67-14.33-15.35-24.5-1.68-10.16.56-19.62,6.66-28.13,6.1-8.51,14.34-13.67,24.5-15.35l1.67-.28,1.72,10.41-1.67.28c-7.3,1.21-13.24,4.94-17.64,11.08-4.4,6.15-6.03,12.97-4.82,20.27,1.11,6.71,4.38,12.31,9.73,16.63,4.83,3.91,10.3,5.97,16.28,6.13l-1.57-9.49-9.62,1.59-1.74-10.51,20.13-3.33,5.12,30.97-5.25.87c-1.5.25-3,.41-4.46.49Z"
      />
      <path
        class="gc-logo-2"
        d="M62.65,181.07l1.46,8.84,9.62-1.59,1.87,11.32c-6.57.05-12.55-2.08-17.81-6.33-5.51-4.46-8.88-10.23-10.03-17.15-1.24-7.53.43-14.56,4.97-20.9,4.54-6.34,10.66-10.18,18.19-11.43l.83-.14-1.44-8.74-.83.14c-9.93,1.64-17.99,6.69-23.95,15.01-5.96,8.32-8.15,17.57-6.51,27.5,1.64,9.93,6.69,17.99,15.01,23.95,7.09,5.08,14.87,7.43,23.14,6.99,1.43-.08,2.9-.24,4.37-.48l4.42-.73-4.84-29.3-18.46,3.05Z"
      />
      <path
        class="gc-logo-1"
        d="M84.93,188.4c-1.26-9.74.53-19.22,5.32-28.2,4.8-8.97,12.43-16.24,22.67-21.59l2.15-1.11,4.81,36.93,2.84-.37,1.37,10.46-2.84.37,2.39,18.39-10.46,1.36-2.4-18.39-15.22,1.98,2.4,18.39-10.47,1.37-2.55-19.59ZM106.78,155.52c-2.94,2.71-5.4,5.92-7.32,9.56-2.07,3.95-3.41,8.15-3.97,12.52l13.93-1.81-2.63-20.28Z"
      />
      <path
        class="gc-logo-2"
        d="M121.99,175.01l-2.84.37-4.76-36.57-1.07.56c-10.1,5.27-17.6,12.43-22.32,21.23-4.71,8.82-6.47,18.14-5.23,27.69l2.44,18.75,8.79-1.15-2.4-18.39,16.9-2.2,2.4,18.39,8.78-1.15-2.39-18.39,2.84-.37-1.15-8.78ZM94.52,178.58c.49-4.86,1.9-9.54,4.19-13.9,2.22-4.22,5.15-7.86,8.71-10.85l2.95,22.69-15.84,2.06Z"
      />
      <path
        class="gc-logo-1"
        d="M123.55,165.81c-.69-7.41,1.43-14.15,6.31-20.03,4.88-5.88,11.11-9.21,18.52-9.9.4-.04.79-.07,1.18-.09,6.94-.37,13.3,1.78,18.89,6.39,5.91,4.88,9.26,11.11,9.95,18.52l3.44,36.9-10.6.99-3.44-36.9c-.37-3.95-2-7.41-4.84-10.28-2.34-2.36-5.1-3.91-8.22-4.63l4.92,52.89-10.51.98-4.92-52.88c-2.89,1.28-5.3,3.31-7.19,6.03-2.29,3.31-3.27,7.02-2.9,11.03l3.44,36.9-10.6.99-3.44-36.9Z"
      />
      <path
        class="gc-logo-2"
        d="M167.92,142.84c-5.43-4.47-11.59-6.56-18.31-6.2-.38.02-.76.05-1.15.08-7.18.67-13.22,3.9-17.95,9.6-4.73,5.7-6.79,12.23-6.12,19.41l3.36,36.06,8.92-.83-3.36-36.06c-.39-4.22.63-8.12,3.04-11.59,2.21-3.19,5.11-5.46,8.62-6.76l4.95,53.17,8.82-.82-4.95-53.18c3.75.62,7.03,2.33,9.77,5.09,2.99,3.01,4.7,6.64,5.08,10.79l3.36,36.06,8.92-.83-3.36-36.06c-.67-7.18-3.92-13.22-9.65-17.95Z"
      />
      <path
        class="gc-logo-1"
        d="M183.9,162.02c-.07.04-.14.07-.21.1l-1.46.75-5.04-9.27,1.51-.8c1.36-.73,2.89-1.36,4.55-1.9l-1.05-17.81,5.32-.31c3.72-.2,7.03.97,9.83,3.47,2.83,2.51,4.37,5.65,4.59,9.35.15,2.42-.3,4.71-1.34,6.82,3.36,1.69,6.22,4.15,8.51,7.31,2.68,3.7,4.17,7.9,4.44,12.48.38,6.41-1.62,12.18-5.94,17.14-4.33,4.98-9.78,7.69-16.2,8.07l-5.4.32-2.1-35.73ZM195.93,185.4c1.89-1.01,3.48-2.45,4.76-4.31,1.72-2.5,2.5-5.27,2.32-8.25-.17-2.97-1.27-5.61-3.26-7.86-1.49-1.67-3.24-2.89-5.23-3.63l1.41,24.05Z"
      />
      <path
        class="gc-logo-2"
        d="M199.43,152.81c1.25-2.18,1.81-4.59,1.65-7.15-.2-3.46-1.65-6.41-4.31-8.77-2.63-2.35-5.71-3.44-9.21-3.25l-4.48.26,1.04,17.62c-1.87.56-3.56,1.24-5.04,2.03l-.75.4,4.24,7.79.73-.38c.34-.17.79-.38,1.36-.62l2.12,36.11,4.56-.27c6.19-.36,11.44-2.98,15.61-7.78,4.17-4.79,6.1-10.36,5.73-16.54-.26-4.41-1.7-8.45-4.28-12.03-2.39-3.3-5.4-5.79-8.99-7.42ZM193.07,146.04c.08,1.28-.25,2.34-.96,3.22l-.36-6.11c.81.79,1.25,1.75,1.32,2.89ZM203.85,172.79c.19,3.16-.65,6.12-2.47,8.77-1.6,2.34-3.7,4.07-6.22,5.14l-1.56-26.53c2.64.71,4.91,2.14,6.78,4.25,2.12,2.39,3.29,5.2,3.47,8.37Z"
      />
      <polygon
        class="gc-logo-1"
        points="215.7 195.89 213.51 131.36 224.06 131 225.88 184.89 238.78 184.45 239.14 195.09 215.7 195.89"
      />
      <polygon
        class="gc-logo-2"
        points="223.24 131.88 214.38 132.18 216.52 195.01 238.27 194.28 237.96 185.32 225.07 185.76 223.24 131.88"
      />
      <rect
        class="gc-logo-1"
        x="239.45"
        y="130.46"
        width="10.55"
        height="64.56"
        transform="translate(-2.94 4.51) rotate(-1.05)"
      />
      <rect
        class="gc-logo-2"
        x="240.29"
        y="131.31"
        width="8.86"
        height="62.87"
        transform="translate(-2.91 4.47) rotate(-1.04)"
      />
      <path
        class="gc-logo-1"
        d="M278.07,194.88l.14-32.28c.02-5.17-1.71-9.9-5.14-14.04-2.97-3.59-6.63-5.94-10.89-7.01l-.23,53.26-10.55-.04.27-64.56,5.32.02c8.71.04,16.29,3.28,22.53,9.63,6.23,6.35,9.37,14.01,9.33,22.79l-.14,32.28-10.65-.05Z"
      />
      <path
        class="gc-logo-2"
        d="M257,131.07l-4.48-.02-.27,62.87,8.86.04.23-53.47c4.88.97,9.04,3.5,12.38,7.53,3.56,4.3,5.36,9.21,5.33,14.58l-.13,31.44,8.96.04.13-31.44c.04-8.54-3.02-16.01-9.09-22.19-6.07-6.19-13.45-9.34-21.93-9.38Z"
      />
      <path
        class="gc-logo-1"
        d="M321.49,196.27c-8.77-.37-16.28-3.89-22.33-10.47-6.05-6.58-8.94-14.36-8.57-23.13.37-8.77,3.89-16.28,10.47-22.34,5.74-5.28,12.41-8.16,19.83-8.55,1.08-.06,2.19-.06,3.3-.02l1.69.07-.44,10.55-1.69-.07c-.76-.03-1.51-.03-2.23.01-4.96.26-9.44,2.21-13.32,5.78-4.44,4.09-6.82,9.14-7.07,15.01-.22,5.35,1.34,10.16,4.63,14.3,2.88,3.62,6.54,6.11,10.88,7.42l.25-5.97-7.45-.31.44-10.64,18.09.76-1.16,27.83-5.32-.22Z"
      />
      <path
        class="gc-logo-2"
        d="M310.32,177.73l7.45.31-.33,7.88c-4.97-1.26-9.12-3.95-12.34-7.99-3.43-4.3-5.05-9.3-4.82-14.86.26-6.1,2.72-11.35,7.34-15.6,4.03-3.71,8.69-5.73,13.85-6,.75-.04,1.53-.04,2.31-.01l.85.04.37-8.85-.85-.04c-1.08-.05-2.17-.04-3.22.02-7.22.39-13.71,3.19-19.3,8.33-6.41,5.9-9.84,13.21-10.2,21.75-.36,8.53,2.45,16.11,8.35,22.52,5.9,6.41,13.21,9.84,21.75,10.2l4.47.19,1.09-26.14-16.4-.69-.37,8.95Z"
      />
      <path
        class="gc-logo-1"
        d="M364.91,199.68c-10.26-.87-18.88-5.37-25.63-13.37-6.75-8-9.73-17.26-8.86-27.52.87-10.26,5.37-18.88,13.37-25.63,6.53-5.51,13.93-8.52,21.99-8.95,1.8-.1,3.66-.06,5.53.09l1.69.14-.89,10.52-1.69-.14c-1.35-.11-2.7-.14-3.99-.07-5.78.31-11.1,2.49-15.83,6.48-5.78,4.88-9.03,11.09-9.65,18.46-.63,7.37,1.53,14.02,6.41,19.77,4.88,5.75,11.09,8.98,18.47,9.61l1.69.14-.9,10.61-1.69-.14Z"
      />
      <path
        class="gc-logo-2"
        d="M346.69,180c-5.03-5.93-7.25-12.79-6.6-20.39.64-7.61,3.99-14.01,9.95-19.04,4.87-4.11,10.37-6.36,16.33-6.67,1.33-.07,2.72-.05,4.11.07l.84.07.75-8.83-.84-.07c-1.83-.16-3.65-.19-5.41-.09-7.87.42-15.1,3.37-21.49,8.76-7.82,6.6-12.22,15.03-13.07,25.06-.85,10.03,2.06,19.08,8.66,26.9,6.6,7.82,15.03,12.22,25.06,13.07l.84.07.76-8.92-.84-.07c-7.61-.65-14.02-3.98-19.04-9.91Z"
      />
      <polygon
        class="gc-logo-1"
        points="367.05 200.02 375.04 135.95 385.51 137.26 378.84 190.75 391.65 192.35 390.33 202.92 367.05 200.02"
      />
      <polygon
        class="gc-logo-2"
        points="384.57 137.99 375.77 136.89 368 199.28 389.6 201.97 390.7 193.09 377.9 191.49 384.57 137.99"
      />
      <path
        class="gc-logo-1"
        d="M410.3,205.71c-1.15.06-2.35,0-3.55-.21-4.34-.71-7.86-2.91-10.46-6.53-2.6-3.62-3.56-7.66-2.84-12l7.84-47.8,10.51,1.72-7.84,47.8c-.25,1.52.05,2.82.96,4.08.9,1.26,2.03,1.96,3.56,2.21.43.07.85.1,1.25.07,1.01-.05,1.93-.39,2.83-1.03,1.26-.91,1.96-2.04,2.21-3.56l7.84-47.8,10.51,1.72-7.84,47.8c-.7,4.27-2.89,7.77-6.51,10.4-2.61,1.9-5.46,2.94-8.46,3.1Z"
      />
      <path
        class="gc-logo-2"
        d="M423.3,143.66l-7.71,46.96c-.29,1.74-1.12,3.08-2.55,4.11-1.03.74-2.1,1.13-3.27,1.19-.46.02-.95,0-1.44-.08-1.74-.29-3.08-1.12-4.11-2.55-1.03-1.43-1.39-2.97-1.11-4.71l7.71-46.96-8.84-1.45-7.71,46.96c-.67,4.11.23,7.93,2.7,11.36,2.46,3.43,5.8,5.51,9.91,6.19,1.14.19,2.27.25,3.37.2h0c2.84-.15,5.53-1.14,8.01-2.94,3.43-2.5,5.51-5.81,6.18-9.86l7.71-46.96-8.84-1.45Z"
      />
      <path
        class="gc-logo-1"
        d="M439.95,211.18c-2.04.11-4.14-.07-6.26-.53l-5.3-1.15,7.61-34.98c-.08.01-1.84.38-1.84.38l-2.36-10.29,1.68-.36c1.33-.3,2.78-.49,4.31-.57.19-.01.38-.02.58-.03l3.79-17.44,5.21,1.13c3.61.79,6.48,2.81,8.53,5.98,2.05,3.18,2.68,6.63,1.9,10.25-.51,2.36-1.56,4.45-3.13,6.21,2.79,2.54,4.88,5.68,6.23,9.34,1.58,4.29,1.89,8.74.92,13.22-1.36,6.27-4.84,11.28-10.34,14.9-3.64,2.4-7.51,3.72-11.52,3.93ZM441.3,200.29c2.09-.46,4.02-1.43,5.74-2.87,2.32-1.94,3.82-4.4,4.45-7.31.63-2.91.29-5.75-1.02-8.44-.97-2.01-2.34-3.66-4.06-4.92l-5.12,23.54Z"
      />
      <path
        class="gc-logo-2"
        d="M460.1,179.42c-1.41-3.81-3.65-7.03-6.65-9.57,1.79-1.76,2.98-3.93,3.52-6.44.73-3.39.14-6.62-1.78-9.61-1.92-2.98-4.61-4.87-8-5.61l-4.38-.95-3.75,17.26c-.41,0-.82.02-1.22.04-1.48.08-2.88.26-4.18.55l-.84.18,1.99,8.65.81-.17c.38-.08.86-.16,1.48-.23l-7.7,35.35,4.47.97c2.04.44,4.07.61,6.03.51,3.85-.21,7.59-1.48,11.1-3.79,5.3-3.49,8.66-8.33,9.97-14.37.94-4.32.64-8.6-.88-12.74ZM447.59,198.06c-2.18,1.83-4.66,2.93-7.38,3.27l5.65-25.98c2.34,1.4,4.15,3.4,5.38,5.93,1.4,2.87,1.76,5.9,1.09,8.99-.67,3.1-2.27,5.72-4.74,7.78ZM449.15,161.61c-.27,1.25-.87,2.2-1.79,2.84l1.3-5.97c.57.97.73,2.02.49,3.13Z"
      />
    </g>
    <g>
      <path
        class="gc-logo-2"
        d="M331.04,77.24c1.65.34.59-1.19,1.5-2.26.61-.71,3.96-2.61,5.02-3.28l-1-1.49,7.79-5.03.48,1.01,6.29-1.79c.36.18,4.57,5.77,4.76,6.33.78,2.31.27,3.41,2.56,5.96,1.17,1.3,2.04,1.22,2.75,1.91,1.49,1.44,11.13,15.54,12.25,17.75,1.99,3.94,1.04,6.63-2.52,8.98l-.96-.98c-4.99,2.49-9.24,6.4-14.18,8.94-6.23,3.21-7.6,1.81-13.94,1.59-2.25-.08-9.27.52-10.61-.44-1.15-.83-2.84-8.93-3.19-10.87-.17-.96.1-1.98-.06-2.95-.24-1.48-1.84-2.54-.47-4.79l.77,1.03c1.65-.83,3.26-.69,4.57.65.41.42.23,1.99,1.68,1.85l-1,2,1.5-1c-.75,3.59,1.71,6.06,1.52,9.54.85.11.48-1.22,1.3-1.48.96-.31,5.55,2.24,7.94.54l.22-3.76-1.43-.31.87-2.27c-1.06-1.74-3.08-2.59-4.89-1.5.99,1.6,1.97.78,3.51.76.39,1.58-2.6,1.16-1.2,3.05l1.66.51-.7,1.45c-1.74-2.07-3.28-4.8-5.78-6.03.5-1.4,2.28-1.23,3.27-.5l.24-.99c-1.19-.12-2.39-.37-3.52-.76-1.76-.6-1.93-2.58-3.26.24-1.86-2.52-3.53-4.51-6.97-4.55l-.81,1.04-1.01-8.03,2,1c.73-2.53-2.51-1.52-2.95-2.82l-.56-7.22c1.83-.22.68,3.12,3.02,1.75.39-3.81-2.61-2.68-3.3-3.74-.5-.78-.03-1.91-.22-2.68-.13-.54-1.2-.48-1.44-1.17-.46-1.3.22-3.45-.08-4.87-.09-.4-.97-.32-1.28-1.3-.87-2.79-2.46-19.03-3.28-19.6l-3.97.46,1-2c-1.75-.23-2.06.46-1.74,2.03l-23.37,3.49,1-4.01h-4.01c-.63-1.52,2.02-1.13,2.01-1.76-.17-.61-2.63.28-2.01-1,.45-.93,7.34-1.47,8.78-1.77l-.75,2.01c1.9.32,2.08-.82,2.03-2.49l11.03-1.02-.98,1.29,1.22,1.21c1.33-.87.42-1.84.26-3.01,5.97-.06,15.51-5.19,17.52,3.32l5.08,33.85.04-.02ZM291.37,45.6c3.81.23,2.42-2.96.49-1.77l-.49,1.77ZM296.89,46.61h-2v1h2v-1ZM322.5,49.62c-.92-.17-1.66.55-1.5,1.5h1l.51-1.5h-.01ZM326.52,68.7c1,.16,1.97-.07,2-1.25l-.75-.75-1.25,1.25v.74h0ZM332.04,78.25l-1.34.73.34,5.79c3.89.26.03-4.09,1-6.52ZM333.55,85.78l-.97.71,1.97,9.34-1-10.04h0ZM367.05,99.7c1.32-1.61.21-4.84-1.59-4.87-.92-.01-3.92,1.95-5.76,2.28-2.51.45-5.75-.42-7.4,1.96-.22,1.93,3.93,4.48,3.35,2.54l-1.5-2.26c2.32,0,4.59-.5,6.87-.81,1.76-.24,2.35.66,3.93-1.71,1.15-.48.83,1.62.64,2.15-.4,1.14-2.04,1.48-1.9,2.86.3.29,3.15-1.89,3.36-2.15h0ZM333.55,103.36c.5-.47-2.61-3.01-2.99-3.29-.69-.5-1-.95-2.03-.73-1.32,1.34,4.4,3.53,5.01,4.02h0ZM359.59,105.3c.23-.17,1.81-4.68,2.08-5.46-.14-.18-3.03,2.4-3.56,2.74-.78.5-2.85-.08-2.34,2.48.54,2.7,2.08.42,2.27.33.36-.18,1.22.16,1.55-.08h0ZM335.06,106.36c-.9-1.38-2.86-2.72-4.52-3,.86,1.55,2.76,2.74,4.52,3ZM353.79,106.71c-1.35-1.06-2.14-2.9-4.63-1.81-.76,2.82,3.1,8.25,4.02,3.55l2.47-.07c.35-1.44-.98-.97-1.86-1.66h0Z"
      />
      <path
        class="gc-logo-2"
        d="M263.24,97.83c-.87.89-2.33.44-3.52.5.73-.93,2.37-.43,3.52-.5Z"
      />
      <path
        class="gc-logo-2"
        d="M274.79,35.05c-.89.26-1.73.45-2.01,1.51-2.46,1.15-7.19,2.58-9.86,2.95-1.22.17-.47-.38-.18-.94-.82.21-1.63.57-2.51.5.37-.77,3.66-2.77,2.51-.5,2.3-.59,4.89-1.07,6.28-3.01l.97,1c5.39-1.63,8.19-7.59.78-7.79l2.2,1.22.31,1.55c-1.29-.47-1.89-.17-3.01.5l.05-4.48,1.45-.54-6.02-1.01c-.34,1.61.49,1.48,1.51,2.26l-.99.25c-.54,1.3.88.81,1.01,1.32.34,1.45-.17,2.59-1.01,3.69.56.4,3.01-.86,2.51,1.01-2.41-.56-5.03.22-7.28.01-1.45-.13-2.73-1.03-4.04-1.06-.93-.02-.66,1.27-2.1,1.46-1.29.17-2.85-.51-4.31.13l-1.34-1.55v2.01c-1.71-1.64-3-.76-5.02-.5-1.2-1.24,3.28-3.94,4.51-2.51l-1-3.25,3.26-1.27-.25-1c1.41-.25.76.24,1,.76.49,1.06,1.04,2.57,1.02,3.76l6.03-.25c1.42-.96-1.51-3.03-2.24-3.32-1.1-.45-2.17.24-3.29.05-.21-.85.73-.32.91-.55.13-.18-.53-.92-.18-1.45.2-.3,1-.34,1.17-.61.35-.56-.05-1.73.11-1.9.26-.28,2.12.56,2.01-.5h-15.32c-.08,0-1.47.49-1.25,1l3.51-.5c0,1.23-.04,2.69.42,3.84.38.97,1.35.41,1.09,1.43l-4.01,1.76,4.52-.24-2.54,2.5-1.96.28.45,2.77c2.43-.02,4.93.65,7.31.76,1.72.08,5.31.08,7.03,0,2.24-.09,4.78-1.34,6.67-1.46.81-.05,1.39,0,1.62.91-9.97,1.28-23.76,4.64-31.56-3.33-.04-.22.88-2.76,1.08-3.04.43-.61,1.63-.39,1.87-1.94.17-1.07-.51-2.17,0-3.23-3.45-1.09-10.79,4.26-9.97,7.68.58,2.4,6.77,4.47,8.97,5.12,1.3.38,6.85,1.82,7.8,1.8,1.3-.03,2.24-1.45,3.74-1.04.5,2.87-3.58,2.03-5.52,2.01-4.43-2.86-14.43-1.58-16.54-8.79,2.23-7.03,10.93-8.49,17.35-9.23,8.88-1.03,22.87-.57,30.48,4.56,3.43,2.31,4.81,4.78,1.86,8.44h-.06ZM237.63,30.54l-2.51.5v.99c1.15.2,2.09-.45,2.51-1.5h0ZM263.24,31.53l-.76-1-1.25.75,2.01.24h0ZM256.21,33.54c0-1.84-1.49-1.84-1.5,0h1.5Z"
      />
      <path
        class="gc-logo-2"
        d="M262.74,102.85c-.67.21-3.04,1-3.77,1h-9.29v4.52h7.03v.5h-10.55l2.79-.99-.28-4.03-8.54-.5,2.94-1.07.04-3.42-12.53-2.03.62,3.9,8.41,1.63-1.01.82v4.2l3.22.06,3.82.94-4.05.22-.96,2.29-1.51-3.01c.1.46,1.36,5.12-.25,4.51-1.28-1.21.03-3.84-1.76-4.51l-1.01,3.01v-3.52h-1.51l-.49,3.2-2.03.32c.13-.98,1.19-.28,1.52-1.75.1-.47.11-1.48,0-1.94-.15-.59-1.23,0-1.01-.82l5.02.5-.07-3.95-9.47-2.07.05,3.96,2.96,1.05-5.02-1.51-.25,1.51c-.91-1.25-1.52-2.43-3.26-2.52l1.47-.52-.05-3.91-2.93-1.08-.5,2.51c.34-2.41-.24-3.98-2.76-4.52-.93.19-.92,2.99-.8,3.8.13.92.91.64,1.02,1.08.31,1.21-.37,3.69,1.51,3.93,2.01.25.36-2.84.77-3.78,2.1,1.1-.05,3.5.99,5.04l4.79,1.49-.67.92-4.36-1.93v7.03c-2.28-1.23-.6-2.83-.53-4.31.12-2.45-1.03-4.26-3.48-4.73-.76,2.5,2.25.99,2,3.01l-2-.5c-.21,2.26,1.44,5.75-1.51,6.53,1.04-2.55.06-5.03.1-7.28.07-4.88,1.05-10.6-.12-15.46-.05-.19-2.24-2.52-2.37-3.19-.04-.18.18-2.82.88-2.7l1.51,5.02.51-19.08-2.01-.5c2.56-.27,1.2-3.64,1.51-5.53,1.23.2.13,3.01,2,2.51,1.06-3.16-1.74-4.1-2.03-6.25l.13-32.06c2.83-4.14,6.06-3.6,10.44-2.36-2.54,4.13-5.38,2-8.83,2.03-2.7.02-.49,4.99-.45,5.75.09,1.84-.59,4.29-.25,6.28,2.1-1.08-.05-3.69,1.85-4.93,3.37-2.19,6.54-1.47,9.7.42l-5.95,2.07.24,7.52c.87.19,4.46,2.34,4.72.69.09-.57-.82-1.11-.83-1.49,0-.41,1.53-1.95.75-3.2-.19-.3-3.99-1.02-2.93-2.08l3.77,2-.23,6.01,2.73.53c.8-2.93-.79-5.44,1.8-7.76,2.7-2.4,3.61-.56,6.3-.34,1.08.09,2.13.04,3.2.05.27.17,1.02.6,1,.74-1.89,1.62-2.67,6.27-1.93,8.48.21.63,3.09,1.32,3.7,1.32h7.28l.03-6,9.52-.53-.5,5.52,8.01-1.02.03-5.5c1.84.46.61,4.63,1,5.02l8.79-3.01.22-5.2c.64-.62,1.27-.64,2.03-1.34.33-.01.67,0,1,0l-.1,5.18c-2.51,2.79-5.47,1.73-4.42,6.87,4.23-1.17,7.32-3.3,7.53-8.03l-1.5.5v-6.53c.31.29,1.7,1.34,2,1v-4.01c-2.63,1.05-4.89.1-7.53,0l.81-3.04,4.98.02,1.74,1.52v-2.51h-7.78c-.47,0-1.61-1.78-1.25-2.51,3.98.53,8.64-2.38,9.51,3.29.87,5.71.15,16.36.01,22.59-.02.83.45,1.71.37,2.43-.11,1.06-1.74,2.79-1.69,3.58.03.53,1.22,1.3,1.32,2.54.28,3.4-.54,7.81-.48,11.02.1,6.4,1.4,13.7.53,20.12-.21,1.56-1.56,2.49-2.03,4l-.76-.76c-2.68,1.85-3.49,3.11-2.52,6.52,1.75-.8,1.99-1.61,1.77-3.51l1.44.48,2.07-2.99-.49,16.24-1.51.33,1.01-3.76-1.52-.26.5-3.01-.99,1.28-1.52-.28c2.74-1.96,2.81-3.17,2.51-6.52l-4.64,4.14-.89,6.4-.51-1.5-3.5.5c.34-1.01,1.72-.64,2.46-1.8.62-.98.6-2.11.55-3.21-1.04,0-1.98.42-3.01.5,1.7-.86,3.58-2.52,5.52-2.51v-4.02h-1.5v3.52l-1.01-3.01-4.79,1.99-.23,4.04c.66-.02,1.35.05,2.01,0-1.16.58-2.5,1.2-3.95,1.58l-.57,4.45v-4.02l-8.54.5,8.03-1.01v-4.51c-2.21-.21-4.33.4-6.52.5.24-.08.97-.97,2.01-.51l-.5-2.51c1.79-.49.68,1.69,1,2.01,4.09-.11,8.39-1.45,12.07-3.26,3.36-1.65,6.15-3.45,7.5-7.07.33-.88-.69-.98-.97-.72-.09.08-.07.9-.52,1.22-4.39,3.08-14.75,5.48-20.08,5.81,3.54-1.21,7.01.41,5.99-4.99l-1.46-.53,3.79-.98.22-3.55-3.01-.5,4.01-.5v4.01c2.96-.1,4-.96,3.52-4.01l1.5,2.51v-4.02c-.42-.47-3.56,1.96-4.01.51l6.02-2.02c-.46,1.23-1.58,2.11-1,4.02,2.93.22,3.85-1.26,4.49-3.81l1.53.3v-3.52l-5.02,3.01c1.46-3.9-1.22-3.03-4.02-2.01.71-.27,1.27-2.68,1-3.51-2.38.26-3.45.95-3.01,3.51.57-.11,1.58.16,2.01,0-.85.31-1.96,1.34-3.51,1.77-1.95.54-5.28,1.16-7.28,1.26-.55.03-1.9.33-1.77-.52l6.46-1.08.07-2.94-12.08,1.72-.43,2.76c1.23.54,2.45.02,3.7.02.59,0,1.9-.34,1.78.52l-5.03.75-.49,2.77,11.05-1c-.23,1.04-2.09.31-2.9,1.11-.38.38-.52,1.34-.62,1.89l-.5-2.01c-1.76.63-5.21.32-6.67,1-.6.28-.34,1.08-.62,1.53-.3.49-.92.07-.99.12-.51.4.05,1.03-.75.87l.37-2,.62-.5c-2.58-.12-5.2.15-7.78-.01-1.52-.1-4.94-.5-5.78-1,2.49-.04,5,.08,7.49-.05.49-1.3.52-2.72-.96-3.22,1.68-.39.9-1.8,1.01-3.27l-10.04-.5,2,1.5h-5.02l2.01-1.5c-1.74-.3-3.54-.56-5.24-1.04-1.5-.42-4.42-3.05-4.8.02,1.77.41,3.58.81,5.02,1.51-3.09-.31-5.98-1.07-9.04-1.51.1,1.15-.41,2.91.48,3.78.82.81,9.56,3.42,10.34,2.27.69-2.36.23-3.56-1.79-4.55.82.08,1.67-.12,2.49.03l.53,5.5h2.01l.24-2.01.26,2.5h2.72l.29.51c-1.17.02-2.35-.02-3.52,0l1.55,1.33-.55,2.18-1.75-2.51-1.25,3.01.5-4.01c-3.65-.65-7.23-1.31-10.54-3.02.05,1.5-.09,3.03,0,4.52-.89-.01-1.66-.32-2.51-.51l1.53-.76c.74-3.5-2.76-4.79-5.55-5.25-.3,2.38.1,3.49,2.26,4.51.77-.78-.64-2.93,1.25-2.51l-.48,2.8-2.53-.29c-1.83,4.48,3.3,5.32,6.52,6.53.49-1.52-.44-3.36-.5-4.52.33,0,.65.07.97-.02l.54-2.99c.77-.17.32.65.83,1.03.42.31,1.4.26,1.6.55.31.47-.08,2.16.58,2.93l-3.01-.5c-1.62,3.02.88,3.87,1,4.52-.86-.12-1.66-.33-2.5-.51-.72,2.26-1.24,4.62,1.75,5.03,1.02.14.66-.07.75-.74.11-.82.14-2.99,0-3.78,1.02.14,1.98.46,3.01.5v-2.51l6.06.72.69,2.83c.95,1.37,17.57,1.11,20.37.97l-.5,4.52c1.17-.04,2.35.05,3.52,0v.03ZM281.82,31.54c-.52-.51-2.01,1-1.5,1.5s2.01-1,1.5-1.5ZM239.63,43.09l-7.53-1,3.79,1.47,3.74-.47ZM219.54,48.61c.8-3.27.46-3.99-2.5-5.53.03,2.46-.86,5.3,2.5,5.53ZM233.61,44.1l-1.51.29v4.23h1.51c.25-.96-.87-1.6-.93-2.34-.07-.85,1.2-1.19.93-2.18ZM237.14,45.6c-.15-1.27-.72-1.73-2.02-1.5l-.5,5.02c1.54-.38,3.42,1.27,4.51-.25l-1.53-1.03,1.54-3.23-2,1h0ZM222.06,50.62c2.95.7,2.78-5.05,0-3.76v3.76ZM230.59,49.12l-4.78-1.39c-3.53,3.68,1.05,4.67,4.28,4.9l-.34-1.52-1.66-.74,2.5-1.25ZM272.28,52.63c2.42-.11,4.53-.94,4.03-3.75-.46-2.56-5.55.1-7.41.62s-3.93-.64-4.15,2.63l1.5.75-2.77,1.26c-1.15-1.94,1.44-1.93.76-4.01l-3.04.81c.11,1.01-.42,3.85.82,4.15l9.19-2.01.06-2.44-2,1.5.32-2.03,4.19-.48-1.5,3.01h0ZM283.33,52.13c1.95-.79,1.54-2.76,1.5-4.52-1.7.82-1.57,2.94-1.5,4.52ZM220.05,49.62l-3.52-1c1.35,1.44,1.82,2.45,1.51,4.51.8,1.12,1.97-3.14,2.01-3.51h0ZM254.71,51.13c-7.81.96-15.36-.62-23.11-1.51l.22,3.55c.8.44,4.76,1.76,5.25.92l.05-2.96c1.23-.23.82.16,1.21.96l15.36.05-3.75,2.52c-.88-2.26-2.6-2.44-4.81-1.8l-.4,2.73c.6.96,7.84.54,9.16.08.18-.06.84-2.44,2.58-2.53l-.25,2h4.02v-4.51l-5.02.51,4.01.99h-5.02l.51-1h-.01ZM282.32,49.62l-1.93.58-.08,2.43-1-1.51c-2.62.39-2.74,2.86-2.51,5.02l5.94-2.6-.42-3.93h0ZM220.56,50.62c-1.3,2.96.12,3.43,2.25,5.01,2.17-2.92,1.06-4.38-2.25-5.01ZM243.12,52.66c-1.68.17-3.92-.09-4.48,1.73l4.23,1.22.68-1.1s-.43-1.85-.43-1.85ZM284.33,57.15l.5-4.52c-1.52.69-2.34,3.69-.5,4.52ZM217.2,53.95c-.33-.22.12-1.02-.66-.81-.18,2.05-.12,5.17,2.5,5.52l-.06-3.71c-.28-.77-1.2-.62-1.79-1h0ZM230.09,58.66c2.31.42,4.71.67,7.03,1.01l.47-3.71c-.27-.92-12.05-3.3-12.52-2.82v3.01c1.34-.23-.54-3.03,1.51-2.51l.09,3.43c1.23.44,2.3.94,3.43,1.59-2.25-.41-4.31-1.03-6.53-1.5-.13.1,1.23,2.2,1.29,2.98s-.75,1.14-.75,1.28c0,.32,3.31,1.9,3.98,2.26-2.51-.46-4.83-1.22-7.03-2.51-.32,2.7,0,4.58,3,5.03h-2.5c-1.32,4.95,4.87,5.88,8.53,6.52l-.06-3.45-4.95-1.58c-.11-.94,1.02-.39,1.53-.27,1.28.29,2.47,1.13,3.99.78l-.06-3.45c-1.02-.11-1.64-.63-2.45-1.07,1.13.21,2.37.28,3.51.5l.04-4.74c-.62-.24-.99-.47-1.54-.79h0ZM275.77,53.15l-4.97,1.01-.02,4c3.39-.8,7.01-.49,4.99-5h0ZM269.27,58.66c-.42-1.28,1.26-3.9-.74-4.04-1.43-.1-6.42,1.33-8.56,1.52-2.49.22-6.07.48-8.51.53-4.37.09-8.55-.15-12.82-1.02v4.52c5.78-.3,11.33,1.07,17.08,0v-2.5l-2.48.05-1.03,1.45v-2l3.71-.03,1.04,3.45c3.02-1.03,6.59.46,9.3-1.67l-2.5-.25.54-1.97c2.05.75,5.24-2.75,3.48,1.97h1.5,0ZM277.42,61.34c.29-.14.93.14,1.55-.21,1.88-1.06,4.18-1.94,3.88-4.74-.26-2.42-6.21-.06-5.05,2.27-3.36-2.41-8.07,1.62-12,1.56l-.05,4.97c.95.93,9.35-2.18,10.93-2.87.6-.26.62-.93.73-.98h0ZM223.06,56.15c-4.4-1.85-4.01,3.79-.25,4.51.67-.99-.92-1.43-.79-2.73.08-.75,1.19-1.59,1.03-1.78h0ZM274.79,67.19c.43.46,11.42-3.64,8.79-7.04l-4.66,2.13-.62,2.9-1.29-1.96-2.16.51-.06,3.45h0ZM219.3,60.68c-1.08.75-1.14,2.18,0,2.99,1.08-.75,1.14-2.18,0-2.99ZM237.12,60.66h-1.5l.5,4.02c1.92.4.68-2.92,1-4.02ZM241.11,60.7l-2.49-.04v5.03h2.52l.49-2.51c-.14,1.64-.16,3.39,2.01,3.01v-5.02h-1.69l-.82,1.01-.03-1.47h.01ZM264.74,60.67c-1.25.9-11.63-.5-9.54,2.5.51.73,3.82-.19,4.01,0v3.01l4.69-.59.77-.74.07-4.2v.02ZM254.12,64.12c.25-.83.23-2.66-.72-2.89h-7.96l-.72.77-.11,3.88c.24.9,7.13,1.05,8.25.75.29-.08,1.04-.61.57-.95l-1.26-.74,1.93-.82h.02ZM234.11,63.18c-.29-.29-1.49.42-1.49.75,0,1.39,2.25,0,1.49-.75ZM280.82,69.71c.95-1.93,4.35-2.12,2.77-5.52l-6.2,3.09-.09,2.93-.5-2.51-1.34.73.34,2.28-1.05-1.95-2,.17-.46,3.3c.38.38,7.4-2.07,8.54-2.51-.86,1.75-.43,3.64-.5,5.52,2.39-1.47,3.25-2.03,2.51-5.02l.75,1.5c2.89-6.5.57-3.3-2.76-2.01h-.01ZM220.05,68.2l-.75-3.51-.75,3.51h1.5ZM234.47,65.83c-.09-.1-2.31-1.31-2.63-.65-1.77,4.54,2.65,4.46,6.09,4.97,2.53.37,4.99-1.14,3.23,2.85l-1.53.22v-2.51h-5.03v3.51l10.05,1.01v-4.02c7.11.88,1.8-6.12,1.5-3.71v1.7h-5.02v-1.5c.86.42.5,1.55,2.19,1.02.37-.12.57-1.1.82-1.52l-8.28-1.03-.51,1.53c-.75-.36-.47-1.43-.9-1.87h.02ZM257.71,66.19v-.74c-.53-.79-1.08-.88-2-.76v1.5h2ZM274.29,64.69h-1v3.01h1v-3.01ZM272.28,65.19l-1.5.75,1.05.54-.55,1.71,1.51-.25-.51-2.76h0ZM268.76,66.19l-8.54,1v3.01l7.97-1.07.57-2.94ZM258.65,67.27l-9.14.5c-4.12,4.78,6.37,3.65,8.89,2.86,1.44-.45.71-2.44.26-3.36h-.01ZM218.54,68.71h-1.5v2.51h1l.51-2.51h0ZM271.27,69.21l-15.78,2.45-.29,3.57c5.36.34,10.62-.66,15.78-1.95,0,0,.29-4.07.29-4.07ZM233.1,70.21h-2l.07,2.95,1.93.57v-3.52ZM222.56,72.72l.28-1.51-1.78-.49c-1,3.25,2.77,5.49,5.46,4.44l.06-2.44-1.25,2.51-.76-3.52-2,1h-.01ZM279.3,71.22c-5.86,1.51-11.42,4.1-17.56,4.51-.14,5.56.52,4.62,5.53,4.02.05-.76-.45-1.66-.18-2.39.3-.81,1.31-.3,1.18-1.12l-6.02,1.5c1.24-2.39,4.28-2.33,6.55-1.77l-.51,3.78c2.19-.82,11.18-3,11.57-5.29.19-1.12-.3-2.19-.54-3.24h-.02ZM254.2,71.72h-8.04l.03,3.49c2.62.35,5.38,1.12,7.94-.05l.07-3.44ZM218.04,72.72h-1v2.5h.49s.51-2.5.51-2.5ZM220.55,77.24c.19-2.08.22-3.38-2-4.02l.07,3.44,1.93.58ZM222.56,78.75c1.07.1,5.13,1.93,5.52,1.51.21-.85-.65-2.73.75-2.51s3.45,1.4,5.26,1.78c1.63.34,12.62,2.22,13.08,1.74l.51-4.02.5,4.01,11.96-.6c.51-.35.21-3.49.08-4.18-.14-.8.38-.73-.74-.77-2.65-.08-5.92,1.06-8.79.52l-.25,4.03-.25-4.03-10.21-.52-1.33,3.54v-4.01l-10.8-2.02-.26,4.02-6.02-2.01c-.86,2.19.81,2.95,1,3.51-.49-.05-1.01.03-1.5,0l-.02,3.68,2.53.84c-.12-1.55-.5-3.05-1-4.52h-.02ZM284.19,76.11c.28-.69.36-2.26-.11-2.89-1.54,2.1-3.7,3.69-6.22,4.08l-.06,2.94c.57.66,6.08-3.39,6.39-4.14h0ZM219.55,81.76c2.38-1.96.81-4.55-2.01-4.52-.17,1.49-.03,2.92,1.5,3.51l.5-1.5v2.51h0ZM284.22,80.15c.23-.41.33-2.04-.14-2.4-1.34,1.62-3.79,1.89-3.26,4.52.22.26,3.3-1.94,3.4-2.11h0ZM272.78,79.75h-2c.04,1.22-.42,2.68.75,3.51l1.28-.83-.03-2.68ZM219.54,86.28c.23-2.15.12-4.63-2.51-5.02-.23,2.15-.12,4.63,2.51,5.02ZM252.69,82.26h-1.5v3.01c1.8.13,1.58-1.82,1.5-3.01ZM256.21,82.26h-2.52l.47,2.8,2.04.22v-3.02h0ZM253.1,85.91c-.54-.32-1.3-.08-1.91-.13l1.46,1.03.05,1.99,3.99-.03.03-2.99c-1.47.11-2.87-.67-3.27,1.01-.46.07-.1-.73-.35-.88h0ZM219.44,87.39c-.1-.17-1.51-.82-1.89-1.11-.25,2.56-.84,3.52,2,4.52-.15-.94.33-2.68-.11-3.41ZM283.84,88.29c1-.27,1.13-1.07.99-2.01-1,.27-1.13,1.07-.99,2.01ZM252.19,87.29h-1c-1.02,2.48,1.2,2.59,1,0ZM282.82,91.3c.17-1.4.87-2.8-.24-4.02-1.62.34-.93,5.29.24,4.02ZM280.81,88.79c-2.44.14-2.07,2.71-2,4.52,2.43-.43,2.97-2.42,2-4.52ZM219.04,94.81c-.76-1.49-.07-3.51-1.76-4.5-1.82,1.54-.33,4.32,1.76,4.5ZM277.8,90.8l-1.77.49-.24,2.52h2v-3.01h0ZM274.79,94.82v-3.52l-4.54,1.85.02,2.67c1.35.24,1.74-.26,2.06-1.45l2.45.45h.01ZM223.06,97.33c.18-2.32.33-4.34-2.51-4.52-.18,2.32-.33,4.34,2.51,4.52ZM225.57,98.84c-.07-1.48.65-4.05-1.5-4.02l-.02,3.17,1.52.84h0ZM245.66,98.84h-1.5l-.5,4.01c2.79.38,5.48.55,8.31.53.98,0,5.63-.19,5.77-.86l.48-3.68h-2.51c-.16.15.54,3.91-1.25,3.51l-.76-1,1.54-.28-.04-2.23c-1.41.04-2.31.52-2.01,2.01-2.02-3.29-3.94-1.24-7.02-2.01.53,4.5-1.91,4.03-.51,0h0ZM226.57,103.86l-.49-3.51v2.51l-1.01.49,1.5.51ZM271.78,105.86l-.25-4.51-1.3,1.23.04,3.29h1.51Z"
      />
      <path
        class="gc-logo-2"
        d="M274.79,35.05c2.38-.69,5.56,1.21,8.22.48.58.11.24.96.32,1.03h-.75c-.78.44-1.23,1.51-1.76,2.01-1.09.04-1.96.55-3.13.41-1.37-.16-3.03-1.41-4.57-1.41-.51.07-.42-.7-.33-1.01.36-.17.76-.1,1.28-.47.37-.27.48-.73.73-1.03h-.01Z"
      />
      <path
        class="gc-logo-2"
        d="M161.79,95.32c.06-.13.69-1.12,1-1,.16,1.54,2.15,2.31,3.52,2.5l-1.5-3.01c2.27-.02,4.3.7,5.02-2.01-.37-.3-5.99,2.85-5.02-1.51l2,1v-1.52c1.38.42,2.38.06,3.27,1.51.8.04,1.24-4.37,1.28-5.24.03-.59.35-2.78-.52-2.78l-.76,2-1.24-1.5c-1.25,3.8-5.48,5.05-5.54,9.53-.86.09-.55-1.73-.51-2.27,1-15.57,5.92-32.34,7.19-48.06.7-3.26,3.79-5.33,7.13-4.92l37.43,5.53v9.04l-36.92-6.07c-1.75.18-1.22,5.15-2,6.57l-1.75.5.58-6.7.73-.74,1.2.42v-1.26c-.15-.42-2.17-.83-2.79-.31-.7.59-1.15,5.91-1.23,7.34-.05.82.57,1.65.5,2.5-.09,1.07-2.17,3.05.98,2.75.07-.9.23-2.19,1.54-1.98v5.02c-3.58-1.04-4.22,1.45-3,4.52l2.5-.5c0,.42.03.84.02,1.26-.15,4.87-2.01,11.14-2.52,16.07-.44,4.21-.08,9.24-.51,13.55-.3,2.95-1.81,5.83-.99,8.8l-3.52.5.59-1.93,1.93-.08v-1.5l-3.22.51c-.42-1.25-2.55-1.51-1.55-2.53l3.27.8,2-5.31h-3.51c-.29,1.4.51.98,1.51,1l-1.34,2.46c-1.33.44-2.16-.57-2.94-1.45l-.25,1.51-1.5-.51c-.53,2.65,1,1.98,1.99,2.79.1.08,1.43,2,1.47,2.12.63,1.87.21,10.92-1.45,11.92l-4.81-.23,1.29-11.08,2.5,1.01-1,3c1,.15,1.94-.9,2.03-1.78.17-1.61-.95-1.3-1.4-1.9-.3-.4-.05-1.24-.14-1.35-.17-.18-1.52.94-1.98-.24.9-2.18.85-4.49.98-6.79,0,.03-.53-.09-.5.32l-3.11,18.42c-.14.68-.57.74-1.16.85-2.36.45-11.33-.13-13.68-.89-1.94-.63-16.68-10.27-18.67-11.96-1.27-1.08-2.87-2.76-3.03-4.5-.02-.21.17-3.54.23-3.71.24-.74,7.04-10.91,7.85-11.76.97-1.02,2.01-1.17,2.95-2.08,2.89-2.77,8.73-16.45,12.81-16.3l18.08,12.53c.98,3.22-.77,6.24-1.19,9.37-.46,3.37-.38,6.42-.57,9.72l-.05.02ZM151.24,79.75c-.4-2.66.14-6.26-3.5-4.49-.54.76,1.66,5.33,3.5,4.49ZM159.93,85.67c-.69-1.3,1.7-2.11.4-3.7-.42-.52-6.73-3.07-7.07-2.72.32,3.75,3.04,7.21,2.01,11.04,1.34.24,1.38-1.38,2.31-1.96s2.12-.37,2.99-1.03l.24-1.29-.87-.35h0ZM136.18,87.28c-.41-1.05-1.38-1.68-2.51-1.5.5,1.58.8,1.73,2.51,1.5ZM155.61,102.69c1.96-1.8,1.44-8.02-.84-9.13-.82-.4-11.64-.68-12.06-.25-.75,2.8,1.71,3.34,2.73,5.06.88,1.5.68,3.54,2.31,4.72,1.77,1.28,6.23,1.09,7.87-.4h0Z"
      />
      <path
        class="gc-logo-2"
        d="M257.62,211.95c.29.17.46,1.36.85,1.39.72-.72,1.49-1.38,2.56-1.49,7.18-.77,19.4.22,27.09.48,32.72,1.11,67.18,3.78,99.77,8.71,7.1,1.07,16.64,2.24,23.34,4.3.81.25,1.42-.41,1.17,1.06-14.99-1.63-29.95-4.01-44.95-5.52-77.89-7.84-156.13-7.83-234.03,0l-46.46,5.52c-.12-.72.87-.68,1.4-.85,6.21-2.02,14.94-3.08,21.53-4.08,38.65-5.89,77.9-8.09,116.91-9.65l30.81.13h.01Z"
      />
      <path
        class="gc-logo-2"
        d="M197.45,80.76c2.01,2.67,5.87.79,8.53,2.51.46-2.8-2.1-.65-1.51-2.76.07-.23.93,0,1.05-.98.24-1.92-.24-4.32-.04-6.31-1.87,1.88-1.35,5.61-2.26,8.03l-1.46.46-1.04-1.4,2.49-15.63.54,1.99-.28,3.53c1.38-.41-.02-4.39,2-4.01v6.52l1.01-6.53c2.27.73-.02,4.84.5,5.52,2.45-.51,1.14-1.96,1.57-3.7.14-.59.77-1.09,1.2-.32.88,1.57-.47,4.33-.29,6.29.16,1.82,1.68,3.58,1.03,5.77l-1.5-2c-.37,3.12,2.54,5.56,5.52,4.02.39,1.38-.76.9-1.2,1.48-.2.27.15.88-.3,1.25-2.48,2-2.6.36-4.41-.09-2.13-.53-4.46-.86-6.65-1.13-.2,1.32,1.12,1.53,2.01,1.51l-.51,2,1.51.25c-.44,1.04-2.66,1.04-2.92,1.35-.19.22-1.64,4.69-1.86,5.42-.58,1.98-.71,4.27-1.25,6.29.02,1.5.64.54.88-.14.43-1.22,1.06-2.56,1.39-3.63.48-1.55,1.11-6.45,1.88-7.41.33-.41,3.82-1.75,4.6-2.62,1.36,1.13,1.07,2.54,3.31,2-.25.56-1.03,1.52-1.53,1.78-.76.4-1.71-1.02-1.48.47l7.02,8.55-2.51-.75c2.38,2.78,4.25,7.37,0,9.29l1,1.25-1.77-.02c-.58,1,.33,3.07-1.23,3.54.58-2.16-1.2-2.11-2.01-3.77,1.41-.66,2.12-1.62,2-3.26l-1.5.5c2.56-2.03.11-6.26-3.01-5.53.7-1.13,2.34.06,2.77-1.95.15-.68-1.17-6.16-2.39-3.93-1.71,3.14-2.02,8.31-5.41,10.41l1-3.01h-2.51c-.9,2.62,1.36,2.79,1.5,3.01.29.45.34,4.03,1.98,4.81l-1.01,1.02.53,2.21-1.51-.29c.39-3.2-.16-5.29-2.76-7.24-1.42-.58-.57,2.62-.24,3l-2.45.83-.07,3.7-.6-4.16c-.41-1.37-2.06-1.7-3.11-.9-.57.43-.2,1.44-.3,1.55-.12.12-2.18-.93-3.01.5.35-3.43.02-7.75-.62-11.18-.21-1.11-.75-2.46-1.88-2.88.17,2.27-2.83,1.84-3.02,2.02-.58.57,2.97,13.21.24,16.05-.62.65-2.94,1.47-3.53.53-.58-1.63-.03-3.99-.5-5.55-.27-.89-.04-1.2-1.23-1l-.48,6.3c-3.25,2.37-.86-8.13-3.34-8.34-3.01-.25-1.8,5.94-.2,7.56-.78.09-1.54-.04-2.05-.7-1.46-1.88.15-10.59.05-13.35l1.76,2.01,1.75-2.01c-.54,2.42-.66,5.9,2.52,6.03l-1,1.25.99.75c1.36-2.72-.76-3.96-1.28-6.5-.29-1.43-.07-2.82-.36-4.16-.68-3.25-2.61-9.02-2.77-11.84-.05-.88-.12-1.54.43-2.32l7.49-3.3c1.24,1.2-4.64,2.3-4.51,3.51l4.52-1.5-3.39,3.25,3.65,11.3c.9,1.3,1.81-.41,2.54-1l-.79-1.5,3.51,1.5c.4-.41-2.44-10.42-4.52-10.05l2.5-2c.96,3.42,2.12,6.77,3.12,10.19.23.79,1.1,1.53,1.18,2.1.1.79-.7,4.38-.27,4.79l5.52,1c.12-2.62-2.86-3.88-3.02-6.03l-1.5.51c.24-4.21-4.03-7.58-4.04-11.79,0-1.76,2.43.38,3.05.98,1.01.98,1.54,2.45,2.75,3.28.93.39,1.32-1.45,1.04-2-2.95-.64-4.76-4.71-7.32-4.02,1.83-3.92-.13-1.61-2.52-1.76.16-1.47,2.8-1.31,3.88-1.91.31-.17.44-1.22.87-1.27,1.06-.13,3.08,1.85,3.79,2.68l-2.51-.75c-.29.24,2.55,2.92,3.51,2.5.06-2.79-2.6-3.3-3.51-5.52.52-.5,4.26,3.04,5.02,3.51.15,1.28.79,1.36,1.76,2.01.41.03.31-.71.25-1,.41.13,1.24.47,1.51.5l.03-.02ZM202.97,77.74l.5-6.02-.99,4.28.49,1.75h0ZM209.09,82.18l-2.1-9.46c-.52,3.42-.37,5.86.99,9.04-.93-.5-1.63-.21-1.5,1h4.01c.16-.95-.98-.24-1.41-.58h.01ZM202.97,78.25h-1v1.5h1v-1.5ZM193.43,83.76l-5.02-4.01c-.79.86,3.9,4.22,5.02,4.01ZM197.96,85.77l-3.01-1c-.28,1.59,2.84,1.36,3.76,2.01l-.25-2.01h-.74l.25,1h0ZM191.42,91.3c.59,1.07.68,3.71,2.76,4.04,2.73,0-.48-4.32-1.25-5.3-.82-1.04-2.55-1.81-3.27-3.26-.94,1.64,1.1,3.31,1.76,4.52-.37-2,1.97-.84,1.5,1h-.99c.24-.62-.5-.95-.51-1h0ZM197.45,87.79l-3.51-1.01c-1.03,1.16,2.07,7.63,4.52,6.53.37,1.51-1.53,1.28-2.51,1.51l2.24,1.5,2.27-8.04h-2.51l.45,1.28c-1.84-.43.29,4.89-1.45,3.24-.26-.25-.6-2.7-.57-3.29.07-1.18,1.46-.24,1.06-1.73h0ZM204.99,94.82c1.37-.55,2.94-4.5,1.24-5.02l-1.51.49c-1.11,1.62-.09,3.56-2.27,4.28l.02,1.25,1.5-1c.17,1.47-1.71,1.53-2.46,2.83-.8,1.39-.06,2.5-.16,2.64-.13.19-1.36-.27-.9,1.07,1.96-.03,2.19-1.94,2.01-3.51,1.21-.69,1.04,2.09,1.76.51.89-1.95.5-3.52.25-5.53l.5,2.01.02-.02ZM198.45,98.33l-3.51-2.51c-.95,2.24.55,1.7.5,3.52,0,0,3.01-1.01,3.01-1.01ZM197.95,99.34c-1.26-.39-1.92,1.65-1.5,2,.09.07.87-.17,1.36.15.34.23-.15,1.06.65.85l-.5-3.01h0ZM192.8,101.98c-.56-.45-2.73-.88-2.89.14-.09.57.83,1.12.84,1.49,0,.28-1.72,1.74-.05,2.23,2.46.73,3.2-2.96,2.1-3.86ZM196.94,106.87c.46-1.08.27-5.46-1.75-5.02-1.51.33-.77,5.69,1.75,5.02ZM180.88,102.86h-1.5v2h.49l1.01-2ZM173.33,103.36h-.99v2.01h1.5l-.51-2.01Z"
      />
      <path
        class="gc-logo-2"
        d="M193.93,79.25c-.04-.32,0-.67,0-1l2.78.02c.59-4.18,1.93-8.31,3.23-12.35.21-.66,0-1.57,1.01-1.74l-.99,10.04,1.51-8.53c.86-.09.55,1.73.51,2.27-.24,3.71-1.77,7.09-2.03,10.78l-.5-1-.99.75.99,2.26c-.65-.05-1.36.08-2.01,0-.46-.61.03-1.96-2.01-1.5-.19.12.44.72.5,1-.91-.29-1.24-.54-2.01-1h.01Z"
      />
      <path
        class="gc-logo-2"
        d="M196.44,63.68c-.55-.02-1.12-.16-1.55.31-1.62,1.81-3.35,8.89-5.11,10.6-.29.28-6.37,3.66-6.92,3.9-.66.28-1.37-.25-1.99-.02-2.28.85-4.43,2.61-7.02,2.27,1.75-10.95,1.49-22.21,4.49-32.94l11.82,2.31,6.28,13.55v.02ZM190.05,60.02c-.15-.58.26-1.12,0-1.71-1.19-2.65-3.4-4.7-3.9-7.68l-.5-.51c-4.66,2.63-12.16,10.54-7.27,15.82-.68.48-1.27-.04-1,1.25l4.01.51c.72-1.24-1.91-.89-1-2,.14-.17,2.65-1.25,3.11-1.56.59-.4.16-1.11.89-.96-.02,2.04.25,3.4,2.52,3.52l-.26,1.01-1.24.24c1.6,2.14,3.94.33,5.02-1.5l-2.51.75c2.12-2.4,3.96-2.8,3-6.68-.09-.36-.83-.38-.86-.49h-.01ZM185.39,71.21l-1.75-6.52-2.75,5.78c1.06,1.31,2.99.6,4.5.74Z"
      />
      <path
        class="gc-logo-2"
        d="M322.34,77.9c1.54,2.32.52,4.15.89,5.89.21.99,1.54,2.12,1.65,2.82.11.74-.5,1.75-.34,2.87.49,3.34,1.95,6.57,1.84,10.06l-9.4,13.12-2.01,1.25c-.13-.14.87-3.23,1.1-3.68s1.49-2.24,1.97-3.02c2.17-3.49,6.61-7.26,6.42-11.55-.24-5.52-3-11.76-4.61-17.03l-1.37-1.39,5.46,19.37-6.48,8.75-1.26-.5-.48-1.51-1.76,2.01,1.47-3.69-5.48-18.9,1.94.47c.38-1.34,1.07-2.21,2.57-1.97l1.01,2.51.3-2,1.71-.27c.14-1.61-1.37.13-2.5-.46-2.12-1.12-1.6-3.78.75-4.33l1.75,1.53.46-2.3-.99-.5.54-1.72,4.85,4.17ZM316.97,97.33c.18-1.3.58-2.25.41-3.63-.13-1.1-2.6-8.24-3.17-9.43-.28-.59-.5-1.38-1.25-1.51l3.76,12.55-1.25-1-1.01,1.24.5,1.26.75-1,1.25,1.5v.02ZM313.46,88.79c-.03-1.31-.29-3.72-1.5-4.51l1.5,4.51ZM317.98,91.8c-.05-1.36-.29-2.8-.65-4.12-.19-.68-.68-2.65-1.35-2.91,0,0,2,7.03,2,7.03ZM322,93.81c.02-1.51-.42-2.98-.87-4.4-.19-.61-.37-2.12-1.13-2.13l2,6.52h0ZM319.99,92.81l-.5-3.01h-.49c-.39.82.67,3.7.99,3.01ZM319.99,96.83c.23-.69-1.14-3.46-1.5-3.01-.23.69,1.14,3.46,1.5,3.01ZM321.49,97.33c.08-.94.14-2.21-.99-2.51l.5,2.51h.49ZM316.84,98.47c-.17-.26-1.63-1.19-1.38.12.1.5,1.61,4.76,2.51,3.76-.32-.99-.66-3.13-1.14-3.88h.01Z"
      />
      <path
        class="gc-logo-2"
        d="M315.97,69.2c-.28-2.66-3.31-4.66-1-7.03h-6.53l6.04-.74c.79-.48-.37-3.77-.79-4.27-.72-.87-5.85-3.28-7.26-3.54l1.5-.74c-.87-1.42-2.49-1.14-3.71-1.81-.62-.34-1.08-.68-.31-1.21l6.53-.74-1,2.5,2.01.51v-3.01l1.96.07,1.05,1.43-.5-2,3.28-.03,2.25,13.32-2.01.76,2.44.57c-.66,4.18,2.15,7.19,1.54,11.21l1.48.3.05,2.48c-2.47-2.54-4.74-5.33-7.03-8.04.04.33.18,1.03-.25,1-1.77-1.78-4.17-3.82-4.27-6.52l3.02,4.27c.27.61,1.2.9,1.49,1.25h.02ZM313.51,51.66c-.4,1.34,1.07,4.35,2.71,3.98,1.24-.28-.52-3.45.03-4.52l-1.21-.42c-.05.95-.66.99-1.53.96ZM317.99,68.2c1.84,0,1.84-1.49,0-1.5v1.5Z"
      />
      <path
        class="gc-logo-2"
        d="M290.36,98.33c-.33.31-.54.4-.56.96l-1.44-.46-.5,1.51-.51-8.03,1.46-.03c.17-.18.12-1.3.07-1.74-.35-3.32-3.01-3.1.96-7.06l-.98-.97,2.19-1.72,3.33,3.48-2-4.02c2.86.36,1.85-2.43,5.02-1l-1.59,1.94-1.42-.44v.99c.49.03.88.15,1.21.55,1.47,1.79,3.24,3.58,5.02,5.55.62.69-.33,1.98,2.31,1.44l-1.01,1.5c1.22,0,2.51,1.09,3.02-.49l-1.53-.26.53-3.25.74,1.5c1.25-.57,2.58-6.37,4.76-6.55v-.72c-1.35-1.03-1.74-2.07-1.49-3.78h1.51c-1.54,2.33,2.5,2.88,2,1.51l-.99-1.51,2.51.51c.4,3.37-1.85,3.35-3.95,4.8l3.4,14.95c-1.83,2.15-4.95,2.16-7.51,1.62l-.47-2.79c.91.34.74,1.24,1.96,1.8.76.35,1.45.25,1.05-.55-.25-.49-1.68-1.1-2.28-1.74-1.22-1.31-1.44-1.96-3.06-3.23-.31-.24.08-1.22-1.17-.78l-.52.73c-.81-1.01-1.32-3.89-2.16-4.63-.28-.25-1.05-.2-1.57-.66-.48-.41-.66-1.43-1.27-1.75-.49-.26-1.27.31-1.53.25,1.29,1.82,2.47,3.41,4.02,5.02-.74.66-5.47-4.62-5.53-5.77.31-.59,1.02.64,1.51.75-.96-1.35-1.48-3.72-3.51-4.52.87,2.2-.41,2.7-.78,3.99-.45,1.56.37,11.01.78,13.09.73-.69,1.32-.94,1.78-2.04,3.61,2.13,7.58,2.84,11.77,2.55l-1.5.99c1.81-.22,3.49.53,5.27.55,1.23.01,4.62-1.62,4.27.46h-9.29c-1.6,0-7.31-4.67-8.78-.22l-.66.15c-1.35-1.05-2.5-.64-2.86-2.45l-.03.02ZM289.35,95.32c.07-.96.14-2.2-1-2.51v2.51h1Z"
      />
      <path
        class="gc-logo-2"
        d="M298.4,75.73l2.04-.21.4-.61c.33-1.58-.19-3.4.09-4.93.36-1.93,2.52-3.19.99-6.3,1.62-1.83,1.08,4.58.9,5.17-.21.71-1.19,1.02-1.4,2.11-.28,1.41.17,3.28,0,4.76,4.98-.19,2.31-5.23,2.51-8.53.74-.04.88,1.8.94,2.32.2,1.9-.01,3.82.06,5.72,2.92-1.21,6.91.65,9.23-.57,1.11-.58,2.27-3.26,3.32-1.69l-3.81,4.15-5.94-.89-2.78,2.52v-2.01c-3.76-.21-7.88.68-11.45,1.87-1,.33-5.91,2.89-6.13,2.65-.46-.49-.06-1.17.64-1.63,2.1-1.4,4.45-1.8,6.65-2.88l1.25-6.03c.93-.12.37,1.01.28,1.53-.28,1.49-1.04,2.89-.78,4.49l2.55-.82,1.47-12.23c.86-.12.5,1.19.51,1.78.03,3.14-.43,7.39-1.52,10.27h-.02Z"
      />
      <path
        class="gc-logo-2"
        d="M198.45,65.69l1.01-1.51c-1.08,3.69-2.09,9.09-3.89,12.42-.53.99-.49.66-1.63.63l1-5.02-2.5,4.01c-1.53-3.94,1.49-7.4,2.51-11.04l.99,1.5,2.01-3.51.5,2.51h0ZM197.45,66.7c-1.08-1.31-2.12,4.1-2,4.51l2-4.51ZM193.93,72.21l1.01-4.01c-.76.23-2.11,3.72-1.01,4.01Z"
      />
      <path
        class="gc-logo-2"
        d="M250.68,19.49c.17,1.23-.02.79-.7,1.06-2.64,1.03-3.48-.58-4.99-.43-.76.07-1.83.96-2.82,1.15-1.47.28-10.02,2.2-10.06-.02,1.48-.94,4.63-1.73,6.3-1.77,1.35-.04,2.55.58,3.51.54,2.92-.14,5.76-1.18,8.76-.52h0Z"
      />
      <rect class="gc-logo-2" x="394.82" y="110.89" width="41.68" height=".5" />
      <path
        class="gc-logo-2"
        d="M269.26,20.49c-1.44,4.25-6.88.47-10.04,1,1.25-4.06,6.98-.61,10.04-1Z"
      />
      <path
        class="gc-logo-2"
        d="M213.02,61.67c-5.04.08-9.85-1.63-14.81-2.52-.83-.15-.86.31-.75-.99,4.42.28,9.69,1.02,13.88,2.44.66.22,1.53.14,1.69,1.07h-.01Z"
      />
      <path
        class="gc-logo-2"
        d="M294.72,103.01c.22.33,1.31,4.34,1.55,5.24.13.49.51,1.76-.38,1.64-.27-1.47-.97-2.84-1.63-4.17-.33-.66-1.12-.73-1.29-.98-.28-.41.86-4.35-2.61-1.88v-1.5l-.72.96c-.85-.74-2.69.18-2.3-1.46,1.95-.85,6.27.54,7.38,2.16h0Z"
      />
      <path
        class="gc-logo-2"
        d="M322.5,112.89c1.83-2.65,1.99-6.18,4.51-8.53-.11,1.59.96,2.99.26,4.51-.24.51-4.25,4.5-4.77,4.03h0Z"
      />
      <rect class="gc-logo-2" x="68.88" y="110.89" width="30.13" height=".5" />
      <path
        class="gc-logo-2"
        d="M231.6,22.5c.81.87-.26.84-.71,1.04-2.78,1.28-5.86.95-8.84.95.46-1.5,2.17-.75,3.15-1.02.41-.11.41-.82.75-.94,1.22-.44,4.8-.93,5.64-.03h.01Z"
      />
      <path
        class="gc-logo-2"
        d="M302.41,60.66h-2.51c-.36-.31,2.24-8.55-1.01-8.55l.76-.99c2.36-.55,2.32,8.08,2.75,9.54h.01Z"
      />
      <path
        class="gc-logo-2"
        d="M310,103.83l1.39.06c.37.37-.11,7.39-1.94,7.5.46-2.54-.45-5.42-.47-7.75,0-.41.25-1.9.96-1.79l.06,1.98Z"
      />
      <path
        class="gc-logo-2"
        d="M304.05,108.25l-.57-3.56c.73-2.28,4.65.11,3.89,2.82-.66,1.55-2.02,1.66-3.32.73h0ZM306.43,107.87c.16-.95-.59-1.67-1.5-1.5v1.5h1.5Z"
      />
      <path
        class="gc-logo-2"
        d="M296.72,110.55c.32.28,1.99,2.54,1.67,2.84l-3.89-1.13-2.63-4.89c1.9-.46,1.97,1.45,2.98,2.3.62.53,1.5.55,1.88.87h-.01Z"
      />
      <path
        class="gc-logo-2"
        d="M341.59,107.37l-4.27-1.5c-1.11-1.24-.2-2.56-.24-4.02.92.3,5.14,4.92,4.51,5.52h0Z"
      />
      <path
        class="gc-logo-2"
        d="M225.58,38.07c2.15-.72,4.69-.89,6.52.75-1.72,2.03-5.74,1.96-6.52-.75Z"
      />
      <path
        class="gc-logo-2"
        d="M216.54,32.03c-1.4-1.89,6.4-2.17,7.02-.24.06,1.01-6.09,1.26-7.02.24Z"
      />
      <path
        class="gc-logo-2"
        d="M299.67,103.36c1.36-.29,3.83,4.64.47,4.91-1.83-.77-2.43-4.49-.47-4.91Z"
      />
      <path
        class="gc-logo-2"
        d="M209,53.63l.76,2.51,1.75-1.5c.4.9-1.81,3.97-2.25,4.01-1.25.11.62-2.88-1.26-3.78l-3.01.28,2.51.5v1.5l-3.29-.47-.22-3.04h5.02-.01Z"
      />
      <path
        class="gc-logo-2"
        d="M167.32,114.91l-.5-6.53c1.03-1.18,3.31,5.54,2.03,6.3l-1.52.23h0Z"
      />
      <path
        class="gc-logo-2"
        d="M311.95,72.22l-.5-4.52c1.28-.22.92.19,1.16,1.09.45,1.67.19,2.8-.41,4.42-.92,1.38-2.49-1.75-3.78.25l-.97-.49c2.25-2.66-1.77-6-1.01-9.29l3.26,8.04,2.26.5h-.01Z"
      />
      <path
        class="gc-logo-2"
        d="M274.79,22.5c.77,1.01-2.11,1.96-2.82,2.02-.18.01-2.54-1.66-3.19-1.77,1.66-2.38,3.8-.74,6.02-.25h0Z"
      />
      <path
        class="gc-logo-2"
        d="M280.82,25.51c-2.72-.66-4.55,1.62-7.03.5,1.88-2.9,4.88-3.31,7.03-.5Z"
      />
      <path
        class="gc-logo-2"
        d="M258.22,18.98c.33,1.66-.96.67-1.87,1.16-.16.09-.14.8-.47.87-1.04.2-2.51-.73-3.68-.52v-1.5h6.03-.01Z"
      />
      <path
        class="gc-logo-2"
        d="M297.89,60.67c-1.91.34-.53-1.31-.6-2.26-.16-2.13-.33-4.46-.89-6.54.38-.99,1.49-.51,1.49,0v8.79h0Z"
      />
      <path
        class="gc-logo-2"
        d="M199.45,51.63c-.4,1.63.89,1.44,1.51,2.5l-1.44.06c-.32.3.29,2.82-1.57,2.45v-5.02h1.5s0,0,0,0Z"
      />
      <path
        class="gc-logo-2"
        d="M306.07,56c1.15.83,4.04,1.87,2.11,4.16l-1.2-2.77c-2.22-.06-2.28-.66-2.55-2.75,1.24-.34,1.16,1,1.65,1.36h0Z"
      />
      <path
        class="gc-logo-2"
        d="M290.78,103.46c.36.2,1.96,3.59.34,2.91-.31-.13-4.3-3.48-3.77-4.01,1.1-.28,1.34.96,2.03,1.27.56.25,1.24-.26,1.4-.17Z"
      />
      <path
        class="gc-logo-2"
        d="M304.93,84.77c-.44-1.16.82-4.79,2.25-4.52,2.06.4-1.59,3.98-2.25,4.52Z"
      />
      <path
        class="gc-logo-2"
        d="M214.02,76.74l-1.01,1.5,1.47.03.04,2.23c-2.34,1.08-2.12-1.73-2.02-3.47l1.51-.29h.01Z"
      />
      <path
        class="gc-logo-2"
        d="M202.47,56.15l-2.51-.51c1.41-1.24,1.87-1.35,1.51-3.51,2.49.04.71,2.41,1,4.02Z"
      />
      <path
        class="gc-logo-2"
        d="M309.95,63.68c-.03,1.25.05,2.52,0,3.78-.02.61.38,1.87-.5,1.75l-.49-4.7-1.02-.82h2.01Z"
      />
      <path
        class="gc-logo-2"
        d="M303.91,56.65l1.51,4.52-1.89-1.31c.58-1.38-.16-1.79-.62-2.95l1.01-.26h-.01Z"
      />
      <path
        class="gc-logo-2"
        d="M295.38,61.67c-.74.7-.67.35-.85-.47-.2-.97-.06-2.49-.15-3.54l.99,2.51.5-5.02-.5,6.52h.01Z"
      />
      <path
        class="gc-logo-2"
        d="M172.34,94.81l.75-4.51c1.44,1.52,1.95,4.27-.75,4.51Z"
      />
      <path
        class="gc-logo-2"
        d="M295.89,94.31l-3.51-2c-.38,2.8,1.8,2.34,3.01,4.01l-3.41-1.61-.6-4.92,4.51,4.52Z"
      />
      <path
        class="gc-logo-2"
        d="M305.92,68.7c-.98-.55-.44-2.56-1.02-3.65-.2-.37-.6-.43-.98-.38l1.25-1.49c1.13,1.6.7,3.69.75,5.52Z"
      />
      <rect class="gc-logo-2" x="56.83" y="110.89" width="8.04" height=".5" />
      <path
        class="gc-logo-2"
        d="M299.4,78.74c0,.81.05,1.65.34,2.41.2.52,2.26.93.41,1.6-1.15.42-1.04-2.81-1.68-3.34,0,0,.93-.67.93-.67Z"
      />
      <polygon
        class="gc-logo-2"
        points="214.02 93.31 213.27 95.82 212.02 93.82 214.02 93.31"
      />
      <path
        class="gc-logo-2"
        d="M173.53,97.53c-.3.28-.05.96-.43.8l-.72-1.21,1.72-1.3c1.4,1.04.19,1.01-.56,1.7h-.01Z"
      />
      <path
        class="gc-logo-2"
        d="M211.52,76.24l.49-5.02c-.52,1.64,1.48,4.14-.49,5.02Z"
      />
      <path
        class="gc-logo-2"
        d="M294.88,56.65l-.99-5.02c1.75.86.78,3.47.99,5.02Z"
      />
      <path
        class="gc-logo-2"
        d="M291.37,76.74c-.01-1.1-.29-2.62.99-3.01.01,1.1.29,2.62-.99,3.01Z"
      />
      <path
        class="gc-logo-2"
        d="M302.41,102.85l-3.52-2c1.29.08,2.97.74,3.52,2Z"
      />
      <path
        class="gc-logo-2"
        d="M186.9,101.35c-1.38-.49-1.35-2.18-.24-3.01l.24,3.01Z"
      />
      <polygon
        class="gc-logo-2"
        points="272.78 107.88 272.27 109.88 271.28 109.88 271.28 107.88 272.78 107.88"
      />
      <polygon
        class="gc-logo-2"
        points="243.65 104.37 242.15 106.37 241.64 104.37 243.65 104.37"
      />
      <path
        class="gc-logo-2"
        d="M297.89,61.17c1.15,1-2.63,1.6-3.01,1.5,0-.73,2.86-1.63,3.01-1.5Z"
      />
      <polygon
        class="gc-logo-2"
        points="314.97 106.37 315.46 107.63 314.71 108.37 313.97 108.38 313.97 106.37 314.97 106.37"
      />
      <path
        class="gc-logo-2"
        d="M297.89,65.68l-1.03.67-1.47-.16c-.54-.9,1.34-1.21,1.51-1.22.66-.04.87.05,1,.72h-.01Z"
      />
      <polygon
        class="gc-logo-2"
        points="165.3 66.69 164.81 63.43 165.8 58.66 165.3 66.69"
      />
      <polygon
        class="gc-logo-2"
        points="292.87 73.22 291.87 73.22 292.38 70.71 292.87 70.71 292.87 73.22"
      />
      <polygon
        class="gc-logo-2"
        points="301.41 97.83 301.41 95.82 302.16 95.83 302.91 96.58 301.41 97.83"
      />
      <path
        class="gc-logo-2"
        d="M246.66,104.36c.25.22-.12.95-.5,1.26-1.77,1.44-1.11-2.68.5-1.26Z"
      />
      <path
        class="gc-logo-2"
        d="M186.39,104.86h-.99l.02-.72c.76-.54.74-1.89,1.48-1.78l-.51,2.51h0Z"
      />
      <rect class="gc-logo-2" x="293.38" y="65.19" width=".49" height="3.51" />
      <path
        class="gc-logo-2"
        d="M224.06,43.09c.51.5-.98,2.02-1.5,1.5s.98-2.02,1.5-1.5Z"
      />
      <path
        class="gc-logo-2"
        d="M184.9,112.9c-.26-.7.7-3.13.99-2.51.08.94.14,2.21-.99,2.51Z"
      />
      <path class="gc-logo-2" d="M289.36,108.88c-1,.13-2.11-.93-2-2l2,2Z" />
      <rect class="gc-logo-2" x="166.32" y="51.63" width=".49" height="3.01" />
      <rect class="gc-logo-2" x="165.81" y="55.14" width=".49" height="3.01" />
      <path
        class="gc-logo-2"
        d="M254.6,39.19c.23.14.28.91.6,1.12,1.37.89,7.44-.96,9.24-.62.16.03,2.23,1.47,2.67,1.77s.93-.09.66,1.12l-11.72,1.03c-.98-1.72-1.54-3.33-3.85-3.54-.58-1.43,1.82-1.23,2.4-.88Z"
      />
      <path
        class="gc-logo-2"
        d="M243.9,43.59l-.51-1c1.02-2.5,6.45-.86,8.8-1.51v2.51h-8.29Z"
      />
      <path
        class="gc-logo-2"
        d="M271.18,39.97c.1-.08.06-.85.42-.92l3.7.53c.11,1.41-1.47,2.29-2.71,2.03-.71-2.17-1.64-.06-3.06-.05-.83,0-2.88-1.06-3.27-1.97,1.32-1.29,4.72.54,4.92.39h0Z"
      />
      <path
        class="gc-logo-2"
        d="M233.61,27.02v2c-.67.28-.51-2.09-1.5-1-.58.64,2.91,5.16-1.98,3.98l-.3-3.99,3.79-1h0Z"
      />
      <path
        class="gc-logo-2"
        d="M251.68,23.5l.49,2.49-4,2.03-.5-3.51c.89-.34,1.38.93,1.75.91.97-.03.83-2.39,2.25-1.92h.01Z"
      />
      <polygon
        class="gc-logo-2"
        points="233.11 35.05 231.1 34.8 232.35 34.05 233.11 35.05"
      />
      <path
        class="gc-logo-2"
        d="M251.09,91.63c.15-.06-.15-1.32,1.1-.83l.04,3.49,1.47.52h-5.02l-.25,2.51c-1.26-1.86-1.51-4.47-.75-6.53.79.74,2.42,1.26,3.41.83h0ZM250.18,92.31c-.97-.97-3.1,1.6-1.25,2,1.06.23,1.61-1.64,1.25-2Z"
      />
      <path
        class="gc-logo-2"
        d="M246.16,93.82c-.07,2.76-3.77-.44-5.52.49-.12-.88,1.14-.47,1.75-.5,1.25-.05,2.52.03,3.77,0h0Z"
      />
      <path
        class="gc-logo-2"
        d="M266.75,92.81c-.76,1.21-3.29.94-4.52.99l4.52-.99Z"
      />
      <path
        class="gc-logo-2"
        d="M261.73,93.82c-.7,1.16-3.36.2-4.51.49.66-1.15,3.35-.2,4.51-.49Z"
      />
      <polygon
        class="gc-logo-2"
        points="255.71 94.31 255.21 96.82 254.2 94.32 255.71 94.31"
      />
      <polygon
        class="gc-logo-2"
        points="242.65 76.74 240.65 78.24 240.64 76.74 242.65 76.74"
      />
      <path
        class="gc-logo-2"
        d="M245.16,77.24l-.51,1.5h-1c-.16-.95.59-1.67,1.5-1.5h0Z"
      />
      <rect class="gc-logo-2" x="236.13" y="76.24" width=".49" height="3.01" />
      <path
        class="gc-logo-2"
        d="M261.23,56.65v2.01l-2.01-1.01c.26-.99,1.11-1.13,2.01-.99h0Z"
      />
      <path
        class="gc-logo-2"
        d="M248.67,58.16v1h-2.51c.3-1.13,1.55-1.07,2.51-1Z"
      />
      <path class="gc-logo-2" d="M240.14,67.7c-.36,1.95-3.64.29-3.01,0h3.01Z" />
      <path
        class="gc-logo-2"
        d="M150.24,94.82c.33,1.65-1.43.44-1.01,2.26.04.19,1.88.24.77,1.25-2.63-1.2-3.55-3.74.25-3.51h-.01Z"
      />
      <polygon
        class="gc-logo-2"
        points="152.19 98.89 152.24 100.34 151.76 100.34 150.76 99.32 150.75 98.33 152.19 98.89"
      />
      <path
        class="gc-logo-2"
        d="M158.18,83.36c.42.69-.44,3.57-1.41,3.92l-1.01-5.02,2.41,1.1h0Z"
      />
      <path
        class="gc-logo-2"
        d="M184.39,59.66c.49,1.02-2.14,2.38-2.51,2-.49-1.02,2.14-2.38,2.51-2Z"
      />
      <path
        class="gc-logo-2"
        d="M180.58,58.94c.19.21.52.23.79.23.26,1.31-.29,1.03-1.49.99v-2h.49c-.06.29,0,.56.21.78Z"
      />
      <polygon
        class="gc-logo-2"
        points="188.91 61.67 188.91 62.67 186.91 62.17 186.9 61.68 188.91 61.67"
      />
    </g>
  </symbol>
</svg>
