<svg
  xmlns="http://www.w3.org/2000/svg"
  xmlns:xlink="http://www.w3.org/1999/xlink"
>
  <symbol id="roulette" viewBox="0 0 400 400"
    ><g
      ><path
        class="cls-1"
        d="M333.09,186.76c.08,1.02.13,2.04.18,3.07h.01c-.04-1.02-.09-2.05-.19-3.07ZM353.65,186.46c-.15-2.59-.39-5.15-.72-7.72.31,2.57.56,5.15.7,7.74.07,1.12.12,2.24.15,3.35h.02c-.03-1.11-.08-2.25-.15-3.37Z"
      /><path
        class="cls-1"
        d="M373.06,172.81c-2.89-17.52-8.46-34.44-16.35-50.2-21.84-43.73-61.49-78.49-111.4-91.77-17.25-4.6-35.72-6.62-55.1-5.57C57.72,32.47-19.75,181.01,51.94,293.68c65.84,103.51,212.85,108.2,286.05,14.09,3.49-4.48,6.8-9.17,9.93-14.09,5.47-8.6,10.08-17.37,13.85-26.28,8.43-19.81,12.76-40.17,13.5-60.28.43-11.57-.33-23.06-2.21-34.31ZM206.96,45.06c21.5-.09,42.55,5.54,61.15,16.35,6.04,3.51,7.75,11.46,3.61,17.1-2.28,3.1-5.82,4.77-9.43,4.77-2.02,0-4.05-.52-5.91-1.6-15.01-8.74-32.01-13.28-49.38-13.2-5.99.02-11.04-4.45-11.71-10.4-.78-6.96,4.67-12.99,11.67-13.02ZM79.27,278.76c-5.54,4.27-13.53,2.75-17.18-3.22-11.24-18.32-17.36-39.24-17.78-60.74-.13-7,5.77-12.59,12.74-11.97,2.99.26,5.63,1.63,7.53,3.68,1.91,2.05,3.08,4.79,3.14,7.78.33,17.37,5.27,34.26,14.35,49.06,3.14,5.1,1.94,11.75-2.8,15.41ZM73.88,132.38c-6.39-2.83-8.85-10.59-5.34-16.64,10.77-18.6,26.26-33.94,44.98-44.53,6.08-3.44,13.81-.91,16.58,5.51.65,1.51.96,3.08.96,4.63,0,4.11-2.18,8.07-5.96,10.21-15.12,8.55-27.63,20.93-36.33,35.96-3,5.19-9.41,7.29-14.89,4.86ZM194.36,357.15c-21.49.45-42.64-4.82-61.41-15.32-6.1-3.42-7.95-11.34-3.9-17.04,2.27-3.19,5.86-4.92,9.54-4.92,1.95,0,3.93.48,5.74,1.5,15.16,8.48,32.24,12.74,49.59,12.37,5.99-.13,11.12,4.26,11.89,10.2.89,6.94-4.45,13.07-11.45,13.21ZM251.37,212.62l-18.07.46c-3.53,8.53-8.37,13.68-15.91,18.67-1.46.97-3.8,1.24-4.63,1.91-2.14,1.75-.32,14.97-.93,18.51,24.96,15.05,6.53,52.54-20.29,42.92-19.05-6.81-21.4-32.58-4-42.92l-.44-18.06c-7.1-3.13-12.76-7.31-17.16-13.7-1.25-1.84-2.52-5.7-3.46-6.82-1.84-2.19-14.86-.34-18.49-.97-15.05,24.93-52.53,6.62-42.92-20.27,6.82-19.05,32.62-21.38,42.92-4,3.54-.61,16.76,1.2,18.51-.94.67-.82.94-3.16,1.91-4.62,4.99-7.54,10.14-12.4,18.69-15.92l.44-18.06c-17.39-10.31-15.06-36.11,4-42.91,26.62-9.52,45.25,27.51,20.5,42.44l.21,18.54c9.77,3.79,17.26,11.26,21.05,21.03l18.07.44c15.09-24.94,52.51-6.57,42.91,20.27-6.83,19.15-32.48,21.27-42.91,4ZM331.58,284.16c-10.46,18.79-25.69,34.38-44.23,45.28-6.03,3.55-13.79,1.14-16.67-5.23-.7-1.56-1.04-3.2-1.04-4.81,0-4.04,2.11-7.94,5.8-10.11,14.97-8.8,27.27-21.39,35.71-36.57,2.92-5.23,9.29-7.44,14.81-5.11,6.44,2.73,9.03,10.44,5.62,16.55ZM341.67,201.66c-2.98-.32-5.6-1.73-7.47-3.81-1.88-2.08-3-4.83-3.01-7.83-.04-17.37-4.7-34.34-13.53-49.29-3.05-5.16-1.74-11.78,3.06-15.36h0c5.6-4.18,13.56-2.53,17.12,3.5,10.93,18.51,16.7,39.53,16.76,61.03.01,7-5.98,12.49-12.94,11.76Z"
      /><path
        class="cls-1"
        d="M333.28,189.83h-.01c-.05-1.03-.1-2.05-.18-3.07.1,1.02.15,2.05.19,3.07Z"
      /><path
        class="cls-1"
        d="M353.8,189.83h-3.94c1.22-1.15,2.49-2.27,3.77-3.35-.14-2.59-.39-5.17-.7-7.74.33,2.57.57,5.13.72,7.72.07,1.12.12,2.26.15,3.37Z"
      /><path
        class="cls-1"
        d="M212.5,200.5c0,7.08-5.75,12.81-12.83,12.81s-12.81-5.73-12.81-12.81,5.73-12.83,12.81-12.83,12.83,5.73,12.83,12.83Z"
      /></g
    ><path
      class="cls-1"
      d="M333.09,186.76c.1,1.02.15,2.05.19,3.07h-.01c-.05-1.03-.1-2.05-.18-3.07Z"
    /><path
      class="cls-1"
      d="M353.8,189.83h-3.94c1.22-1.15,2.49-2.27,3.77-3.35-.14-2.59-.39-5.17-.7-7.74.33,2.57.57,5.13.72,7.72.07,1.12.12,2.26.15,3.37Z"
    /></symbol
  >
  <symbol id="new" viewBox="0 0 400 400"
    ><path
      d="M196.62,285.36c-7.63-8.46-20.26-13.88-27.96-22.82-6.06-6.62-11.77-16.36-16.2-21.33-2.16-2.4-4.85-5.17-8.26-4.47-4.29,1.18-7.56,6.24-10.63,10.3-5.43,7.63-10.88,15.94-18.46,21.75-6.33,5.04-13.44,9.45-17.75,13.21-1.82,1.59-3.66,3.37-4.5,5.55-1.83,5.79,5.28,9.8,9.74,13.38,6.93,5.02,14.66,9.95,20.28,16.61,6.45,6.49,16.09,26.57,23.39,24.77,4.52-1.21,7.93-6.73,11.14-11.02,3.21-4.51,6.52-9.49,10.22-13.74,6.67-8.12,19.56-15.25,26.13-20.97,3.44-2.81,6.4-7.09,2.93-11.11l-.08-.1Z"
    /><path
      d="M202.07,116.85c-6.3-5.03-17.59-7.81-25.62-11-25.43-9.82-46.42-31.1-55.86-56.68-3.39-7.73-10.53-39.07-20.05-20.05-3.04,5.75-5.51,13.92-7.97,20.45-11.05,29.97-37.22,51.99-67.61,60.64-5.28,2.08-15.3,5.44-15.44,10.33.12,1.95,2.28,3.91,5.99,5.87,2.68,1.42,6.14,2.85,9.91,4.22,30.15,8.53,56.47,30.85,67.28,60.61,2.38,6.4,4.69,14.06,7.64,19.82,4.4,8.85,8.49,8.46,12.7.02,2.94-5.72,5.3-13.45,7.7-19.82,9.79-26.1,31.49-47.7,57.7-57.2,5.6-2.53,32.92-9.05,23.7-17.13l-.08-.07Z"
    /><path
      d="M368.49,205.44c-5.09-4.42-14.44-7.51-21.19-10.41-19.92-8.03-36.53-24.26-44.87-44.03-2.71-6.25-5.45-13.99-8.8-19.46-4.65-7.68-8.44-5.69-12.46,1.8-2.2,4.04-4.34,9.43-6.21,14.04-9.54,25.88-30.55,43.01-56.18,51.74-4.9,2.36-13.05,5.23-13.3,10.05.62,4.53,9.49,7.93,14.44,10.17,24.95,8.36,46.21,26.67,55.19,51.77,2.1,5.22,4.69,11.74,7.38,15.96,4.76,7.52,8.44,4.75,12.39-2.76,1.81-3.42,3.64-7.86,5.46-12.41,8.73-24.93,29.72-43.89,54.55-52.2,5.13-2.47,20.59-7.56,13.68-14.17l-.08-.08Z"
    /></symbol
  >
  <symbol id="hot" viewBox="0 0 400 400"
    ><path
      d="M228.26,25c-1.26,10.7-6.24,23.86-6.2,34.39.13,37.23,92.48,119.68,110.07,168.26,24.62,68-10.16,127.09-76.97,147.35,25.56-27.38,37.41-55.33,21.48-91.79-2.47-5.65-21.42-35.31-27.42-30.84-1.62,10.51-12.42,38.6-22.95,41.44-8.38,2.26-11.84-5.06-9.37-12.31,30.64-45.33-5.9-88.68-48.37-106.91,7.26,19.81,22.24,28.41,17.76,52.21-5.18,27.49-62.26,43.36-68.3,87.16-2.31,16.78-.99,38.25,11.67,50.62-5.78,1.9-19.43-8.71-25.32-13.54-28.96-23.79-52.07-66.3-42-104.75,3.39-12.92,23.08-33.74,30.03-47.72,15.4-31,10.8-48.17-10.5-74.82,16.77-1.06,30.67-.94,44.79,8.94.99-57.84,41.76-107.94,101.61-107.68Z"
    /></symbol
  >
  <symbol id="american" viewBox="0 0 200 200">
    <polygon
      points="84.21 81.06 86.99 89.64 79.72 84.34 72.45 89.64 75.23 81.06 67.95 75.75 76.94 75.75 79.72 67.17 82.5 75.75 91.49 75.75 84.21 81.06"
    />
    <polygon
      points="83.87 27.79 86.65 36.37 79.38 31.07 72.1 36.37 74.88 27.79 67.61 22.48 76.6 22.48 79.38 13.9 82.16 22.48 91.14 22.48 83.87 27.79"
    />
    <polygon
      points="83.87 54.08 86.65 62.67 79.38 57.36 72.1 62.67 74.88 54.08 67.61 48.78 76.6 48.78 79.38 40.19 82.16 48.78 91.14 48.78 83.87 54.08"
    />
    <polygon
      points="50.73 54.08 53.51 62.67 46.23 57.36 38.96 62.67 41.74 54.08 34.47 48.78 43.46 48.78 46.23 40.19 49.01 48.78 58 48.78 50.73 54.08"
    />
    <polygon
      points="50.73 81.06 53.5 89.64 46.23 84.34 38.96 89.64 41.74 81.06 34.46 75.75 43.46 75.75 46.23 67.17 49.01 75.75 58 75.75 50.73 81.06"
    />
    <path
      d="M50.73,27.79l2.78,8.58-7.27-5.3-7.27,5.3,2.78-8.58-.37-.27c2.37-2.03,4.85-3.93,7.43-5.71l.22.67h8.99l-7.27,5.31Z"
    />
    <path
      d="M18.41,81.06l2.78,8.58-7.27-5.3-3.69,2.69c.65-6.55,2.01-12.88,3.98-18.94l2.48,7.67h8.99l-7.27,5.31Z"
    />
    <path d="M21.19,63.53l-4.13-3.01c.58-1.36,1.2-2.7,1.85-4.03l2.28,7.04Z" />
    <path d="M25.68,49.64l-5.22,3.81c.69-1.29,1.41-2.56,2.16-3.81h3.05Z" />
    <path
      d="M189.77,96h-90v-24.16h86.7c1.37,4.9,2.33,9.98,2.85,15.18.29,2.96.45,5.94.45,8.97Z"
    />
    <path
      d="M175.59,47.5h-75.81v-24.16h53.11c1.82,1.33,3.58,2.72,5.29,4.18,6.74,5.75,12.61,12.48,17.41,19.98Z"
    />
    <path
      d="M186.47,120.35c-.35,1.26-.73,2.52-1.13,3.76-.84,2.58-1.79,5.1-2.85,7.57-.58,1.36-1.2,2.7-1.85,4.03-.5,1.02-1.02,2.04-1.56,3.04-.69,1.29-1.41,2.55-2.16,3.81-.4.66-.8,1.31-1.22,1.96H23.85c-.41-.64-.82-1.3-1.22-1.96-.75-1.25-1.48-2.52-2.16-3.81-.54-1-1.06-2.02-1.56-3.04-.65-1.33-1.26-2.67-1.85-4.03-1.06-2.47-2.01-4.99-2.85-7.57-.4-1.24-.78-2.5-1.13-3.76h173.39Z"
    />
    <path
      d="M152.89,168.85c-.7.52-1.41,1.03-2.13,1.52-14.4,9.91-31.84,15.72-50.62,15.72-.12,0-.24,0-.36,0-.12,0-.24,0-.36,0-18.78,0-36.22-5.81-50.62-15.72-.72-.5-1.44-1-2.14-1.52h106.23Z"
    />
  </symbol>
  <symbol id="european" viewBox="0 0 200 200">
    <path
      d="M97.77,10.03C33.81,11.65-8.51,78.43,18.06,137.16c28.08,62.06,113.11,71.71,153.93,16.89,44.88-60.29.54-145.92-74.22-144.02ZM149.89,66.96l1.93-6.69,2.29,6.69h7.03l-5.58,4.45,2.06,6.47-5.74-3.8-5.5,3.8,2.02-6.52-5.54-4.4h7.03ZM127.56,45.13l2.46-6.69,2.27,6.53,6.69-.19c.18.68-.26.68-.58,1-.69.67-4.63,3.01-4.69,3.47l2.11,6.8-5.8-4.11-5.45,3.76,1.7-6.48-5.22-4.09h6.51ZM67.42,45.13l2.46-6.68,2.43,6.37,6.54.49-5.24,3.75,2.07,6.99-5.75-4.2-5.33,4.2-.52-.17,2.06-6.62-5.22-4.13h6.5ZM34.54,107.81l1.71-6.44-5.58-4.48h7.39l1.93-6.34,2.29,6.34h7.03l-5.56,4.45,2.04,6.82-5.51-4.17-5.74,3.82ZM53.53,137.73l-5.45-3.75-5.8,4.11,2.07-6.8-5.24-4.12h6.68l2.29-7.04,2.46,7.04h6.51l-5.24,4.1,1.72,6.46ZM51.75,71.07l1.78,6.46-5.45-3.5c-1.66.98-3.26,2.08-4.86,3.14-.3.21-.11.62-.42.71-.78.24-.48-.34-.37-.72.35-1.19,2.16-5.23,1.98-6.08l-5.65-4.12h6.86l2.46-6.69,2.46,6.69h6.86l-5.65,4.11ZM75.68,159.92l-5.8-3.86-5.44,3.86,1.7-6.81-5.22-4.11h7.03l1.76-6.69c.57.05.51.55.67.91.78,1.82,1.22,3.89,1.79,5.78h7.03l-5.45,4.21,1.93,6.71ZM105.57,168.01l-5.44-4.16-5.8,4.16,2.08-7-5.6-3.91h7.03l2.29-6.69,1.93,6.69h7.03l-5.52,4.4,2,6.51ZM103.86,41.15l1.72,6.45c-.32.33-4.25-3.09-4.94-3.34-1.78-.64-4.55,2.97-6.31,3.69l2.13-6.82-5.65-4.09h7.03c.79-2.12,1.04-4.99,2.46-6.69l1.76,6.69h7.03l-5.23,4.11ZM135.29,159.57l-5.27-3.52-5.45,3.51,1.67-6.11-5.54-4.45h6.86l2.46-6.69,2.46,6.69h6.86l-5.58,4.48,1.53,6.09ZM157.62,137.73l-5.8-3.78-5.27,3.79,1.9-6.48-5.59-4.09h7.03l1.76-6.69c1.16.37,2.1,6.69,2.46,6.69h6.68l-5.29,4.08,2.12,6.48ZM165.36,107.45l-5.38-3.47-5.87,4.18,2.06-6.79-5.58-4.48h7.39l1.93-6.69,2.46,6.69h6.86l-5.55,4.44,1.68,6.12Z"
    />
  </symbol>
  <symbol id="french" viewBox="0 0 200 200">
    <path
      d="M40.95,190c10.99-14.05,20.57-29.27,28.08-45.49l61.84-.16c7.58,16.25,17.11,31.56,28.17,45.65h-34.44c-.22-18.81-20.27-30.83-36.91-21.28-7.44,4.27-12.37,12.62-12.3,21.28h-34.44Z"
    />
    <path
      d="M105.27,10v28.67c.01.83.33,1.6.37,2.43.28,6.93.62,13.81,1.44,20.71,2.92,24.74,9.57,48.97,18.94,71.94h-20.74v-21.09h-10.54v21.09h-20.74c9.34-22.98,16.02-47.2,18.94-71.94,2.03-17.21,1.91-34.47,1.8-51.81h10.54Z"
    />
  </symbol>
</svg>
