<svg
  xmlns="http://www.w3.org/2000/svg"
  xmlns:xlink="http://www.w3.org/1999/xlink"
>
  <symbol id="slot" viewBox="0 0 400 400">
      <path
        class="cls-1"
        d="M323.11,99.97c0-14.77,8.13-27.65,20.15-34.39-12.6-24.12-37.85-40.58-66.95-40.58H84.15C42.45,25,8.65,58.8,8.65,100.5v199c0,41.7,33.8,75.5,75.5,75.5h192.16c41.7,0,75.5-33.8,75.5-75.5v-161.58c-16.56-4.67-28.7-19.89-28.7-37.95ZM121.2,250.88c0,8.28-6.71,15-15,15h-35.76c-8.29,0-15-6.72-15-15v-103.42c0-8.29,6.71-15,15-15h35.76c8.29,0,15,6.71,15,15v103.42ZM214.81,250.88c0,8.28-6.72,15-15,15h-35.77c-8.29,0-15-6.72-15-15v-103.42c0-8.29,6.71-15,15-15h35.77c8.28,0,15,6.71,15,15v103.42ZM308.33,250.88c0,8.28-6.71,15-15,15h-35.77c-8.28,0-15-6.72-15-15v-103.42c0-8.29,6.72-15,15-15h35.77c8.29,0,15,6.71,15,15v103.42Z"
      /><path
        class="cls-1"
        d="M391.34,99.97c0,10.41-5.89,19.42-14.52,23.92-.29.15-.59.31-.89.45-3.44,1.63-7.28,2.56-11.33,2.59h-.21c-4.54,0-8.82-1.12-12.57-3.11-8.56-4.51-14.38-13.5-14.38-23.85,0-8.93,4.35-16.85,11.04-21.75,4.46-3.27,9.96-5.2,15.91-5.2,14.89,0,26.96,12.06,26.96,26.95Z"
      /><path
        class="cls-1"
        d="M378.85,212.57c0,.13,0,.26,0,.4,0,.07-.01.13-.03.21-.34,1.46-.89,2.85-1.66,4.13-.72,1.21-1.62,2.31-2.64,3.27-1.03.97-2.2,1.8-3.45,2.47-1.27.67-2.63,1.17-4.04,1.48-1.07.23-2.16.35-3.26.35-4.88,0-9.21-2.33-11.95-5.94v-16c1.73,2.14,4.38,3.5,7.34,3.5s5.45-1.28,7.17-3.31l-.18-8.03-.1-4.6-1.16-51.18-.28-12.4c4.05-.03,7.89-.95,11.33-2.59.3-.14.6-.29.89-.45.02.6.03,1.2.04,1.81.02.89.04,1.79.06,2.68.02.92.04,1.84.06,2.76.02.94.04,1.89.07,2.83.02.88.04,1.76.06,2.63,0,.09,0,.17,0,.26.02.99.04,1.96.07,2.94.02,1,.04,2,.07,2.99.02,1.01.04,2.01.07,3.02.02,1.02.05,2.04.07,3.05.02,1.03.05,2.05.07,3.07.02,1.03.05,2.06.07,3.09.02,1.03.05,2.06.07,3.08.02,1.03.05,2.06.07,3.08.02,1.03.05,2.05.07,3.08.02,1.02.04,2.03.07,3.05.02,1.01.05,2.01.07,3.02.02.99.05,1.99.07,2.99.02.98.05,1.96.07,2.94.02.96.05,1.92.07,2.88.02.94.04,1.89.07,2.83.02.92.04,1.84.06,2.75.02.89.04,1.78.06,2.67.02.86.04,1.73.06,2.59.02.83.04,1.66.06,2.49.02.8.04,1.6.06,2.39.02.76.03,1.52.05,2.28.02.72.04,1.44.05,2.16.02.67.03,1.35.05,2.03.01.63.03,1.26.04,1.9.01.58.02,1.17.04,1.75.01.53.02,1.07.04,1.6.01.48.02.96.04,1.44,0,.42.02.85.02,1.27.01.37.02.73.03,1.1,0,.31.01.61.02.91,0,.24.01.48.02.72,0,.17,0,.34.01.51Z"
      /></symbol
  >
  <symbol id="other" viewBox="0 0 400 400">
    <path
      class="cls-1"
      d="M323.11,99.97c0-14.77,8.13-27.65,20.15-34.39-12.6-24.12-37.85-40.58-66.95-40.58H84.15C42.45,25,8.65,58.8,8.65,100.5v199c0,41.7,33.8,75.5,75.5,75.5h192.16c41.7,0,75.5-33.8,75.5-75.5v-161.58c-16.56-4.67-28.7-19.89-28.7-37.95ZM121.2,250.88c0,8.28-6.71,15-15,15h-35.76c-8.29,0-15-6.72-15-15v-103.42c0-8.29,6.71-15,15-15h35.76c8.29,0,15,6.71,15,15v103.42ZM214.81,250.88c0,8.28-6.72,15-15,15h-35.77c-8.29,0-15-6.72-15-15v-103.42c0-8.29,6.71-15,15-15h35.77c8.28,0,15,6.71,15,15v103.42ZM308.33,250.88c0,8.28-6.71,15-15,15h-35.77c-8.28,0-15-6.72-15-15v-103.42c0-8.29,6.72-15,15-15h35.77c8.29,0,15,6.71,15,15v103.42Z"
    /><path
      class="cls-1"
      d="M391.34,99.97c0,10.41-5.89,19.42-14.52,23.92-.29.15-.59.31-.89.45-3.44,1.63-7.28,2.56-11.33,2.59h-.21c-4.54,0-8.82-1.12-12.57-3.11-8.56-4.51-14.38-13.5-14.38-23.85,0-8.93,4.35-16.85,11.04-21.75,4.46-3.27,9.96-5.2,15.91-5.2,14.89,0,26.96,12.06,26.96,26.95Z"
    /><path
      class="cls-1"
      d="M378.85,212.57c0,.13,0,.26,0,.4,0,.07-.01.13-.03.21-.34,1.46-.89,2.85-1.66,4.13-.72,1.21-1.62,2.31-2.64,3.27-1.03.97-2.2,1.8-3.45,2.47-1.27.67-2.63,1.17-4.04,1.48-1.07.23-2.16.35-3.26.35-4.88,0-9.21-2.33-11.95-5.94v-16c1.73,2.14,4.38,3.5,7.34,3.5s5.45-1.28,7.17-3.31l-.18-8.03-.1-4.6-1.16-51.18-.28-12.4c4.05-.03,7.89-.95,11.33-2.59.3-.14.6-.29.89-.45.02.6.03,1.2.04,1.81.02.89.04,1.79.06,2.68.02.92.04,1.84.06,2.76.02.94.04,1.89.07,2.83.02.88.04,1.76.06,2.63,0,.09,0,.17,0,.26.02.99.04,1.96.07,2.94.02,1,.04,2,.07,2.99.02,1.01.04,2.01.07,3.02.02,1.02.05,2.04.07,3.05.02,1.03.05,2.05.07,3.07.02,1.03.05,2.06.07,3.09.02,1.03.05,2.06.07,3.08.02,1.03.05,2.06.07,3.08.02,1.03.05,2.05.07,3.08.02,1.02.04,2.03.07,3.05.02,1.01.05,2.01.07,3.02.02.99.05,1.99.07,2.99.02.98.05,1.96.07,2.94.02.96.05,1.92.07,2.88.02.94.04,1.89.07,2.83.02.92.04,1.84.06,2.75.02.89.04,1.78.06,2.67.02.86.04,1.73.06,2.59.02.83.04,1.66.06,2.49.02.8.04,1.6.06,2.39.02.76.03,1.52.05,2.28.02.72.04,1.44.05,2.16.02.67.03,1.35.05,2.03.01.63.03,1.26.04,1.9.01.58.02,1.17.04,1.75.01.53.02,1.07.04,1.6.01.48.02.96.04,1.44,0,.42.02.85.02,1.27.01.37.02.73.03,1.1,0,.31.01.61.02.91,0,.24.01.48.02.72,0,.17,0,.34.01.51Z"
    /></symbol
  >
  <symbol id="animals" viewBox="0 0 200 200">
    <path
      d="M123.52,97.09c2.52,2.36,5.11,5.71,7.09,8.56,6.34,9.11,13.66,20.43,19.2,30.03,8.01,13.88,5.13,31.03-9.18,39.29-16.42,9.48-27.19-2.05-43.19-3.09-11.95-.78-17.64,2.14-28.3,5.45-24.59,7.64-44.96-17.82-32.64-40.38,5.11-9.35,12.85-20.67,18.91-29.62,3.64-5.37,7.39-10.18,12.76-13.96,16.86-11.87,40.28-10.37,55.35,3.72Z"
    ></path>
    <path
      d="M77.5,21.45c19.19-2.19,31.48,17.83,28.88,35.21-3.45,23.04-29.73,34.55-45.67,15.15-13.58-16.52-6.01-47.76,16.79-50.36Z"
    ></path>
    <path
      d="M135.18,35.53c18.71-1.15,27.9,19.02,22.48,35.14-5.17,15.38-23.43,25.77-37.85,15.19-19.1-14.02-8.35-48.87,15.37-50.33Z"
    ></path>
    <path
      d="M47.92,63.33c11.06,11.05,11.9,32.73-2.94,40.95-14.9,8.25-31.63-4.41-34.47-19.54-4.36-23.15,20.28-38.53,37.41-21.41Z"
    ></path>
    <path
      d="M166.83,81.59c22.08-2.2,29.8,23.58,16.94,39.1-15.19,18.34-43.52,10.44-41.09-14.72,1.16-12,12.13-23.18,24.15-24.38Z"
    ></path>
  </symbol>
  <symbol id="greece" viewBox="0 0 200 200">
    <path
      d="M99.23,10.29c.42-.04.83-.16,1.26-.06l83.72,22.26c8.58,3.26,7.37,18.27-2.26,19.13H18.07c-9.36-.84-10.87-15.2-2.75-18.91L99.23,10.29Z"
    ></path>
    <path
      d="M17.83,168.17l164.06-.05c3.1.37,6.2,2.78,7.3,5.68.85,2.25,1.01,10.89.62,13.38-.18,1.15-1.07,2.02-2.07,2.49l-174.89.14c-1.25-.2-2.43-1.37-2.63-2.63-.35-2.18-.25-9.54.14-11.75.61-3.57,3.92-6.74,7.48-7.26Z"
    ></path>
    <path
      d="M152.89,73.44c2.45-.44,13.52-.45,16.03-.06,4.38.67,2.86,8.02,2.99,11.39.65,16.84,1.34,33.64,1.75,50.52.06,2.54,1.76,9.5-1.64,10.26l-21.33.08c-3.86-.27-2.69-7.7-2.64-10.72.26-14.22,1.23-28.56,1.78-42.77.19-4.95-.24-10.98.33-15.81.19-1.59,1.16-2.61,2.72-2.89Z"
    ></path>
    <path
      d="M30.8,73.44c2.31-.47,13.52-.4,16.03-.05,4.24.59,2.86,5.74,3.02,8.91.88,17.57,1.8,35.37,2.12,52.96.04,2.12.32,6.54-.09,8.36-.2.9-1.04,1.73-1.93,1.93l-21.33.08c-4.28-.5-2.34-7.36-2.26-10.34.51-19.41,1.28-38.78,1.74-58.25.19-1.75.86-3.23,2.71-3.6Z"
    ></path>
    <path
      d="M92.17,144.82c-.39.42-1.21.77-1.8.83-6.55-.59-14.32.74-20.72,0-1.21-.14-2.27-.75-2.55-2.01-.46-2.07-.13-7.34-.09-9.76.25-14.21,1.22-28.56,1.78-42.77.18-4.68-.21-10.16.33-14.76.17-1.45,1-2.48,2.44-2.82,2.21-.52,13.45-.46,16-.16,3.03.36,3.15,2.47,3.34,5.08,1.34,18.73,1.35,39.06,1.73,57.92.04,2.22,1.21,6.66-.45,8.47Z"
    ></path>
    <path
      d="M107.83,144.82c-1.66-1.81-.49-6.25-.45-8.47.38-18.86.38-39.18,1.73-57.92.19-2.61.31-4.72,3.34-5.08,2.54-.3,13.78-.36,16,.16,1.44.34,2.27,1.38,2.44,2.82.54,4.6.14,10.08.33,14.76.56,14.21,1.53,28.56,1.78,42.77.04,2.42.37,7.69-.09,9.76-.28,1.26-1.34,1.87-2.55,2.01-6.4.74-14.17-.58-20.72,0-.59-.06-1.42-.4-1.8-.83Z"
    ></path>
    <path
      d="M181.28,161.3c-.28.31-.82.51-1.2.72l-160.41-.09c-4.59-3.61,1.55-10.46,6.14-10.34l148.06-.02c4.06-.78,10.51,6.34,7.42,9.73Z"
    ></path>
    <path
      d="M23.08,57.65l152.54-.1c8.68.63,2.34,10.02-3.16,9.85H27.55c-4.77.26-11.34-7.84-4.46-9.75Z"
    ></path>
  </symbol>
  <symbol id="aztecs" viewBox="0 0 200 200">
    <path
      d="M92.93,105.11l-8.85,33.08c-.11,2.65,1.31,4.95,3.97,5.59,2.99.72,19.67.68,23.07.21,3.29-.45,5.27-3.17,4.72-6.43l-8.76-32.45h38.91v42.62c-5.55,56.91-86.44,56.86-91.97,0v-42.62s38.91,0,38.91,0ZM116.16,166.19c3.03-3.03,1.29-8.4-2.91-9.06-7.73-1.21-18.44.84-26.49,0-5.86,1.58-5.98,8.96,0,10.57,8.2-.7,18.18,1.01,26.16.03.92-.11,2.59-.9,3.23-1.54Z"
    ></path>
    <path
      d="M173.15,150.14c20.45-2.43,22.98,28.02,3.75,29.93-20,1.98-22.64-27.68-3.75-29.93Z"
    ></path>
    <path
      d="M22.81,150.14c20.42-2.43,22.99,28.02,3.75,29.93s-22.64-27.68-3.75-29.93Z"
    ></path>
    <path d="M122.29,94.5h-44.57c5.66-23.42,38.91-23.43,44.57,0Z"></path>
    <path
      d="M143.51,20.57l-3.65,1.12-23.05,15.5-12.62-25.6-2.78-1.99c14.72.11,29.13,4.2,42.09,10.97Z"
    ></path>
    <path
      d="M98.59,9.6l-2.3,1.41-13.08,26.17c-7.29-4.32-14.09-10.09-21.29-14.43-1.67-1.01-3.33-2.13-5.41-1.84l9.56-4.76c10.32-4.11,21.4-6.45,32.53-6.55Z"
    ></path>
    <path
      d="M177.47,53.46l-2.73-1.33-28.75,1.87v-4.6c.38-7.16,1.57-14.41,1.78-21.57.03-.88.08-1.92-.09-2.77-.22-1.06-1.22-1.7-1.33-2.73,12.7,7.66,23.41,18.46,31.13,31.13Z"
    ></path>
    <path
      d="M22.89,53.11c7.45-12.64,18.29-23.14,30.77-30.77l-1.33,2.73,1.87,28.75h-4.6c-7.08-.36-14.53-1.57-21.57-1.78-2.18-.07-3.19.2-5.15,1.07Z"
    ></path>
    <path
      d="M35.62,94.5H14.58c-.26,0-1.96-.98-2.28-1.26-3.13-2.67-1.28-8.61-.56-12.19,1.77-8.69,5.02-16.99,9.2-24.76l14.68,38.21Z"
    ></path>
    <path
      d="M164.39,94.5l14.68-38.21c4.18,7.77,7.43,16.07,9.2,24.76.73,3.58,2.57,9.51-.56,12.19-.32.27-2.02,1.26-2.28,1.26h-21.05Z"
    ></path>
    <path
      d="M156.6,147.21v-30.78c10.5,0,18.09,9.97,15.4,20.17-1.17,4.44-2.91,3.28-6.55,4.77-3.33,1.37-6.18,3.46-8.85,5.83Z"
    ></path>
    <path
      d="M43.41,116.43v30.78c-2.67-2.39-5.52-4.45-8.86-5.82-3.67-1.52-5.37-.37-6.54-4.78-2.7-10.21,4.89-20.15,15.4-20.17Z"
    ></path>
    <path
      d="M66.75,94.5h-17.69c.34-5.39,1.93-10.66,4.08-15.57l15.06,8.66c.59.78-1.39,5.54-1.45,6.91Z"
    ></path>
    <path
      d="M105.31,48.87c5.39.34,10.66,1.93,15.57,4.07l-8.66,15.06c-.78.59-5.54-1.39-6.91-1.45v-17.69Z"
    ></path>
    <path
      d="M133.26,94.5l-1.7-6.26.25-.65,15.06-8.66c2.14,4.92,3.73,10.18,4.07,15.57h-17.69Z"
    ></path>
    <path
      d="M94.7,48.87v17.69l-6.26,1.7-.65-.25-8.66-15.07c4.93-2.08,10.17-3.74,15.57-4.07Z"
    ></path>
    <path
      d="M130.24,58.49c1.02-.08,11.16,10.05,11.08,11.08l-15.27,8.97-4.77-5.02,8.97-15.02Z"
    ></path>
    <path
      d="M69.76,58.46l8.97,15.05-4.77,5.04-15.27-8.99c-.08-1.01,10.02-11.1,11.07-11.11Z"
    ></path>
    <polygon points="49.06 64.44 40.93 79.64 34.56 63.37 49.06 64.44"></polygon>
    <path
      d="M165.45,63.37l-6.29,15.82-.78.45c-1.47-5.5-4.58-10.36-7.43-15.21l14.5-1.06Z"
    ></path>
    <polygon points="73.83 43.91 70.28 45.5 64.63 48.86 63.57 36.84 73.83 43.91"
    ></polygon>
    <polygon points="135.37 48.87 126.18 43.74 136.44 36.84 135.37 48.87"
    ></polygon>
    <path
      d="M100.35,27.29l4.96,10.96c-3.47-.55-7.14-.55-10.61,0l4.86-10.51.79-.45Z"
    ></path>
    <path
      d="M96.47,133.41l3.36-12.74c.76-.15.46.32.62.78,1.27,3.79,2.09,8.07,3.09,11.96h-7.07Z"
    ></path>
  </symbol>
  <symbol id="bar" viewBox="0 0 400 400">
    <path
      d="M355.31,53.84c-2.64-3.45-16.16-15.57-19.84-17.18-12.25-5.35-23.64,7.25-33.81,12.92-12.05,6.72-27.83,12.73-41.74,13.37-51.18,2.34-80.63-51.65-138.82-22.84-3.53,1.75-12.41,8.23-15.18,8.6-4.12.54-5.92-10.08-7.27-12.94-2.45-5.18-6.8-8.81-12.55-9.66-5.26-.77-24.09-1.53-29.18-.83-16.44,2.29-13.92,14.34-14.57,26.55-2.16,40.2-.26,80.88.6,121.07,1.82,4.01,4.5,6.98,8.67,8.61,5.49,2.15,25.89,2.91,32.28,2.34,17.8-1.59,11.68-18.46,19.32-28.39,17.09-22.21,50.89,2.4,72.77,4.5,6.15.59,13.09-.43,19.33,0-41.63,35.62-89.46,74.71-112.01,126.12-10.36,23.63-25.95,85.01,13.68,87.78,51.41,3.6,106.97-2.8,158.82,0,8.37-.82,15.83-3.27,18.24-12.19,2.65-9.83-5.78-22.24-8.58-32.08-20.03-70.55,30.03-163.75,67.2-221.87,6.03-9.43,25.37-33.83,25.96-43.13.26-4.04-.86-7.56-3.3-10.75Z"
    />
  </symbol>
  <symbol id="carnival" viewBox="0 0 200 200">
    <path
      d="M189.91,95.43c.72,14.09-2.86,27.86-11.1,39.3-13.46,18.69-36.24,27.18-58.86,22.41-2.62-.55-5.11-1.57-7.76-1.95l-12.06,14.33-13.02-14.32c-3.32.59-6.52,1.75-9.86,2.3-22.13,3.68-44.27-5.6-56.91-24.02-7.64-11.14-10.93-24.54-10.25-38.04,16.63,2.64,31.95-6.44,47.98-8.38s30.43,3.94,41.82,14.3c.61.09,4.34-3.41,5.27-4.09,10.57-7.67,22.92-11.71,36.1-10.24,16.38,1.82,31.78,11.04,48.65,8.42ZM81.38,134.06c.55-8.55-3.68-17.48-11.48-21.36-1.24-.62-5.42-2.17-6.61-2.17h-22.3c-.64,9.36,4.53,18.86,13.51,22.13,1.09.4,4.31,1.4,5.28,1.4h21.6ZM159,110.53h-22.3c-1.19,0-5.37,1.55-6.61,2.17-7.8,3.88-12.03,12.81-11.48,21.36h21.6c.97,0,4.19-1,5.28-1.4,8.91-3.24,14.28-12.81,13.51-22.13Z"
    ></path>
    <path
      d="M99.9,30.5c.9-.13,2.4,1.68,3.08,2.41,12.22,13.13,13.55,34.75,2.77,49.14-.78,1.04-4.66,5.58-5.61,5.67s-3.64-2.87-4.36-3.72c-10.9-12.78-11.84-31.31-2.97-45.44.97-1.55,5.56-7.84,7.08-8.06Z"
    ></path>
    <path
      d="M79.98,78.22c-4.05-.76-8.34-1.88-12.47-2.1-3.48-.19-6.84.49-10.3.29-4.48-9.13-5.49-19.21-2.84-29.07,4.62.47,9.64,2.39,13.68,4.71,1.71.98,8.1,5.38,8.41,7.04.27,1.39-.13,3.38.01,4.9.47,4.9,1.99,9.59,3.51,14.23Z"
    ></path>
    <path
      d="M145.63,47.34c2.65,9.85,1.64,19.94-2.84,29.07-3.46.19-6.82-.47-10.3-.29-4.2.22-8.36,1.32-12.47,2.1,1.52-4.64,3.04-9.33,3.51-14.23.15-1.52-.25-3.52.01-4.9.34-1.78,7.28-6.38,9.12-7.39,3.9-2.14,8.55-3.94,12.98-4.36Z"
    ></path>
  </symbol>
  <symbol id="food" viewBox="0 0 200 200">
    <path
      d="M25.98,9.96l6.66.29,154.9,155.4c9.11,15.51-8.95,31.69-23.33,20.87l-60.7-67.38-8.62,8.27L29.8,62.34c-11.28-12.24-11.61-29.66-6.86-44.87.35-1.12,2.44-7.3,3.04-7.51Z"
    ></path>
    <path
      d="M152.31,10.3c.49-.13.65.05,1,.29.62.42,5.75,5.54,6.16,6.16.22.33.46.56.29,1l-27.95,28.04c-.23.27-.14.43,0,.7.22.43,6.43,6.69,6.88,6.87l28.72-28.31,7.49,7.24-28.47,28.8,7.25,7.19,28.8-28.47,7.19,7.51-39.21,39.27c-5.93,4.87-12.62,5.62-19.96,6.64l-24-23.85c1.07-3.19.96-6.63,1.75-9.87,1.07-4.36,3.5-8.2,6.33-11.61l37.72-37.6Z"
    ></path>
    <path
      d="M65.04,112.67l22.14,22.49-52.64,52.22c-15.73,9.24-32.12-9.08-20.74-23.56l51.25-51.16Z"
    ></path>
  </symbol>
  <symbol id="egypt" viewBox="0 0 200 200">
    <path
      d="M122.84,88.45h35.84v22.49h-44.63l11.24,79.06h-50.6l11.24-79.06h-44.63v-22.49h35.84c-5.31-11.28-14.61-21.53-16.12-34.31-1.68-14.19,4.44-28.33,16.01-36.61,28.91-20.7,67.65,4.18,61.5,39.01-2.04,11.57-10.9,21.42-15.71,31.9ZM111.82,37.27c-12.61-12.46-33.85.96-27.46,18.14l15.46,27.06c.54.13.73-.47.94-.81,3.58-5.55,7.28-12.44,10.53-18.28,4.9-8.81,9.29-17.45.52-26.12Z"
    ></path>
  </symbol>
  <symbol id="fantasy" viewBox="0 0 200 200">
    <path
      d="M170.18,93.08c-.38.41-1.87.85-2.5.92l-28.32.2-18.49,24.89c-.96.48-1.96.27-2.63-.57l-8.4-28.15-27.34-8.01c-2.97-1.46-1.96-3.39.25-5.01l23.06-16.71.21-28.31c.03-2.3,1.66-3.77,3.85-2.64l22.93,16.8,27.35-9.85c2.19-.61,3.84,1.01,3.23,3.23l-9.85,27.35,16.8,22.93c.57.74.48,2.28-.14,2.94Z"
    ></path>
    <path
      d="M101.9,98.1l3.1,10.76-53.62,56.85-.59.2-16.48-16.09c-.56-1.22,1.55-2.79,2.41-3.62,18.05-17.16,36.33-34.1,54.43-51.2l10.76,3.1Z"
    ></path>
    <path
      d="M26.74,155.87l17.39,17.39-12.86,13.68c-12.79,9.73-28.03-5.98-18.03-18.43l13.5-12.63Z"
    ></path>
    <path
      d="M67.34,10.09c1.37-.38,2.36,1.06,3,2.07,1.68,2.65,2.46,9.22,4.13,10.74,2.1,1.91,12.34,2.7,12.69,6.23.37,3.82-11.01,4.73-12.89,6.79s-2.7,12.34-6.23,12.69c-3.82.37-4.73-11.01-6.79-12.89-2.09-1.9-12.35-2.77-12.69-6.23-.37-3.76,11.02-4.74,12.89-6.79,1.98-2.18,2.56-11.68,5.9-12.61Z"
    ></path>
    <path
      d="M170.17,112.92c1.37-.38,2.36,1.06,3,2.07,1.68,2.65,2.46,9.22,4.13,10.74,2.1,1.91,12.34,2.7,12.69,6.23.37,3.82-11.01,4.73-12.89,6.79-1.91,2.1-2.7,12.34-6.23,12.69-3.82.37-4.73-11.01-6.79-12.89s-12.35-2.77-12.69-6.23c-.37-3.76,11.02-4.74,12.89-6.79,1.98-2.18,2.56-11.68,5.9-12.61Z"
    ></path>
    <path
      d="M137.65,10.12c3.01-.49,5.39,1.6,5.72,4.53.23,2.02.27,9.66-.27,11.38-1.25,4.03-7.1,4.37-8.88.58-.74-1.57-.77-11.11-.32-12.99.38-1.57,2.12-3.24,3.75-3.5Z"
    ></path>
    <path
      d="M174.6,56.72c1.97-.36,11.09-.34,12.67.4,4.34,2.03,3.1,8.45-1.55,9.11-2.03.29-10.74.28-12.32-.46-4.15-1.95-3.21-8.25,1.21-9.05Z"
    ></path>
    <path
      d="M181.3,25.47c-.95.88-2.36,2.62-3.41,3.21-4.33,2.44-9.13-2.61-6.4-6.8.59-.9,7.07-7.38,8.02-8.05,2.32-1.64,5.29-1.19,6.85,1.22,2.77,4.3-2.29,7.86-5.06,10.42Z"
    ></path>
  </symbol>
  <symbol id="maya" viewBox="0 0 200 200">
    <path
      d="M82.69,84.26l35.03.3,29.54,98.81c.6,3.21-1.66,6.34-4.99,6.42H57.73c-3.46-.13-5.79-3.36-4.91-6.69l29.27-98.04.61-.8Z"
    ></path>
    <path
      d="M136.82,47.39v26.3h-21.04v-7.19c0-7.63-9.08-14.11-16.32-13.87-6.79.22-15.24,6.74-15.24,13.87v7.19h-21.04v-26.3h-6.49c-.24,0-2.47-1.38-2.79-1.77-2.87-3.45-.55-8.51,3.83-8.77l85.22.04c4.02.76,5.79,5.57,3.16,8.73-.32.39-2.55,1.77-2.79,1.77h-6.49Z"
    ></path>
    <path
      d="M136.82,26.35H63.18v-12.1c0-1.16,2.51-3.7,3.85-3.87l65.08-.17c1.69,0,4.73,2.44,4.73,4.04v12.1Z"
    ></path>
    <path
      d="M185.75,147.34c1.85.33,3.74,2.54,4,4.41.31,2.2.35,10.07,0,12.22-.36,2.29-2.43,4.14-4.7,4.41h-31.18s-6.18-21.05-6.18-21.05h38.05Z"
    ></path>
    <path
      d="M52.3,147.34l-6.18,21.06H14.94c-2.27-.29-4.35-2.13-4.7-4.43-.34-2.15-.3-10.02,0-12.22.13-.89.74-2.21,1.37-2.84.29-.29,2.48-1.58,2.63-1.58h38.05Z"
    ></path>
    <path
      d="M58.62,126.3l-2.81,10.52H21.09v-6.49c0-.15,1.3-2.39,1.57-2.64.22-.2,2.32-1.39,2.46-1.39h33.49Z"
    ></path>
    <path
      d="M178.91,136.82h-34.72l-2.81-10.52h33.49c.14,0,2.25,1.19,2.46,1.39.27.25,1.57,2.49,1.57,2.64v6.49Z"
    ></path>
    <path
      d="M168.39,115.78h-30.51l-2.81-10.52h29.28c1.24,0,4.03,2.92,4.03,4.03v6.49Z"
    ></path>
    <path
      d="M64.93,105.26l-2.81,10.52h-30.51v-6.49c0-.15,1.3-2.39,1.57-2.64.22-.2,2.32-1.39,2.46-1.39h29.28Z"
    ></path>
    <path
      d="M71.24,84.22l-2.81,10.52h-26.3v-6.49c0-.15,1.3-2.39,1.57-2.64.22-.2,2.32-1.39,2.46-1.39h25.08Z"
    ></path>
    <path
      d="M157.87,94.74h-26.3l-2.81-10.52h25.08c.14,0,2.25,1.19,2.46,1.39.27.25,1.57,2.49,1.57,2.64v6.49Z"
    ></path>
    <path
      d="M105.26,73.69h-10.52v-6.49c0-.51,1.28-2.36,1.77-2.78,1.98-1.71,5.29-1.73,7.17.15.29.29,1.58,2.48,1.58,2.63v6.49Z"
    ></path>
  </symbol>
  <symbol id="music" viewBox="0 0 200 200">
    <path
      d="M173.68,113.1v-53.5l-98.15,13.82-.04,87.65c-2.9,28.3-38.65,40.26-57.54,18.3-18.88-21.95-1.86-56.05,26.93-54.21,5.15.33,9.77,2.06,14.35,4.25V32.5c0-1.98,2.85-5.52,4.82-6.16,38.82-6.26,77.96-11.22,116.9-17.05,4.94-.2,8.66,3.04,9.04,7.96v125.81c-1.68,27.35-33.55,41.31-54.41,23.2-20.62-17.9-11-52.27,15.7-56.96,7.9-1.39,15.35.2,22.4,3.8Z"
    ></path>
  </symbol>
  <symbol id="sports" viewBox="0 0 200 200">
    <path
      d="M100.53,122.89c-3.39-16.17-15.9-29.39-31.43-34.64l-32.31-47.07c-5.74-11.33,8.94-21.02,17.19-11.18l50.23,72.88c2.66,5.09-.49,11.31,3.82,16.07-2.76,1.01-5.17,2.11-7.49,3.94ZM40.94,35.15c-1.65,2.17,1.63,5.44,3.31,3.13,1.35-1.85-1.2-4.85-3.31-3.13ZM64.03,68.37c.52-.52.6-1.79.18-2.43-2.43-2.72-15.38-24.36-16.87-24.82-1.82-.56-3.37,1.44-2.19,2.95,5.38,7.12,9.77,16.13,15.28,23.01.84,1.05,2.18,2.7,3.6,1.29Z"
    ></path>
    <path
      d="M157.51,15.28c29.38-2.76,37.47,29.76,29.73,52.63-7.46,22.06-35.92,46.95-58.53,28.86-27.87-22.29-5.33-78.29,28.8-81.49ZM159.02,21.26c-32.15.64-52.36,54.81-24.59,71.67,23.23,14.11,48.91-14.75,50.55-37.05,1.23-16.7-6.84-35-25.96-34.62Z"
    ></path>
    <path
      d="M97.9,130.4c1.29,11.81-3.32,23.86-11.08,32.66l-29.84-29.47,11.14-11.42c8.28,6.78,19.08,10.51,29.79,8.23Z"
    ></path>
    <path
      d="M57.36,89.86c-2.36,10.34,1.15,21.73,8.25,29.46l-11.77,11.42-29.51-29.44c2.07-2.04,4.52-3.87,7.01-5.37,7.74-4.66,17.03-6.91,26.01-6.07Z"
    ></path>
    <path
      d="M10.07,136.78c-.66-11.81,3.2-24.12,11.5-32.63l29.78,29.44-11.44,11.43c-7.96-7.1-19.32-10.52-29.84-8.24Z"
    ></path>
    <path
      d="M50.98,177.32c1.87-10.96-1.33-21.28-8.23-29.79l11.1-11.1,29.78,29.46c.09.4-2.38,2.35-2.87,2.73-4.4,3.38-15.5,8.7-20.96,8.7h-8.82Z"
    ></path>
    <path
      d="M180.1,151.79l-15.52,6.28-41.75-15.27c-.31-.45.31-5.2,1.49-5.25l45.47,3.72,10.3,10.53Z"
    ></path>
    <path
      d="M126.48,124.82l44.44-2.69c4.12,1.16,7.19,4.65,10.68,6.95-4.38,2.79-8.75,6.52-13.7,8.08l-43.19-3.37,1.77-8.98Z"
    ></path>
    <path
      d="M121.55,146.54l41.25,14.86c3.97,2.99,6.03,8.29,9.41,11.97,0,.68-11.85,3.59-13.23,2.73l-38.56-20.74c-1.1-1.21,1.37-6.96,1.13-8.83Z"
    ></path>
    <path
      d="M103.82,159.41c16.75-1.63,19.05,23.93,2.52,25.41-16.96,1.52-19.04-23.81-2.52-25.41Z"
    ></path>
    <path
      d="M97.49,126.61c-9.35,2.2-19.6-.94-26.61-7.28l14.8-14.85c.3-.31.65-.43,1.08-.32.47.12,3.52,4.26,4.02,5.02,3.37,5.15,5.9,11.31,6.71,17.43Z"
    ></path>
    <path
      d="M47.23,176.94c-8.54-1.25-16.65-5.13-22.88-11.07l15.57-15.57c6.41,7.1,9.3,17.23,7.32,26.64Z"
    ></path>
    <path
      d="M13.75,139.89c6.73-.69,14.32,1.26,19.94,4.99.59.39,3.52,2.4,3.4,2.95l-15.51,15.2c-5.99-5.96-9.37-14.11-11.04-22.32.1-.58,2.56-.74,3.22-.81Z"
    ></path>
    <path
      d="M61.35,90.27c.47-.13,4.91,1.02,5.78,1.28,5.99,1.8,11.84,5.29,16.5,9.43l-15.23,15.51c-.75.13-3.48-4.13-3.96-4.98-3.21-5.69-4.98-13.84-3.68-20.32.08-.41.12-.78.6-.92Z"
    ></path>
    <path
      d="M113.29,122.52l-6.02,29.26c-1.84.62-7.65-1.67-7.72-3.54.86-3.06,1.76-6.22,2.1-9.39.25-2.39,0-4.83,0-7.13s-.37-3.87,1.3-5.83c2.27-2.66,7-3.5,10.34-3.36Z"
    ></path>
    <path
      d="M122.68,124.4l-6.18,28.91c-.51.75-5.18-.31-5.42-1l5.98-29.04,5.63,1.13Z"
    ></path>
    <path
      d="M135.81,104.5l-7.19,16.45c-2.57.38-4.92,0-7.45-.32l8.25-18.61,6.39,2.47Z"
    ></path>
    <path
      d="M142.84,172.12c1.32-.21,5.49,2.79,6.85,3.51-2.37,2.23-7.96,6.98-11.17,7.24-2.02.16-7.06-1.97-5.36-4.26.35-.47,9.1-6.39,9.68-6.49Z"
    ></path>
    <path
      d="M139.19,170.18c-1.3.03-3.8,3.2-4.83,2.59l-5.3-8.21c1.01.11,10.46,5.14,10.13,5.62Z"
    ></path>
    <polygon
      points="159.08 76.35 155.69 84.6 145.58 80.46 148.96 72.23 159.08 76.35"
    ></polygon>
    <polygon
      points="175.22 41.45 171.84 49.7 161.72 45.55 165.12 37.34 175.22 41.45"
    ></polygon>
    <path
      d="M145.95,70.35l-3.76,8.25-9.73-4.15c-.67-.79,3.27-7.15,3.36-8.61l10.13,4.51Z"
    ></path>
    <polygon
      points="151.2 58.71 147.22 66.94 137.72 62.24 141.31 54.55 151.2 58.71"
    ></polygon>
    <path
      d="M153.07,55.33c-1.32-.38-10.04-4.12-10.08-4.68l3.89-8.04,9.57,4.68-3.37,8.05Z"
    ></path>
    <polygon
      points="164.31 64.74 160.93 72.95 150.82 68.84 154.8 60.63 164.31 64.74"
    ></polygon>
    <path
      d="M169.55,53.12c.48.76-2.78,7.18-3.58,8.18l-9.49-4.13,3.38-8.2,9.68,4.15Z"
    ></path>
    <path
      d="M158.33,43.69l-10.09-4.68,3.72-8.08c1.23.89,9.5,3.99,9.72,4.75l-3.35,8.01Z"
    ></path>
    <path
      d="M176.72,70.35c.34.46-3.84,7.63-4.74,7.81l-7.6-3.54,3.33-8.03,9,3.76Z"
    ></path>
    <polygon
      points="137.68 52.35 134.3 60.96 126.23 57.22 129.24 48.58 137.68 52.35"
    ></polygon>
    <polygon points="178.6 66.97 169.6 63 173.33 55.12 180.79 58.55 178.6 66.97"
    ></polygon>
    <path
      d="M139.56,49.32l-8.62-3.77c-.56-.79,3.8-7.07,5.05-7.74l7.29,3.43-3.72,8.08Z"
    ></path>
    <path
      d="M132.19,86.35c-.51-.52-1.53-1.77-1.94-2.37-2.14-3.11-1.16-3.26.5-6.5l9.41,4.49-3.4,7.87c-.35.02-4.06-2.98-4.56-3.5Z"
    ></path>
    <path
      d="M153.83,87.99c-.5,1.41-1.3,4.06-2.9,4.42-1.31.29-9.98.03-10.62-.67l3.6-7.91,9.91,4.16Z"
    ></path>
    <path
      d="M177.06,38.03l-10.1-4.1,2.62-5.84c.58-.37,3.04,1.63,3.57,2.1,1.05.94,4.32,4.77,4.53,5.96.11.61-.52,1.25-.61,1.88Z"
    ></path>
    <path d="M166.22,26.05l-2.85,5.97-9.56-4.32c-.7-4.09,10.23-2.4,12.41-1.65Z"
    ></path>
    <path
      d="M169.59,81.23c.29.38-6.21,6.07-7.03,6.31-1.5.44-2.47-.86-3.86-1.07l3.96-8.24,6.92,3Z"
    ></path>
    <path
      d="M125.3,71.09v-9.76c1.12-.02,6.96,2.59,7.1,3.23l-3.72,7.87-3.39-1.34Z"
    ></path>
    <path
      d="M138.82,35.05c-.16-.57.16-.62.37-.94.73-1.07,6.54-5.41,7.7-5.41s1.77.62,1.4,1.73c-.25.76-3.25,7.18-3.65,7.21l-5.82-2.59Z"
    ></path>
    <path
      d="M181.23,54.2l-6.38-2.63,3.74-8.09c1.78-.46,2.64,2.06,2.64,3.41v7.32Z"
    ></path>
  </symbol>
  <symbol id="historical-figures" viewBox="0 0 200 200">
    <path
      d="M41.14,121.02c.08-.98-.13-2.04,0-3.01.81-5.9,4.45-14.54,9.48-18.04,6.1-4.23,13.92-2.7,19.4-5.58,2.89-1.52,5.59-6.65,8.78-8.31,4.51-1.24,16.57,12.05,21.75,13.64,3.9-2.26,16.34-14.14,19.91-13.82,2.93.26,6.8,7.02,9.61,8.49,3.72,1.95,10.42,1.83,14.7,3.28,9.92,3.35,12.48,12.49,14.13,21.94l-.4,1.39c-14.94,10.26-24.91,26.19-40.52,35.54l-35.2.33c-16.24-9.1-25.97-26-41.65-35.85Z"
    />
    <path
      d="M122.74,19.12c1.42,1.13,3.93,8.29,4.18,10.32.58,4.84-1.48,8.99-1.02,12.96.26,2.25,2.44,1.6,2.95,3.1,1,2.92.14,12.27-2.34,14.43-1.58,1.37-3.85.52-4.62,1.57-1.06,1.45-.74,6-1.55,8.26-3.75,10.55-12.24,15.55-20.67,22.14l-15.12-11.95c-.79-2.74-3.86-16.7-4.96-18.07s-3.08-.52-4.26-1.22c-2.9-1.73-5.16-11.68-4.27-15.07.27-1.05,2.39-.96,2.86-2.32.91-2.61-.16-8.53.16-11.89,1.6-16.34,22.6-25.77,37.22-19.34,4.19,1.85,3.88,4.04,5.75,5.24,1.64,1.06,4.03.53,5.67,1.84Z"
    />
    <path
      d="M124.87,176.26c-.2,2.89,1.5,12.76-1.5,13.74l-47.35-.3-.98-12.92c.23-.99,1.94-1.25,2.76-1.4,8.64-1.53,32.35-1,41.76-.32,1.85.13,3.65.32,5.31,1.19Z"
    />
    <path
      d="M80.08,171.11c1.65-3.11,2.31-6.48,1.99-10.02l35.38-.03,2.56,10.06h-39.94Z"
    />
  </symbol>
  <symbol id="myths" viewBox="0 0 200 200">
    <path
      d="M90.32,53.37c-3.37-.5-6.87-.24-10.15.69-1.08.31-2.08.92-3.01,1.2-.29.09-.37-.02-.31-.31l23.36-44.95,23.16,45.16-7.71-1.97-5.97.18v75.37c6.32-.5,12.56-.21,18.74,1.26,1-15.53,3.72-30.91,8.84-45.58,3.09-8.86,7.16-17.34,11.35-25.72.04-.44-1.18-.79-1.55-.92-1.68-.57-3.49-.74-5.27-.62-.35.02-4.41.82-4.32.53,4.33-5.38,9.53-10.21,15.51-13.75,9.3-5.5,20.23-7.93,31.01-8.04-19.7,23.52-32.71,51.32-38.04,81.64-1.86,10.59-2.94,21.49-3.01,32.25-3.76-.66-7.39-1.87-11.12-2.67-7.28-1.57-14.68-2.36-22.15-2.17v45.05h-19.37v-45.05l-9.37.21c-4,.42-7.96.97-11.9,1.79s-7.96,2.17-12,2.84c.26-.86.25-1.75.22-2.64-.93-25.41-6.24-50.9-17.09-73.86-6.36-13.46-14.72-25.94-24.18-37.4,11.78.08,23.67,2.98,33.5,9.55,5.03,3.36,9.33,7.66,13.23,12.24-1.42.17-2.89-.43-4.32-.52-2.4-.16-4.95.16-7.05,1.36,4.11,8.15,8.08,16.43,11.16,25.05,5.32,14.88,8.18,30.64,9.05,46.43,6.18-1.43,12.41-1.77,18.74-1.26V53.37Z"
    />
  </symbol>
  <symbol id="vlt" viewBox="0 0 200 200">
    <path
      d="M177.1,29.31v11.94s-32.17,3.79-32.17,3.79c-7.45,14.26-12.14,31.23-6.32,46.68,85.09,9.26,47.73,130.18-30.35,90.16,18.78-29.99,18.77-53.73,0-83.71l17.89-6.21c-5.39-12.82-.99-22.83.03-35.73-19.53,10.78-35.05,15.12-44.84,37.44,38.05,14.58,41.93,73.37,4.14,90.92-55.71,25.87-99.22-47.61-53.53-83.46,17.51-13.74,39.28-2.8,49.33-28.5,2.25-5.75-2.27-3.79-4.38-4.46-17.57-5.61-30.8-12.11-45.08-23.85-3.82-4.63,1.69-7.73,4.56-10.59C66.15,4.08,109.76.93,140.01,31.6l37.08-2.29ZM96.27,143.04l-26.64,22.71-6.25,10.18c17.44,1.62,34.53-15.44,32.89-32.89ZM171.08,143.04l-32.89,32.89c19.3.35,36.1-12.24,32.89-32.89Z"
    />
  </symbol>
  <symbol id="new" viewBox="0 0 400 400"
    ><path
      d="M196.62,285.36c-7.63-8.46-20.26-13.88-27.96-22.82-6.06-6.62-11.77-16.36-16.2-21.33-2.16-2.4-4.85-5.17-8.26-4.47-4.29,1.18-7.56,6.24-10.63,10.3-5.43,7.63-10.88,15.94-18.46,21.75-6.33,5.04-13.44,9.45-17.75,13.21-1.82,1.59-3.66,3.37-4.5,5.55-1.83,5.79,5.28,9.8,9.74,13.38,6.93,5.02,14.66,9.95,20.28,16.61,6.45,6.49,16.09,26.57,23.39,24.77,4.52-1.21,7.93-6.73,11.14-11.02,3.21-4.51,6.52-9.49,10.22-13.74,6.67-8.12,19.56-15.25,26.13-20.97,3.44-2.81,6.4-7.09,2.93-11.11l-.08-.1Z"
    /><path
      d="M202.07,116.85c-6.3-5.03-17.59-7.81-25.62-11-25.43-9.82-46.42-31.1-55.86-56.68-3.39-7.73-10.53-39.07-20.05-20.05-3.04,5.75-5.51,13.92-7.97,20.45-11.05,29.97-37.22,51.99-67.61,60.64-5.28,2.08-15.3,5.44-15.44,10.33.12,1.95,2.28,3.91,5.99,5.87,2.68,1.42,6.14,2.85,9.91,4.22,30.15,8.53,56.47,30.85,67.28,60.61,2.38,6.4,4.69,14.06,7.64,19.82,4.4,8.85,8.49,8.46,12.7.02,2.94-5.72,5.3-13.45,7.7-19.82,9.79-26.1,31.49-47.7,57.7-57.2,5.6-2.53,32.92-9.05,23.7-17.13l-.08-.07Z"
    /><path
      d="M368.49,205.44c-5.09-4.42-14.44-7.51-21.19-10.41-19.92-8.03-36.53-24.26-44.87-44.03-2.71-6.25-5.45-13.99-8.8-19.46-4.65-7.68-8.44-5.69-12.46,1.8-2.2,4.04-4.34,9.43-6.21,14.04-9.54,25.88-30.55,43.01-56.18,51.74-4.9,2.36-13.05,5.23-13.3,10.05.62,4.53,9.49,7.93,14.44,10.17,24.95,8.36,46.21,26.67,55.19,51.77,2.1,5.22,4.69,11.74,7.38,15.96,4.76,7.52,8.44,4.75,12.39-2.76,1.81-3.42,3.64-7.86,5.46-12.41,8.73-24.93,29.72-43.89,54.55-52.2,5.13-2.47,20.59-7.56,13.68-14.17l-.08-.08Z"
    /></symbol
  >
  <symbol id="hot" viewBox="0 0 400 400"
    ><path
      d="M228.26,25c-1.26,10.7-6.24,23.86-6.2,34.39.13,37.23,92.48,119.68,110.07,168.26,24.62,68-10.16,127.09-76.97,147.35,25.56-27.38,37.41-55.33,21.48-91.79-2.47-5.65-21.42-35.31-27.42-30.84-1.62,10.51-12.42,38.6-22.95,41.44-8.38,2.26-11.84-5.06-9.37-12.31,30.64-45.33-5.9-88.68-48.37-106.91,7.26,19.81,22.24,28.41,17.76,52.21-5.18,27.49-62.26,43.36-68.3,87.16-2.31,16.78-.99,38.25,11.67,50.62-5.78,1.9-19.43-8.71-25.32-13.54-28.96-23.79-52.07-66.3-42-104.75,3.39-12.92,23.08-33.74,30.03-47.72,15.4-31,10.8-48.17-10.5-74.82,16.77-1.06,30.67-.94,44.79,8.94.99-57.84,41.76-107.94,101.61-107.68Z"
    /></symbol
  >
  <symbol id="ireland" viewBox="0 0 200 200">
    <path
      d="M188.59,56.68c1.1-2.76-1.29-5.39-4.07-5.29-3.57.12-7.74,3.8-10.4,5.96l2.86-4.38c1.67-2.9,3.08-7.01.19-9.64-2.85-2.61-6.2-.29-6.86,2.98-2.02-4.78-8.79-2.63-7.46,2.54.81,3.15,4.5,5.81,6.8,7.89-4.81-1.88-10.25-.82-14.11,2.54-.98.86-1.69,1.92-2.57,2.79-.07.09.01.3-.34.2,1.16-11.01,6.56-20.78,10-31.1,2.32-6.96,2.09-9.39-4.68-12.78-29.61-14.82-66.74-9.05-93.08,9.75-2.73,1.94-7.17,4.54-6.11,8.44.67,2.47,4.3,7.37,5.74,9.92,2.28,4.05,4.36,8.17,5.48,12.71,2.2,8.89,1.78,18.49,1.67,27.59-4.33,10.26-14.72,14.68-24.89,17.18-2.28.55-5.42.87-7.5,1.61-1.82.65-.78,3.06-.11,4.3,2.74,5.07,9.66,6.74,14.98,7.4,6.11.76,11.93.49,17.96-.72-1.01,5.96-1.82,12-3.03,17.93-.27,1.38-.57,2.8-.9,4.17-.17.71-.5,2.37-.81,2.91-.29.52-1.73,1.22-2.32,1.42-5.98,2.12-14.88,3.05-21.23,3.24-1.17.04-3.06.34-2.89-1.39.1-1.01,1.48-3,1.86-4.27,1.27-4.36.66-9.28-1.54-13.22-.46-.83-1.36-2.5-2.33-2.59l-23.8.09c-3.69,4.18-4.98,10.21-3.18,15.55,4,11.84,15.4,17.33,27.39,15.98,8.63-.98,16.71-4.42,24.85-7.15,1.26,5.49-3.98,10.9-.64,16.08,1.63,2.52,4.74,4.31,7.4,5.58,9.61,4.61,20.38,8.84,30.46,12.36,13.01,4.54,27.43,9.51,41.17,4.92,12.79-4.27,25.11-16.4,33.25-26.87,6.43-8.26,7.33-13.35,3.1-23.06-3.96-9.09-8.89-17.44-13.52-26.15-1.66-3.1-3.29-6.28-4.69-9.46,4.74-.92,9.54-3.55,13.34-6.5,1.74-1.34,6.77-5.63,7.08-7.68.34-2.19-.61-3.19-2.64-3.61-5.65-1.15-12.45-.98-18.28-1.86-1.64-.24-3.59-.71-4.78-1.93-2.18-2.23-3.11-10.11-3.09-13.17.02-1.63,2.04-4.46,3.14-5.68,3.75-4.18,9.99-5.96,14.92-2.69-3.76,1.99-9.99,4.63-9.03,9.92.71,3.93,5.29,4,7.55,1.34-.36,5.62,7.35,6.26,7.89.66.36-3.54-1.25-7.15-2.53-10.36,2.83,3.1,6.74,7.73,11.48,6.04,4.03-1.44,3.27-6.35-.3-7.76,1.37-.49,2.59-1.27,3.14-2.68ZM159.92,141.96c-3.13,8.03-8.67,10.6-17.15,9.16-5.44-.91-7.73-3.59-12.25-5.65-3.16-1.43-5.09.7-7.81,1.95-11.27,5.19-27.19,7.42-37.13-1.69-.51-.46-1.11-.92-1.41-1.57,3.5-1.36,6.75-3.42,10.2-4.96,5.44-2.43,12.36-4.32,18.37-4,4,.21,6.75.65,10.87.12,7.05-.88,22.57-4.64,21.88-13.93-.21-2.83-2.6-4.28-4.99-2.45-2,1.53-.29,3.45-2.17,5.3-4.3,4.23-17.02,5.75-22.89,6.65-11.74,1.81-23.45,4.21-34.54,8.48l-.44-4.11.14-.87c-.06-6.61,1.52-13.14,1.94-19.7.1-1.66-.19-3.36.21-5.01,8.22-6.54,17.74-11.12,27.94-13.67,12.41-3.11,25.71-2.22,37.7,2.19.47,4.61,2.35,9.25,4.32,13.42,4.97,10.56,12.04,17.87,7.2,30.32ZM156.94,84.9c5.7,1.58,11.67,1.81,17.53,2.45l.25.21c-.02.17-.09.34-.2.47-.61.68-1.93.41-2.71.49-7.3.76-15.03,1.17-22.36,1.36-4.43.1-9.04-.25-13.44-.01-4.07.22-8.42.83-12.53,1.2-16.52,1.43-31.69,2.71-47.63,7.72-9.71,3.05-16.55,8.84-27.26,9.72-1.31.11-4.16.3-5.38.16-.41-.05-.86-.21-.97-.67.06-.42.42-.5.77-.59,2.1-.52,4.67-.71,6.87-1.18,6.74-1.42,13.6-3.47,19.26-7.43,6.94-4.86,11.59-9.82,19.69-13.42,4.35-1.94,8.97-2.79,13.46-4.27,3.09,5.73,9.84,2.28,14.68,1.38,6.24-1.16,10.77-.76,16.93-.66,2.12.02,4.18-.8,5.02-2.83,6.3.83,11.94,4.22,18.01,5.9ZM103.13,72.79c.3-1.78,4.15-2.02,5.29-1.12,1.41,1.08.09,3.45,2.1,4.74.96.61,2.59.55,3.71.47,2.18-.16,3.79-.55,6.11-.6,2.54-.04,8.39.35,8.74-3.2.22-2.39-.2-10.21-1.13-12.31-.25-.57-.61-1-1.23-1.16-1.66-.44-5.78.41-7.72.56-2.44.2-8.03.07-10.02,1.17-1.99,1.08.1,3.11-1.31,4.05-.98.67-3.23.88-4.25.22-.88-.57-1.89-2.54-1.94-3.59-.15-2.43,2.75-2.74,4.57-3.03,6.51-1.06,13.1-1.86,19.71-2.07,2.08-.06,5.18-.41,6.87.95,2.02,1.61,1.59,6.36,1.81,8.78.26,2.8.8,5.88.9,8.65.04,1.13.15,2.12-1,2.73-1.74.92-4.83.26-6.84.32-6.46.22-13.21,1.88-19.69,2.4-1.68-.07-2.71-.4-3.36-2.02-.49-1.22-1.52-4.78-1.33-5.96ZM102.07,69.93c-.34-1.13-.25-1.69.87-2.1,1.91-.7,5.53-.82,7.42-.04.15.06.86.41.92.49.56.57-.25.8-.7.93-1.39.42-4.36.76-5.91.95-.51.06-2.32.21-2.6-.22ZM147.76,58.06c-.19.97-.29,4.47-1.03,4.94-.54.35-2.5-.05-3.22-.17-1.91-.35-3.8-.96-5.72-1.29-.29-.24-.3-1.89-.4-2.43-1.32-6.84-7.61-5.57-12.86-5.19-5.91.42-12.33.97-18.18,1.81-2.27.34-5.24.55-6.91,2.28-1.38,1.42-1.54,3.72-.97,5.54l-.11.15c-3.79,1.06-7.31,2.88-10.7,4.82-2.25,1.3-4.97,2.88-6.92,4.57-.76.66-1.46,1.63-2.23,2.24-.16.12-.19.34-.37.07-.35-9.35-1.42-19.08-6.08-27.34-.7-1.23-1.58-2.54-2.38-3.74-1.17-1.72-4.53-5.57-5.01-7.22-.34-1.23-.19-1.98.44-3.06,1.03-1.78,4.53-3.97,6.34-5.14,18.65-12.07,43.01-17.21,64.96-13.11,5.27.98,16.97,3.67,20.26,7.93,1.78,2.29.97,4.74.26,7.27-1.21,4.25-2.95,8.82-4.43,13.02-1.62,4.59-3.85,9.23-4.73,14.06Z"
    />
    <path
      d="M156.93,30.98c-1.21,4.25-2.95,8.82-4.43,13.02-1.62,4.59-3.85,9.23-4.73,14.06-.19.97-.29,4.47-1.03,4.94-.54.35-2.5-.05-3.22-.17-1.91-.35-3.8-.96-5.72-1.29-.29-.24-.3-1.89-.4-2.43-1.32-6.84-7.61-5.57-12.86-5.19-5.91.42-12.33.97-18.18,1.81-2.27.34-5.24.55-6.91,2.28-1.38,1.42-1.54,3.72-.97,5.54l-.11.15c-3.79,1.06-7.31,2.88-10.7,4.82-2.25,1.3-4.97,2.88-6.92,4.57-.76.66-1.46,1.63-2.23,2.24-.16.12-.19.34-.37.07-.35-9.35-1.42-19.08-6.08-27.34-.7-1.23-1.58-2.54-2.38-3.74-1.17-1.72-4.53-5.57-5.01-7.22-.34-1.23-.19-1.98.44-3.06,1.03-1.78,4.53-3.97,6.34-5.14,18.65-12.07,43.01-17.21,64.96-13.11,5.27.98,16.97,3.67,20.26,7.93,1.78,2.29.97,4.74.26,7.27Z"
    />
    <path
      d="M134.39,116.32c2.28,2.01,1.03,4.82-1.25,6.18-4.83,2.9-12.48,3.72-17.98,2.97-1.79-.24-6.96-1.49-8.18-2.71-1.05-1.05-.86-2.71.38-3.51,1.12-.73,2.71.06,3.92.26,6.13.97,10.86.53,16.58-1.83,1.92-.79,4.66-3,6.52-1.36Z"
    />
  </symbol>
  <symbol id="traditions" viewBox="0 0 200 200">
    <path
      d="M139.32,60.69c-6.58-.6-18.91-2.79-19.65-11.1-.8-9,8.5-13.21,15.33-16.35-1.29-6.57-3.18-16.53,2.95-21.27,7.6-5.89,16.93,2.88,21.67,8.56,6.23-3.44,17.47-9.21,23.15-2.06,5.23,6.58-.08,15.69-3.3,21.93,5.5,4.55,13.98,13.52,9.03,21.07-4.4,6.73-15.07,4.93-21.75,3.56-3.15,6.96-7.52,16.34-16.67,15.3-7.97-.91-10.17-13.23-10.77-19.63ZM154.37,38.93c-2.96.67-3.95,4.2-3.18,6.89,1.6,5.56,11.84,4.04,9.79-3.82-.73-2.78-4.09-3.65-6.61-3.08Z"
    />
    <path
      d="M66.19,68.45c1.09-.11,1.8.08,2.78.56,21.1,20.16,41.87,40.93,62.03,62.03,2.08,4.81-1.51,6.57-5.1,8.39-6.92,3.51-14.27,6.41-21.33,9.61l-53.62-53.97,11.03-23.77c.97-1.54,2.36-2.66,4.21-2.84Z"
    />
    <path
      d="M63.8,168.17l-47.35,21.71c-3.56.74-6.92-2.44-6.4-6.04l21.77-47.64,31.98,31.97Z"
    />
    <polygon
      points="94.38 154.12 74.7 163.12 73.81 162.94 36.9 126 45.89 105.63 94.38 154.12"
    />
    <path
      d="M87.61,16.45c4.45-.93,7.54,3.52,8.8,7.21,2.17,6.35.44,11.91-3.77,16.79-2.09,2.43-8.52,7.34-8.81,10.18-.39,3.77,1.88,3.94,2.59,6.21,1.96,6.26-5.08,10.2-9.75,4.48-5.19-6.35-4.27-14.84.84-20.89,1.83-2.17,8.19-7.31,8.88-9.4,1.67-5.09-3.08-5.58-2.55-10.28.21-1.84,1.96-3.92,3.78-4.3Z"
    />
    <path
      d="M168.1,102.91c4.79-.65,11.08.62,14.29,4.5s.06,9.57-5.23,8.74c-2.92-.46-3.23-3.86-7.94-2.62-2.35.62-8.6,8.53-11.62,10.52-5.76,3.81-13.51,3.72-18.92-.7-3.11-2.55-4.37-7.15-.28-9.35,5.76-3.1,7.88,5.37,13.61.96,5.19-3.99,8.66-11.03,16.07-12.04Z"
    />
    <path
      d="M100.12,62.52c5.19-5.19,10.69,2.89,11.73,7.53,1.11,4.96-.49,12.61-5,15.54-3,1.95-7.6.22-8.18-3.43-.63-4.02,2.99-4.99,3.1-8.36s-6.11-6.83-1.65-11.29Z"
    />
    <path
      d="M137.49,99.88c-.89.89-2.95,1.63-4.23,1.51-3.85-.37-4.59-5.03-9.73-2.29-1.04.56-1.53,1.43-2.69,1.88-5.81,2.23-9.93-4.76-4.85-9.42s12.31-4.94,17.99-1.81c3.66,2.02,7.36,6.28,3.51,10.13Z"
    />
    <path
      d="M106.59,42.45c5.61-.89,8.85,6.28,3.93,9.56-7.28,4.85-11.84-8.31-3.93-9.56Z"
    />
    <path
      d="M151.58,87.08c7.61-1.1,8.36,11.83-.42,10.44-5.55-.88-5.26-9.62.42-10.44Z"
    />
    <path
      d="M62.87,32.76c-4.69-4.69,2.22-12.29,7.44-7.62,5.1,4.56-2.32,12.74-7.44,7.62Z"
    />
    <path
      d="M174.74,137.13c-4.73,4.73-12.38-2.41-7.61-7.43s12.55,2.49,7.61,7.43Z"
    />
  </symbol>
  <symbol id="sci-fi" viewBox="0 0 200 200">
    <path
      d="M105.27,10v14.41c26.59,1.31,50.88,21.91,57.96,47.31,2.1,7.54,4.65,22.77,4.96,30.54.63,15.64-11.11,29.5-26.59,31.43l-82.56.06c-13.18-1.12-24.69-12.22-26.82-25.2-1.23-7.48,1.71-23.2,3.22-31.13,5.44-28.39,30.18-51.32,59.28-53.02v-14.41h10.54ZM72.51,58.96c-34.86,5.05-33.57,55.76,2.72,58.26,16.31-.82,33.72,1.11,49.9,0,37.65-2.59,36.45-55.69,1.77-58.37-17.47-1.35-36.74.96-54.39.11Z"
    />
    <path
      d="M48.61,144.4l102.17-.09c9.53.56,9.22,13.54-.33,13.72l-101.22-.02c-8.92-.34-9.5-12.64-.61-13.61Z"
    />
    <path
      d="M82.78,168.55v21.45H26.2v-8.61c0-4.94,7.13-12.83,12.13-12.83h44.46Z"
    />
    <path
      d="M173.8,190h-56.58v-21.45h44.46c4.95,0,12.13,7.94,12.13,12.83v8.61Z"
    />
    <rect x="93.32" y="168.55" width="13.36" height="21.45" />
    <path
      d="M73.21,69.51c17.17.84,36-1.46,52.98-.11,20.91,1.66,22.61,33.15,1.34,36.88-16.7-.14-35.02,1.55-51.63.42-23.16-1.58-24.71-32.99-2.7-37.18ZM83.13,82.77h-10.54v10.02l.53.53h10.02v-10.55ZM127.41,82.77h-10.54v10.55h10.02l.53-.53v-10.02Z"
    />
  </symbol>
  <symbol id="war" viewBox="0 0 200 200">
    <polygon
      points="11.09 10.41 54.48 20.69 138.37 111.74 112.61 138.27 21.13 54.05 11.09 10.41"
    />
    <path
      d="M132.16,96l-27.62-30.9,40.86-44.41,43.4-10.28-9.88,43.4c-14.05,12.58-27.48,25.91-41.58,38.44-.75.67-3.58,3.37-4.03,3.61-.35.19-.78.36-1.15.15Z"
    />
    <path
      d="M51.56,166.28c-5.58,5.67-18.86,20.22-25.48,22.57-12.22,4.34-21.59-11.45-12.34-20.79l31.73-32.2,17.86,17.94c-3.76,4.15-7.79,8.42-11.77,12.47Z"
    />
    <path
      d="M186.25,185.98c-6.14,6.12-13.6,3.64-19.37-1.46l-30.17-30.17.2-1.01,17.51-17.47,29.96,29.94c5.28,6.16,8.54,13.51,1.86,20.17Z"
    />
    <path
      d="M40.33,105c2.01-.33,4.06.16,5.75,1.29l47.02,47.07c4.94,6.9-3.27,15.12-10.25,10.66l-47.24-47.25c-3.12-4.24-.58-10.91,4.72-11.76Z"
    />
    <path
      d="M156.93,105c6.69-1.08,11,6.25,7.34,11.76l-47.24,47.25c-7,4.49-15.15-3.8-10.25-10.66l46.63-46.65c.93-.75,2.35-1.51,3.52-1.7Z"
    />
    <path
      d="M67.25,105.74l27.86,25.09-7.83,7.43-25.75-25.72c-.44-.97,5.05-5.6,5.72-6.81Z"
    />
  </symbol>
  <symbol id="art" viewBox="0 0 200 200">
    <path
      d="M120.25,115.19v70.05c-8.68-8.74-20.71-13.21-32.88-14.32-2.48-.23-7.31.18-9.18-1.01-.71-.45-1.58-1.48-1.85-2.28-.29-14.94-.37-29.96-.29-44.96.04-8.17.13-16.34.26-24.48.56-1.79,2.19-3.11,4.09-3.21,10.52-.55,24.58,3.52,32.56,10.5,1.83,1.6,7.28,7.41,7.28,9.71Z"
    />
    <path
      d="M127.04,185.23v-70.04c0-2.31,5.44-8.11,7.28-9.71,8.09-7.08,21.74-10.87,32.36-10.54,1.91.06,3.77,1.39,4.3,3.25.37,23.08.42,46.35-.02,69.44-.44,1.33-2.01,2.66-3.37,2.94-2.03.42-5.35.14-7.66.35-12.16,1.12-24.21,5.58-32.88,14.32Z"
    />
    <path
      d="M113.69,188.75c-2.01-.17-3.98-.75-5.98-1.05-9.95-1.5-20.55-1.17-30.5.24-3.22.45-8.28,2.01-11.2,2.01-2.56,0-4.28-1.86-4.5-4.35l.16-62.94.02-9.01c.01-1.09,2.24-3.2,3.11-3.2h4.49v57.66c0,2.07,2.81,5.92,4.49,7.16,3.87,2.87,7.91,2.03,12.37,2.43,9.88.89,20.29,4.09,27.54,11.04Z"
    />
    <path
      d="M182.49,110.45c1.22.25,2.88,1.92,3.11,3.2l.18,71.95c-.16,2.32-1.92,4.3-4.29,4.39-2.6.09-8.36-1.63-11.4-2.06-9.93-1.41-20.57-1.73-30.5-.24-2,.3-3.97.88-5.98,1.05,6.55-6.33,16.19-9.7,25.14-10.78,6.34-.76,12.92.77,17.18-5.15.62-.86,2.08-3.77,2.08-4.71v-57.66c1.32.18,3.26-.25,4.49,0Z"
    />
    <path
      d="M120.19,115.19v1.89c-1.98,1.47-4.66,1.97-7.33,1.11-5.97-3.59-11.04-8.53-16.76-12.5v6.92c0,4.42-5.89,9.93-10.35,10.05h-9.79c.04-8.16.13-16.33.26-24.47.56-1.79,2.19-3.11,4.09-3.21,10.53-.55,24.6,3.52,32.59,10.5,1.84,1.6,7.28,7.41,7.28,9.71Z"
    />
    <path
      d="M64.7,110.45h4.49v12.21h-7.63s.02-9.01.02-9.01c.01-1.09,2.25-3.2,3.11-3.2Z"
    />
    <path
      d="M123.3,111.4c-.02.19-.04.39-.07.58-.62-1.26-1.6-2.68-2.98-4.37-1.75-2.14-3.71-4.12-4.78-5.06-7.75-6.78-21.41-11.51-33.22-11.51-.72,0-1.44.02-2.13.05-3.49.18-6.55,2.57-7.61,5.93l-.17.54v.56c-.06,2.84-.09,5.66-.13,8.44h-7.51c-3.1,0-6.96,3.89-7,7.05l-.02,9.06-32.36.02c-5.86-.57-10.39-5.13-10.81-11.05-.92-13.13.71-27.32.01-40.56.65-5.66,5.12-10.05,10.79-10.57h60.22c4.53.04,10.56,5.59,10.56,10.09v6.92l14.73-11.37c5.22-3.68,12.01-.52,12.47,5.89.92,12.72-.72,26.52,0,39.36Z"
    />
    <path
      d="M72.75,10.09c16.81-1.49,28.76,16.11,20.97,31.17-7.15,13.85-26.74,15.53-36.08,2.97-9.95-13.39-1.48-32.68,15.1-34.14Z"
    />
    <path
      d="M28.32,21.74c21.06-2.14,23.33,29.46,3.08,31.01s-22.83-29-3.08-31.01Z"
    />
  </symbol>
  <symbol id="pirates" viewBox="0 0 200 200">
    <path
      d="M41.86,13.3c5.39,5.39,4.11,14.1,4.17,20.97l11.25,11.25c12.76-13.87,33.37-16.55,51.29-14.01,11.79,1.67,23.57,7,31.16,16.31l.51.15,13.73-13.71c.22-4.29-.46-8.06.23-12.43,2.56-16.18,22.6-15.6,23.53.46,13.65.05,17.17,17.68,4.09,22.59-5.28,1.98-10.63.97-16.05,1.17l-17.16,17.27c1.95,6.63,3.2,13.77,3.1,20.72-.13,9.62-3.86,18.31-3.18,28.11.43,6.19,2.57,6.15,4.63,10.84,2.28,5.18,2.07,12.16-2.16,16.24l14.76,14.76c4.98.11,9.48-.58,14.48.64,14.37,3.49,12.21,23.04-2.53,23.1.02,13.69-17.66,17.19-22.57,4.11-1.99-5.32-1.03-10.61-1.17-16.06l-23.19-22.86c-4.17,1.71-5.04,7.45-5.46,11.43-.14,1.36.13,2.84,0,4.21-.29,2.87-2.34,10.27-5.52,11.01-6.89,1.59-5.13-9.53-6.18-13.37s-2.81-1.14-3.34,1.4c-.68,3.3.29,10.94-3.93,12.24-5.48,1.7-6.49-4.99-7.3-8.91-.43-2.1.01-5.83-2.04-6.77-2.04,0-2.08,6.81-2.4,8.52-.75,4.03-1.57,8.08-6.59,6.46s-1.81-11.62-4.18-14.1c-3.02-3.16-3.02,6.61-3.28,8.01-.27,1.48-1.25,5.14-2.39,6.05-1.63,1.31-4.69.33-5.96-1.13-2.4-2.77-2.42-11.51-3.32-15.57-.2-.92-1.84-7.02-2.47-7.01l-20.39,20.4c-.17,4.99.68,9.79-.7,14.77-3.91,14.12-22.73,11.79-23.1-2.75-3.78-.4-7.57-1.44-9.92-4.67-4.73-6.48-1.82-14.86,5.34-17.81,5.34-2.2,11.08-1.17,16.6-1.33l13.01-13.01c-6.92-3.25-9.19-9.96-6.49-17.05,1.19-3.12,3.93-5.22,5.15-8.21,2.66-6.52.33-9.81-1.01-16-2.09-9.66-2.87-21.59-.51-31.23.76-3.13,2.24-5.96,3.16-9.02l-13.32-13.43c-5.16-.22-10.2.76-15.31-.87-13.75-4.37-10.83-22.83,3.36-22.87-.43-10.36,11.99-16.6,19.56-9.02ZM68.27,98.02c-10.84,1.38-17.16,13.47-10.11,22.59,11.13,14.41,37.43,5.17,30.19-12.26-3.2-7.69-12.11-11.35-20.08-10.33ZM119.98,98.03c-23.28,2.53-18.96,34.58,5,29.27,20.27-4.5,17.23-31.69-5-29.27ZM97.08,120.13c-4.53,3.5-11.38,11.65-6.58,17.36,2.1,2.5,4.78,1.3,6.81-.51,2.22,2.88,5.71,2.29,7.32-.83,2.94-5.7-3.22-12.82-7.56-16.02Z"
    />
  </symbol>
  <symbol id="horror" viewBox="0 0 200 200">
    <path
      d="M152.81,82.86c2.24,2.26,11.78-2.74,14.2-4.07,3.33-1.83,10.91-7.84,13.99-8.14,6.11-.6,7.97,7,8.6,11.77,1.46,10.94-1.39,22.85-4.73,33.19-5.81-4.69-13.33-12.09-21.43-11.58-5.79.37-7.59,2.84-14.31.95-1.92-.54-3.13-2.06-5.18-.76-3.15,2-6.65,11.54-7.64,15.19-4.04,14.79-4.69,37.37,13.94,41.71,13.8,3.22,37.7,4.6,39.63,23.61.04.4.3,1.07-.44.79-.79-.3-2.9-2.13-3.94-2.74-19.58-11.49-30.73-3.9-50.87-2.88-17.69.9-35.89-1.23-51.08-10.74-26.23-16.43-34.24-49.73-35.86-78.83-1.65-.11-3.06.41-4.74.35-4.93-.16-9.56-3.1-14.6-2.3-5.84.92-10.34,6.49-14.73,9.86-.35.27-.44.68-1.05.52-1.22-10.57-5.33-26.96.42-36.64,3.34-5.62,6.87-5.7,12.23-2.89,5,2.63,13.17,9.63,18.47,10.34,7.27.97,6.15-4.51,7.28-9.52,7.43-32.97,36.01-51.88,69.52-43.74,28.15,6.84,40.94,29.76,33.97,57.66-.47,1.9-2.97,7.57-1.65,8.9ZM96.17,64.32l-22.48-21.77c-7.94,15.8,7.34,29.1,22.48,21.77ZM142.19,54.84l-28.8,12.12c6.33,7.11,18.47,8.9,25.12,1.23,1.33-1.53,3.68-6.33,3.68-8.26v-5.09ZM125.32,88.92c-18.64,7.24-42.62,5.31-54.94-11.98l-1.96-3.13c-.21,3.9.25,7.73.7,11.59l3.51-2.46.36,11.94,8.07-6.67,2.47,13.7c2.43-1.72,4.37-4.73,6.67-6.5.35-.27.45-.68,1.05-.52l2.46,10.89,7.55-9.13,5.27,8.42,7.05-7.71,3.66,4.55c2.93-4.09,6.5-8.04,8.08-13Z"
    />
  </symbol>
  <symbol id="vampires" viewBox="0 0 200 200">
    <path
      d="M109.19,64.24c-1.27,4.95-2.83,9.88-5.02,14.52-1.3,2.76-4.11,9.1-7.5,9.04-3.09-.06-11.32-3.26-14.4-4.64-1.28-.57-7.35-4.17-7.8-4.18-1.37-.01-1.94,3.5-4.6,3.86-3.23.44-4.78-2.98-9.78-1s-3.79,7.87-7.88,8.34c-1.8.21-3.83-1.72-5.63-2.3-6.41-2.06-11.22,1-13.72,6.85-.73,1.71-.63,4.16-2.87,4.87-2.95.93-4.23-.91-5.22-3.27-4.85-11.53-3.58-29.12,4.5-38.98,7.35-8.97,18.87-6.21,28.5-3l-2.47-31.52c-.06-3.08,3.01-5.06,5.77-3.64,1.66.85,7.12,8.02,9.02,10,.2.21.28.56.38.84l6.62-2.47-.93-13.78c.35-3.57,3.89-5.01,6.62-2.57l20.58,23.77c.49.11.6-.26.8-.6,3.1-5.23,4.77-9.41,9.76-13.47,14.18-11.54,38.05,7.39,42.92,21.47.6,1.74.85,2.3-.23,3.98-2.62,4.07-6.94-.69-10.35-1.14-5.16-.69-9.55,2-11.47,6.77-.73,1.8-.61,4.35-2.84,5.26-2.41.98-3.33-.35-5.25-.9-3.26-.94-6.7-.04-8.73,2.75-1.26,1.74-1.17,4.11-3.2,5.25-2.27,1.28-3.31-.29-5.56-.11ZM88.65,42.81c-4,.66-3.72,6.72-.07,7.3,6.11.97,5.98-8.27.07-7.3ZM74.93,48.43c-4.76.91-3.96,8.6,1.95,7.25,4.15-.95,2.51-8.1-1.95-7.25Z"
    />
    <path
      d="M122.91,117.67l6.62,2.47c.1-.38.26-.74.54-1.04,2.12-2.23,6.6-8.36,8.66-9.66,2.75-1.73,6.04.34,5.98,3.49l-2.47,31.52c2.23-.59,4.35-1.5,6.62-2,10.84-2.39,18.68-1.37,24.41,8.8,5.25,9.33,6.01,21.27,3.2,31.48-.89,3.22-2.65,9.53-7.31,6.42-1.62-1.08-1.36-2.78-2.01-4.32-2.29-5.35-6.64-8.65-12.68-7.21-2.15.51-4.85,2.87-6.68,2.66-3.28-.37-3.05-3.34-4.41-5.48-1.27-1.99-4.23-3.68-6.58-3.62-2.98.08-5.79,3.32-8.61.86-.72-.63-1.45-2.7-2.39-2.93h-.54c-3.77,2.45-7.84,4.41-12.05,5.95-2.41.88-8.91,3.22-11.1,2.65s-4.9-6.06-5.92-8.16c-2.36-4.84-4.05-10.01-5.37-15.22-2.26-.18-3.29,1.38-5.56.11-2.03-1.14-1.93-3.51-3.2-5.25-2.04-2.8-5.53-3.82-8.8-2.82-1.88.57-2.64,2-5.18.97-2.09-.85-2-3.29-2.73-5.01-2.42-5.64-7.47-8.48-13.53-6.51-2.46.8-4.29,3.25-7.14,1.84-4.38-2.15.3-9.11,2.06-11.86,6.84-10.66,25.74-24.34,38.2-15.74,5.43,3.75,7.95,9.15,11.14,14.56.17.29-.1.59.6.45l20.23-23.42c2.59-2.81,6.51-1.63,7.03,2.15l-1,13.84ZM109.77,132.92c-4,.65-3.73,6.72-.07,7.3,6.06.96,6.06-8.27.07-7.3ZM123.84,138.54c-4.52.86-4.02,7.79.84,7.48,5.45-.34,3.93-8.39-.84-7.48Z"
    />
  </symbol>
  <symbol id="travel" viewBox="0 0 200 200">
    <path
      d="M159.05,85.94c3.92-2.89,9.18-1.3,11.63,2.65,4.6,7.44-3.32,11.47-7.35,16.42l2.97,14.19c.56.94,1.74-.95,2.43-1.34,6.7-3.82,13.82.9,12.77,8.55-.67,4.89-8.43,8.92-10.74,13.16l6.43,29.64c.43,3.92.26,4.89-2.2,7.85-3.53,4.23-9.49,10.79-15.37,6.44-14.91-22.98-26.24-48.95-40.67-72.25-.35-.56-.61-1.23-.69-1.89-.71-.19-.78.19-1.17.46-.91.62-2.99,2.62-3.98,3.51-11.75,10.56-23.14,21.55-34.9,32.1l-2.21,37.14c-3.71,4.01-9.14,11.59-14.06,4.41l-13.74-35.45-35.23-13.5c-7.17-4.89.36-10.32,4.41-14.05l37.15-2.21,36.09-39.35-2.96-2.18L17.1,41.16c-2.05-1.99-2.42-5.39-1.56-8.03.59-1.79,8.58-9.73,10.4-10.21,1.58-.41,3.21-.29,4.81-.09l29.65,6.43c1.58-.16,8.09-8.43,10.77-9.85,7.75-4.09,15.51,4.23,10.95,11.88-.4.68-2.27,1.88-1.34,2.43l14.2,2.97c5.04-4.05,8.91-12.01,16.43-7.35,4.04,2.5,5.1,7.13,3.14,11.37l11.87,2.97c13.96-12.23,26.3-31.75,46.51-33.57,10.61-.95,17.94,7.61,16.99,17.92-1.7,18.51-21.97,32.51-33.46,45.27l2.6,12.64Z"
    />
  </symbol>
  <symbol id="far-west" viewBox="0 0 200 200">
    <path
      d="M166.12,64.86l-17.55,33.81,19.44,32.88c7.97-5.05,16.66,5.38,10.21,12.37-4.59,4.98-13.86,2.08-13.89-4.93l-39.02,1.58-19.68,34.1c5.63,3.07,5.83,11.36-.04,14.37-7.55,3.88-15.25-4.76-10.45-11.86.72-1.07,2.93-2.27,2.7-3.14l-20.57-32.53h-37.51s-1.56.36-1.56.36c-.23,8.15-10.49,11.63-15.12,4.62-4.76-7.22,3.71-15.6,11.18-11.36l18.22-34.68-19.65-33.83c-4.58,2.74-11,1.56-12.8-3.89-3.83-11.64,15.26-15.51,15.64-2.81l40.08-1.58,18.94-33.1-.12-.48c-5.08-3.11-4.72-11.09.62-13.76,8.16-4.09,15.65,5.33,10.03,12.49-.65.83-2.12,1.02-1.56,2.34l19.89,31.45c12.8.19,25.68.51,38.45-.22l.41-.29c.76-6.01,7.28-9.4,12.58-5.93,4.32,2.82,4.83,9.02,1.13,12.61-2.9,2.81-6.42,2.37-10,1.42Z"
    />
  </symbol>
  <symbol id="mining" viewBox="0 0 200 200">
    <path
      d="M76.89,178.55c3.17-13.3-4.94-27.42-17.69-31.9-11.16-3.91-21.93-.94-30.32,7.01l-10.18-42.39c-3.66.44-7.79-.58-8.36-4.78-1-7.35.61-16.84.05-24.42.33-1.95,2.16-3.9,4.1-4.31l169.83-.17c2.88.11,5.11,2.25,5.42,5.09.8,7.49-.53,16.45-.09,24.1-.97,4.08-4.56,4.85-8.31,4.48l-10.18,42.39c-19.83-20.03-53.63-2.91-48.01,24.88h-46.26Z"
    />
    <path
      d="M126.65,66.41H26.07c-.03-.85-.06-1.63.16-2.46,1.09-4.09,5.43-9.89,6.85-14.18,5.2-4.18,10.75-11.85,15.95-15.59,1.37-.99,2.52-1.29,4.19-1.42,4.83-.36,13.47-.43,18.25,0s9.85,8.19,13.85,11.03c1.89,1.35,10.67,5.59,12.77,5.8,3.26.33,7.26-.45,10.43.09,1.77.3,11.12,4.94,12.33,6.24,1.03,1.12,5.37,7.48,5.65,8.72.13.59.21,1.17.16,1.77Z"
    />
    <path
      d="M178.52,66.41h-40.65c.26-5.91-3.64-11.4-7.07-15.88-4.24-5.52-8.85-6.96-14.88-10l-6.78-2.33c2.65-1.96,4.35-5.04,7.88-5.43,2.6-.29,5.67.38,8.26-.15,3.19-.66,5.98-4.66,9.07-5.3s15.19-.5,18.78-.17c5.57.52,6.89,7.97,10.67,11.06,2.4,1.97,7.29,2.96,9.12,5.25.67.84,5.61,11.26,5.61,11.91v11.04Z"
    />
    <path
      d="M47.37,156.22c20.53-2.47,26.48,27.23,6.92,32.85-23.32,6.71-30.19-30.05-6.92-32.85Z"
    />
    <path
      d="M148.31,156.22c20.53-2.47,26.48,27.23,6.92,32.85-23.32,6.71-30.19-30.05-6.92-32.85Z"
    />
    <path
      d="M64.62,21.56c1.05-1.1,1.85-2.49,2.97-3.51,1.96-1.8,11.5-6.43,14.2-7.18,4.43-1.23,18.99-.72,23.97-.13,5.72.68,9.27,7.23,13.18,10.82-4.67-.28-8.76,1.05-12.43,3.87-1.81,1.39-10.6,10.42-11.59,10.52-2.34.23-6.48-4.93-8.22-6.5-3.35-3.02-8.32-7.88-13.15-7.88h-8.94Z"
    />
  </symbol>
  <symbol id="adventure" viewBox="0 0 200 200">
    <path d="M96.89,10.25l5.63-.11c71.36,2.27,112.48,83.36,70.78,141.98-37.17,52.26-115.72,49.79-149.61-4.58C-12.97,88.73,28.27,13.05,96.89,10.25ZM97.65,22.5c-57.92,1.98-93.62,64.33-65.45,115.38,28.68,51.97,103.88,53.06,134.36,2.16,31.42-52.47-7.89-119.62-68.91-117.53Z"/>
    <path d="M93.82,30.92c56.08-4.1,94.39,54.62,66.37,103.89-27.99,49.21-101.19,44.97-123.78-6.89-18.72-42.97,10.43-93.57,57.41-97ZM99.16,38.93c-1.79.35-2.96,1.91-3.26,3.65-.41,2.47-.37,9.58-.09,12.16.63,5.86,7.45,5.94,8.33.67.41-2.42.38-9.64.09-12.16-.31-2.74-2.13-4.89-5.08-4.32ZM140.48,59.65c-1.44-1.44-3.69-1.53-5.37-.45l-44.79,23.73-.61.88,26.97,26.63,24.26-45.42c1.08-1.68.98-3.93-.45-5.37ZM59.58,140.55c1.44,1.44,3.69,1.53,5.37.45,13.53-7.52,27.52-14.24,41.08-21.7.81-.44,4.47-2.27,4.32-2.91l-26.97-26.63-24.27,45.41c-1.06,1.69-.98,3.93.46,5.37ZM42.5,95.98c-4.69.79-5,6.93-.6,8.07,2.14.55,10.74.55,13.1.23,5.13-.7,5.62-6.91.92-8.13-2.1-.54-11.15-.55-13.43-.17ZM144.72,95.98c-4.97.84-5.12,7.15-.3,8.16,2.22.47,10.85.46,13.14.08,4.82-.81,4.98-7.18.3-8.16-2.22-.46-10.85-.46-13.14-.08ZM98.77,141.15c-1.54.35-2.61,2.19-2.86,3.65-.41,2.42-.38,9.63-.09,12.16.64,5.77,7.48,5.75,8.33.67.41-2.47.37-9.58.09-12.16-.33-3.07-2.25-5.06-5.47-4.32Z"/>
  </symbol>
</svg>
