<svg
  xmlns="http://www.w3.org/2000/svg"
  xmlns:xlink="http://www.w3.org/1999/xlink"
>
  <symbol id="x" viewBox="0 0 250 250">
    <path
      d="M227,220.58c-.72,0-1.16.1-1.6.1q-28.83,0-57.67,0a2.64,2.64,0,0,1-2.37-1.21q-17.47-23.44-35-46.86l-19.54-26.1c-.19-.27-.41-.51-.73-.9-1.6,1.71-3.16,3.36-4.69,5q-14.34,15.48-28.66,31Q59,200.81,41.21,220a2.15,2.15,0,0,1-1.36.68c-5.4,0-10.8,0-16.19,0a4.14,4.14,0,0,1-.69-.16c.32-.41.53-.73.79-1l50.05-54.09q13.66-14.76,27.33-29.5a1.44,1.44,0,0,0,.11-2.26Q77.06,101.4,52.93,69.09,38.65,50,24.39,30.92c-.32-.42-.6-.87-1-1.48.57-.06.92-.13,1.28-.13q29,0,58,0A2.47,2.47,0,0,1,85,30.46q13.78,18.51,27.64,37l22.3,29.79c.26.35.55.68.92,1.15,1.58-1.68,3.06-3.24,4.51-4.81l40.07-43.32q9.26-10,18.54-20a2.83,2.83,0,0,1,1.76-.91c5.19-.07,10.38,0,15.57,0a11.25,11.25,0,0,1,1.12.14,7.94,7.94,0,0,1-.63.89L172.26,78.4q-13.78,14.88-27.57,29.77a1.37,1.37,0,0,0-.09,2.11q22.83,30.48,45.61,61,17.92,24,35.87,47.92C226.36,219.56,226.61,220,227,220.58ZM49.72,42.53c.38.59.59,1,.84,1.31L84.71,89.47l57,76.24q15.24,20.39,30.47,40.78a2.17,2.17,0,0,0,2,1c8.47,0,16.94,0,25.41,0a11.06,11.06,0,0,0,1.12-.13c-.51-.7-.91-1.27-1.32-1.82q-12.57-16.78-25.12-33.58L144,131.45q-14.68-19.62-29.38-39.24Q96.37,67.85,78.18,43.46a2.31,2.31,0,0,0-2.08-1c-8.35,0-16.69,0-25,0C50.73,42.46,50.41,42.49,49.72,42.53Z"
    ></path></symbol
  ><symbol id="linkedin" viewBox="0 0 250 250">
    <g>
      <g>
        <path
          d="M55.44,32.96c12.29,0,22.09,9.95,21.99,22.16C77.34,67.33,67.4,77.28,55.11,77.28    c-12.21,0-22.09-9.95-21.99-22.16C33.21,42.91,43.23,32.96,55.44,32.96z"
        ></path>
      </g>
      <g>
        <polygon points="74.15,94.02 73.21,217.04 34.95,217.04 35.89,94.02   "
        ></polygon>
      </g>
      <g>
        <path
          d="M171.47,91.03c38.74,0,45.67,25.4,45.41,58.56l-0.51,67.45h-38.18l0.46-59.77    c0.11-14.32-0.07-32.68-19.65-32.68c-19.9,0-23.01,15.53-23.13,31.62l-0.46,60.82H97.15l0.94-123.02h36.64l-0.13,16.82h0.57    C140.33,101.22,152.87,91.03,171.47,91.03z"
        ></path>
      </g>
    </g></symbol
  ><symbol id="instagram" viewBox="0 0 250 250">
    <g>
      <g>
        <path
          d="M169.64,70.82c0.04,0,0.08,0,0.12,0c5.47,0,9.91,4.47,9.87,10.01c-0.04,5.47-4.55,9.94-10.09,9.94    c-5.54-0.07-9.91-4.54-9.87-10.01C159.71,75.26,164.15,70.82,169.64,70.82z"
        ></path>
      </g>
      <g>
        <path
          d="M207.1,83.63c1.24,13.08,2.03,74.88-1.82,89.36c-5.15,18.95-17.52,30.17-36.69,33.24    c-7.17,1.15-26.52,1.85-45.85,1.85c-19.78,0-39.54-0.73-46.18-2.45c-18.85-4.87-30.1-17.15-33.09-36.24    c-2.23-14.01-2.47-79.15,1.58-93.3c5.28-18.42,17.57-29.23,36.22-32.3c8.45-1.38,24.97-1.87,41.65-1.87    c15.51,0,31.16,0.42,40.58,0.94c11.41,0.6,21.86,4.27,30.34,12.41C201.92,63.01,206.05,72.69,207.1,83.63z M191.12,166.65    c2.38-14.62,2.39-67.94,1.02-81.62c-1.49-14.62-10.43-24.23-24.89-26.49c-7.16-1.09-24.4-1.57-41.55-1.57    c-16.55,0-33.02,0.45-40.27,1.24c-14.49,1.67-24.24,10.61-26.55,25.03c-2.39,15.28-2.35,72.41-0.57,83.89    c1.84,11.95,8.59,20.16,20.51,23.49c6.45,1.81,25.76,2.46,44.7,2.46c17.43,0,34.55-0.55,40.98-1.25    C179.13,190.21,188.8,181.2,191.12,166.65"
        ></path>
      </g>
      <g>
        <path
          d="M125.36,82.43c23.49,0,42.43,19.09,42.25,42.65c-0.18,23.49-19.41,42.58-42.97,42.58    c-23.56,0-42.43-19.09-42.25-42.64C82.57,101.45,101.8,82.36,125.36,82.43z M124.73,152.57c15.1,0,27.54-12.16,27.79-27.3    c0.25-15.28-11.87-27.7-27.08-27.83c-0.08,0-0.17,0-0.25,0c-15.1,0-27.54,12.16-27.79,27.3c-0.25,15.22,11.87,27.7,27.08,27.83    C124.57,152.57,124.65,152.57,124.73,152.57"
        ></path>
      </g>
    </g></symbol
  ><symbol id="feeds" viewBox="0 0 250 250">
    <path
      d="M203.15,229.24c-5.5,0-11,0.08-16.49-0.02c-6.01-0.12-8.47-3.07-7.47-8.81c7.07-40.42-2.12-76.7-28.79-107.92  c-19.56-22.9-44.58-36.9-74.38-42.31c-15.77-2.87-31.38-2.46-47,0.82c-4.48,0.94-8.54-1.98-8.64-6.67  c-0.24-11.49-0.23-22.99,0-34.48c0.09-4.34,2.82-7.01,7.22-7.6c33.35-4.5,65.73-0.84,96.45,13.06  c51.27,23.2,84.72,62.08,99.69,116.43c6.43,23.37,7.19,47.2,3.57,71.15c-0.65,4.27-3.44,6.31-7.66,6.35  C214.14,229.29,208.64,229.24,203.15,229.24z"
    ></path>
    <path
      d="M21.26,120.12c0-5.66,0.15-11.33-0.04-16.98c-0.17-5,2.12-7.74,6.85-8.88c33.24-7.94,63.73-1.95,90.81,18.92  c23.46,18.08,36.73,42.38,41.38,71.55c2.08,13.06,0.37,25.76-2.75,38.43c-1.19,4.85-4.36,6.97-8.97,7.02  c-11.49,0.12-22.98,0.16-34.47,0c-6.27-0.09-9.05-4.44-7.31-10.58c1.62-5.72,3.58-11.41,4.49-17.25  c4.66-30.08-18.85-57.91-46.27-62.23c-11.04-1.74-21.44-0.51-31.68,3.68c-8.12,3.32-12.03,0.58-12.05-8.19  C21.25,130.45,21.25,125.28,21.26,120.12z"
    ></path>
    <path
      d="M89.34,195.7c-0.28,18-12.93,34.48-34.67,34.21c-20.52-0.26-34.02-14.32-34.08-34.28  c-0.06-22.49,17.21-34.42,34.42-34.45C74.31,161.13,89.35,176.3,89.34,195.7z"
    ></path></symbol
  ><symbol id="facebook" viewBox="0 0 250 250">
    <g>
      <path
        d="M150.94,26.34c5.28,0,10.59,0.29,15.85,0.52c3.44,0.14,6.87,0.63,10.09,0.98l-0.24,31.77   c-0.98,0-1.75,0-2.52,0c-3.49,0-6.97-0.05-10.46-0.05c-2.61,0-5.23,0.03-7.85,0.12c-8.42,0.28-14.61,3.44-15.04,13.96   c-0.27,7.57-0.46,24.3-0.47,25.18c0.44,0,8.76,0.03,17.13,0.03c4.19,0,8.28-0.01,11.13-0.03c2.17,0,4.35,0,6.8,0   c-1.71,12.2-3.27,23.91-4.97,35.7H140.3l-0.68,89.14h-36.96l0.68-89.28H73.12l0.27-35.49h30.37l0.02-2.67   c0.05-7.15-0.03-14.31,0.23-21.46c0.1-4.49,0.35-9.12,1.16-13.61c2.05-10.87,7.1-19.99,16.19-26.51   c7.97-5.68,17.03-8.07,26.64-8.28C148.98,26.35,149.96,26.34,150.94,26.34z"
      ></path>
    </g></symbol
  ><symbol id="email" viewBox="0 0 250 250">
    <g>
      <path
        d="M21.74,66.32c1.89,1.53,3.03,2.41,4.11,3.34c22.14,19.04,44.27,38.09,66.4,57.14   c9.33,8.04,18.64,16.1,27.98,24.13c5.47,4.71,8.31,4.68,13.74-0.18c30.06-26.91,60.1-53.83,90.15-80.74   c1.07-0.96,2.21-1.86,4.15-3.49c0,2.39,0,3.91,0,5.44c0,35.83,0,71.65,0,107.48c0,10.67-3.85,14.47-14.67,14.47   c-59.15,0.01-118.31,0.01-177.46,0c-10.43,0-14.39-3.97-14.39-14.32c0-35.96,0-71.93,0-107.89C21.74,70.24,21.74,68.79,21.74,66.32   z"
      ></path>
      <path
        d="M33.78,56.09c61.41,0,121.4,0,182.74,0c-30.28,27.11-59.76,53.51-89.61,80.25   C96.08,109.78,65.39,83.33,33.78,56.09z"
      ></path>
    </g></symbol
  >
</svg>
